<?xml version="1.0" encoding="utf-8" standalone="no"?>
<!DOCTYPE svg PUBLIC "-//W3C//DTD SVG 1.1//EN"
  "http://www.w3.org/Graphics/SVG/1.1/DTD/svg11.dtd">
<!-- Created with matplotlib (https://matplotlib.org/) -->
<svg height="899.313825pt" version="1.1" viewBox="0 0 1128.70375 899.313825" width="1128.70375pt" xmlns="http://www.w3.org/2000/svg" xmlns:xlink="http://www.w3.org/1999/xlink">
 <metadata>
  <rdf:RDF xmlns:cc="http://creativecommons.org/ns#" xmlns:dc="http://purl.org/dc/elements/1.1/" xmlns:rdf="http://www.w3.org/1999/02/22-rdf-syntax-ns#">
   <cc:Work>
    <dc:type rdf:resource="http://purl.org/dc/dcmitype/StillImage"/>
    <dc:date>2020-11-16T15:42:13.303936</dc:date>
    <dc:format>image/svg+xml</dc:format>
    <dc:creator>
     <cc:Agent>
      <dc:title>Matplotlib v3.3.2, https://matplotlib.org/</dc:title>
     </cc:Agent>
    </dc:creator>
   </cc:Work>
  </rdf:RDF>
 </metadata>
 <defs>
  <style type="text/css">*{stroke-linecap:butt;stroke-linejoin:round;}</style>
 </defs>
 <g id="figure_1">
  <g id="patch_1">
   <path d="M 0 899.313825 
L 1128.70375 899.313825 
L 1128.70375 0 
L 0 0 
z
" style="fill:none;"/>
  </g>
  <g id="axes_1">
   <g id="patch_2">
    <path d="M 50.14375 861.757575 
L 1121.50375 861.757575 
L 1121.50375 78.973575 
L 50.14375 78.973575 
z
" style="fill:#ffffff;"/>
   </g>
   <g id="patch_3">
    <path clip-path="url(#p88c6d2c166)" d="M 58.954276 861.757575 
L 65.297855 861.757575 
L 65.297855 343.472162 
L 58.954276 343.472162 
z
" style="fill:#1f77b4;"/>
   </g>
   <g id="patch_4">
    <path clip-path="url(#p88c6d2c166)" d="M 94.196382 861.757575 
L 100.539961 861.757575 
L 100.539961 330.700416 
L 94.196382 330.700416 
z
" style="fill:#1f77b4;"/>
   </g>
   <g id="patch_5">
    <path clip-path="url(#p88c6d2c166)" d="M 129.438487 861.757575 
L 135.782066 861.757575 
L 135.782066 336.056311 
L 129.438487 336.056311 
z
" style="fill:#1f77b4;"/>
   </g>
   <g id="patch_6">
    <path clip-path="url(#p88c6d2c166)" d="M 164.680592 861.757575 
L 171.024171 861.757575 
L 171.024171 338.940239 
L 164.680592 338.940239 
z
" style="fill:#1f77b4;"/>
   </g>
   <g id="patch_7">
    <path clip-path="url(#p88c6d2c166)" d="M 199.922697 861.757575 
L 206.266276 861.757575 
L 206.266276 338.116267 
L 199.922697 338.116267 
z
" style="fill:#1f77b4;"/>
   </g>
   <g id="patch_8">
    <path clip-path="url(#p88c6d2c166)" d="M 235.164803 861.757575 
L 241.508382 861.757575 
L 241.508382 331.936399 
L 235.164803 331.936399 
z
" style="fill:#1f77b4;"/>
   </g>
   <g id="patch_9">
    <path clip-path="url(#p88c6d2c166)" d="M 270.406908 861.757575 
L 276.750487 861.757575 
L 276.750487 334.820327 
L 270.406908 334.820327 
z
" style="fill:#1f77b4;"/>
   </g>
   <g id="patch_10">
    <path clip-path="url(#p88c6d2c166)" d="M 305.649013 861.757575 
L 311.992592 861.757575 
L 311.992592 331.936399 
L 305.649013 331.936399 
z
" style="fill:#1f77b4;"/>
   </g>
   <g id="patch_11">
    <path clip-path="url(#p88c6d2c166)" d="M 340.891118 861.757575 
L 347.234697 861.757575 
L 347.234697 333.584393 
L 340.891118 333.584393 
z
" style="fill:#1f77b4;"/>
   </g>
   <g id="patch_12">
    <path clip-path="url(#p88c6d2c166)" d="M 376.133224 861.757575 
L 382.476803 861.757575 
L 382.476803 326.168542 
L 376.133224 326.168542 
z
" style="fill:#1f77b4;"/>
   </g>
   <g id="patch_13">
    <path clip-path="url(#p88c6d2c166)" d="M 411.375329 861.757575 
L 417.718908 861.757575 
L 417.718908 337.704305 
L 411.375329 337.704305 
z
" style="fill:#1f77b4;"/>
   </g>
   <g id="patch_14">
    <path clip-path="url(#p88c6d2c166)" d="M 446.617434 861.757575 
L 452.961013 861.757575 
L 452.961013 332.760372 
L 446.617434 332.760372 
z
" style="fill:#1f77b4;"/>
   </g>
   <g id="patch_15">
    <path clip-path="url(#p88c6d2c166)" d="M 481.859539 861.757575 
L 488.203118 861.757575 
L 488.203118 333.172382 
L 481.859539 333.172382 
z
" style="fill:#1f77b4;"/>
   </g>
   <g id="patch_16">
    <path clip-path="url(#p88c6d2c166)" d="M 517.101645 861.757575 
L 523.445224 861.757575 
L 523.445224 319.576663 
L 517.101645 319.576663 
z
" style="fill:#1f77b4;"/>
   </g>
   <g id="patch_17">
    <path clip-path="url(#p88c6d2c166)" d="M 552.34375 861.757575 
L 558.687329 861.757575 
L 558.687329 337.292294 
L 552.34375 337.292294 
z
" style="fill:#1f77b4;"/>
   </g>
   <g id="patch_18">
    <path clip-path="url(#p88c6d2c166)" d="M 587.585855 861.757575 
L 593.929434 861.757575 
L 593.929434 339.764261 
L 587.585855 339.764261 
z
" style="fill:#1f77b4;"/>
   </g>
   <g id="patch_19">
    <path clip-path="url(#p88c6d2c166)" d="M 622.827961 861.757575 
L 629.171539 861.757575 
L 629.171539 337.704305 
L 622.827961 337.704305 
z
" style="fill:#1f77b4;"/>
   </g>
   <g id="patch_20">
    <path clip-path="url(#p88c6d2c166)" d="M 658.070066 861.757575 
L 664.413645 861.757575 
L 664.413645 333.172382 
L 658.070066 333.172382 
z
" style="fill:#1f77b4;"/>
   </g>
   <g id="patch_21">
    <path clip-path="url(#p88c6d2c166)" d="M 693.312171 861.757575 
L 699.65575 861.757575 
L 699.65575 332.34841 
L 693.312171 332.34841 
z
" style="fill:#1f77b4;"/>
   </g>
   <g id="patch_22">
    <path clip-path="url(#p88c6d2c166)" d="M 728.554276 861.757575 
L 734.897855 861.757575 
L 734.897855 332.760372 
L 728.554276 332.760372 
z
" style="fill:#1f77b4;"/>
   </g>
   <g id="patch_23">
    <path clip-path="url(#p88c6d2c166)" d="M 763.796382 861.757575 
L 770.139961 861.757575 
L 770.139961 340.588234 
L 763.796382 340.588234 
z
" style="fill:#1f77b4;"/>
   </g>
   <g id="patch_24">
    <path clip-path="url(#p88c6d2c166)" d="M 799.038487 861.757575 
L 805.382066 861.757575 
L 805.382066 326.992515 
L 799.038487 326.992515 
z
" style="fill:#1f77b4;"/>
   </g>
   <g id="patch_25">
    <path clip-path="url(#p88c6d2c166)" d="M 834.280592 861.757575 
L 840.624171 861.757575 
L 840.624171 340.176223 
L 834.280592 340.176223 
z
" style="fill:#1f77b4;"/>
   </g>
   <g id="patch_26">
    <path clip-path="url(#p88c6d2c166)" d="M 869.522697 861.757575 
L 875.866276 861.757575 
L 875.866276 334.408366 
L 869.522697 334.408366 
z
" style="fill:#1f77b4;"/>
   </g>
   <g id="patch_27">
    <path clip-path="url(#p88c6d2c166)" d="M 904.764803 861.757575 
L 911.108382 861.757575 
L 911.108382 330.288454 
L 904.764803 330.288454 
z
" style="fill:#1f77b4;"/>
   </g>
   <g id="patch_28">
    <path clip-path="url(#p88c6d2c166)" d="M 940.006908 861.757575 
L 946.350487 861.757575 
L 946.350487 337.292294 
L 940.006908 337.292294 
z
" style="fill:#1f77b4;"/>
   </g>
   <g id="patch_29">
    <path clip-path="url(#p88c6d2c166)" d="M 975.249013 861.757575 
L 981.592592 861.757575 
L 981.592592 328.64046 
L 975.249013 328.64046 
z
" style="fill:#1f77b4;"/>
   </g>
   <g id="patch_30">
    <path clip-path="url(#p88c6d2c166)" d="M 1010.491118 861.757575 
L 1016.834697 861.757575 
L 1016.834697 332.760372 
L 1010.491118 332.760372 
z
" style="fill:#1f77b4;"/>
   </g>
   <g id="patch_31">
    <path clip-path="url(#p88c6d2c166)" d="M 1045.733224 861.757575 
L 1052.076803 861.757575 
L 1052.076803 344.296135 
L 1045.733224 344.296135 
z
" style="fill:#1f77b4;"/>
   </g>
   <g id="patch_32">
    <path clip-path="url(#p88c6d2c166)" d="M 1080.975329 861.757575 
L 1087.318908 861.757575 
L 1087.318908 334.820327 
L 1080.975329 334.820327 
z
" style="fill:#1f77b4;"/>
   </g>
   <g id="patch_33">
    <path clip-path="url(#p88c6d2c166)" d="M 65.297855 861.757575 
L 71.641434 861.757575 
L 71.641434 344.973713 
L 65.297855 344.973713 
z
" style="fill:#ff7f0e;"/>
   </g>
   <g id="patch_34">
    <path clip-path="url(#p88c6d2c166)" d="M 100.539961 861.757575 
L 106.883539 861.757575 
L 106.883539 330.20846 
L 100.539961 330.20846 
z
" style="fill:#ff7f0e;"/>
   </g>
   <g id="patch_35">
    <path clip-path="url(#p88c6d2c166)" d="M 135.782066 861.757575 
L 142.125645 861.757575 
L 142.125645 335.540357 
L 135.782066 335.540357 
z
" style="fill:#ff7f0e;"/>
   </g>
   <g id="patch_36">
    <path clip-path="url(#p88c6d2c166)" d="M 171.024171 861.757575 
L 177.36775 861.757575 
L 177.36775 340.051962 
L 171.024171 340.051962 
z
" style="fill:#ff7f0e;"/>
   </g>
   <g id="patch_37">
    <path clip-path="url(#p88c6d2c166)" d="M 206.266276 861.757575 
L 212.609855 861.757575 
L 212.609855 336.360649 
L 206.266276 336.360649 
z
" style="fill:#ff7f0e;"/>
   </g>
   <g id="patch_38">
    <path clip-path="url(#p88c6d2c166)" d="M 241.508382 861.757575 
L 247.851961 861.757575 
L 247.851961 331.028752 
L 241.508382 331.028752 
z
" style="fill:#ff7f0e;"/>
   </g>
   <g id="patch_39">
    <path clip-path="url(#p88c6d2c166)" d="M 276.750487 861.757575 
L 283.094066 861.757575 
L 283.094066 333.899773 
L 276.750487 333.899773 
z
" style="fill:#ff7f0e;"/>
   </g>
   <g id="patch_40">
    <path clip-path="url(#p88c6d2c166)" d="M 311.992592 861.757575 
L 318.336171 861.757575 
L 318.336171 329.798314 
L 311.992592 329.798314 
z
" style="fill:#ff7f0e;"/>
   </g>
   <g id="patch_41">
    <path clip-path="url(#p88c6d2c166)" d="M 347.234697 861.757575 
L 353.578276 861.757575 
L 353.578276 333.489627 
L 347.234697 333.489627 
z
" style="fill:#ff7f0e;"/>
   </g>
   <g id="patch_42">
    <path clip-path="url(#p88c6d2c166)" d="M 382.476803 861.757575 
L 388.820382 861.757575 
L 388.820382 327.337438 
L 382.476803 327.337438 
z
" style="fill:#ff7f0e;"/>
   </g>
   <g id="patch_43">
    <path clip-path="url(#p88c6d2c166)" d="M 417.718908 861.757575 
L 424.062487 861.757575 
L 424.062487 336.360649 
L 417.718908 336.360649 
z
" style="fill:#ff7f0e;"/>
   </g>
   <g id="patch_44">
    <path clip-path="url(#p88c6d2c166)" d="M 452.961013 861.757575 
L 459.304592 861.757575 
L 459.304592 333.079481 
L 452.961013 333.079481 
z
" style="fill:#ff7f0e;"/>
   </g>
   <g id="patch_45">
    <path clip-path="url(#p88c6d2c166)" d="M 488.203118 861.757575 
L 494.546697 861.757575 
L 494.546697 333.489627 
L 488.203118 333.489627 
z
" style="fill:#ff7f0e;"/>
   </g>
   <g id="patch_46">
    <path clip-path="url(#p88c6d2c166)" d="M 523.445224 861.757575 
L 529.788803 861.757575 
L 529.788803 319.544666 
L 523.445224 319.544666 
z
" style="fill:#ff7f0e;"/>
   </g>
   <g id="patch_47">
    <path clip-path="url(#p88c6d2c166)" d="M 558.687329 861.757575 
L 565.030908 861.757575 
L 565.030908 337.18094 
L 558.687329 337.18094 
z
" style="fill:#ff7f0e;"/>
   </g>
   <g id="patch_48">
    <path clip-path="url(#p88c6d2c166)" d="M 593.929434 861.757575 
L 600.273013 861.757575 
L 600.273013 340.462108 
L 593.929434 340.462108 
z
" style="fill:#ff7f0e;"/>
   </g>
   <g id="patch_49">
    <path clip-path="url(#p88c6d2c166)" d="M 629.171539 861.757575 
L 635.515118 861.757575 
L 635.515118 335.950503 
L 629.171539 335.950503 
z
" style="fill:#ff7f0e;"/>
   </g>
   <g id="patch_50">
    <path clip-path="url(#p88c6d2c166)" d="M 664.413645 861.757575 
L 670.757224 861.757575 
L 670.757224 333.899773 
L 664.413645 333.899773 
z
" style="fill:#ff7f0e;"/>
   </g>
   <g id="patch_51">
    <path clip-path="url(#p88c6d2c166)" d="M 699.65575 861.757575 
L 705.999329 861.757575 
L 705.999329 332.259189 
L 699.65575 332.259189 
z
" style="fill:#ff7f0e;"/>
   </g>
   <g id="patch_52">
    <path clip-path="url(#p88c6d2c166)" d="M 734.897855 861.757575 
L 741.241434 861.757575 
L 741.241434 330.20846 
L 734.897855 330.20846 
z
" style="fill:#ff7f0e;"/>
   </g>
   <g id="patch_53">
    <path clip-path="url(#p88c6d2c166)" d="M 770.139961 861.757575 
L 776.483539 861.757575 
L 776.483539 342.102691 
L 770.139961 342.102691 
z
" style="fill:#ff7f0e;"/>
   </g>
   <g id="patch_54">
    <path clip-path="url(#p88c6d2c166)" d="M 805.382066 861.757575 
L 811.725645 861.757575 
L 811.725645 322.825833 
L 805.382066 322.825833 
z
" style="fill:#ff7f0e;"/>
   </g>
   <g id="patch_55">
    <path clip-path="url(#p88c6d2c166)" d="M 840.624171 861.757575 
L 846.96775 861.757575 
L 846.96775 341.2824 
L 840.624171 341.2824 
z
" style="fill:#ff7f0e;"/>
   </g>
   <g id="patch_56">
    <path clip-path="url(#p88c6d2c166)" d="M 875.866276 861.757575 
L 882.209855 861.757575 
L 882.209855 338.821524 
L 875.866276 338.821524 
z
" style="fill:#ff7f0e;"/>
   </g>
   <g id="patch_57">
    <path clip-path="url(#p88c6d2c166)" d="M 911.108382 861.757575 
L 917.451961 861.757575 
L 917.451961 329.798314 
L 911.108382 329.798314 
z
" style="fill:#ff7f0e;"/>
   </g>
   <g id="patch_58">
    <path clip-path="url(#p88c6d2c166)" d="M 946.350487 861.757575 
L 952.694066 861.757575 
L 952.694066 338.001232 
L 946.350487 338.001232 
z
" style="fill:#ff7f0e;"/>
   </g>
   <g id="patch_59">
    <path clip-path="url(#p88c6d2c166)" d="M 981.592592 861.757575 
L 987.936171 861.757575 
L 987.936171 331.849043 
L 981.592592 331.849043 
z
" style="fill:#ff7f0e;"/>
   </g>
   <g id="patch_60">
    <path clip-path="url(#p88c6d2c166)" d="M 1016.834697 861.757575 
L 1023.178276 861.757575 
L 1023.178276 335.130211 
L 1016.834697 335.130211 
z
" style="fill:#ff7f0e;"/>
   </g>
   <g id="patch_61">
    <path clip-path="url(#p88c6d2c166)" d="M 1052.076803 861.757575 
L 1058.420382 861.757575 
L 1058.420382 343.743275 
L 1052.076803 343.743275 
z
" style="fill:#ff7f0e;"/>
   </g>
   <g id="patch_62">
    <path clip-path="url(#p88c6d2c166)" d="M 1087.318908 861.757575 
L 1093.662487 861.757575 
L 1093.662487 331.438897 
L 1087.318908 331.438897 
z
" style="fill:#ff7f0e;"/>
   </g>
   <g id="patch_63">
    <path clip-path="url(#p88c6d2c166)" d="M 71.641434 861.757575 
L 77.985013 861.757575 
L 77.985013 422.901438 
L 71.641434 422.901438 
z
" style="fill:#2ca02c;"/>
   </g>
   <g id="patch_64">
    <path clip-path="url(#p88c6d2c166)" d="M 106.883539 861.757575 
L 113.227118 861.757575 
L 113.227118 421.671 
L 106.883539 421.671 
z
" style="fill:#2ca02c;"/>
   </g>
   <g id="patch_65">
    <path clip-path="url(#p88c6d2c166)" d="M 142.125645 861.757575 
L 148.469224 861.757575 
L 148.469224 411.827498 
L 142.125645 411.827498 
z
" style="fill:#2ca02c;"/>
   </g>
   <g id="patch_66">
    <path clip-path="url(#p88c6d2c166)" d="M 177.36775 861.757575 
L 183.711329 861.757575 
L 183.711329 423.72173 
L 177.36775 423.72173 
z
" style="fill:#2ca02c;"/>
   </g>
   <g id="patch_67">
    <path clip-path="url(#p88c6d2c166)" d="M 212.609855 861.757575 
L 218.953434 861.757575 
L 218.953434 424.542022 
L 212.609855 424.542022 
z
" style="fill:#2ca02c;"/>
   </g>
   <g id="patch_68">
    <path clip-path="url(#p88c6d2c166)" d="M 247.851961 861.757575 
L 254.195539 861.757575 
L 254.195539 426.592751 
L 247.851961 426.592751 
z
" style="fill:#2ca02c;"/>
   </g>
   <g id="patch_69">
    <path clip-path="url(#p88c6d2c166)" d="M 283.094066 861.757575 
L 289.437645 861.757575 
L 289.437645 406.085455 
L 283.094066 406.085455 
z
" style="fill:#2ca02c;"/>
   </g>
   <g id="patch_70">
    <path clip-path="url(#p88c6d2c166)" d="M 318.336171 861.757575 
L 324.67975 861.757575 
L 324.67975 423.72173 
L 318.336171 423.72173 
z
" style="fill:#2ca02c;"/>
   </g>
   <g id="patch_71">
    <path clip-path="url(#p88c6d2c166)" d="M 353.578276 861.757575 
L 359.921855 861.757575 
L 359.921855 437.256545 
L 353.578276 437.256545 
z
" style="fill:#2ca02c;"/>
   </g>
   <g id="patch_72">
    <path clip-path="url(#p88c6d2c166)" d="M 388.820382 861.757575 
L 395.163961 861.757575 
L 395.163961 430.694211 
L 388.820382 430.694211 
z
" style="fill:#2ca02c;"/>
   </g>
   <g id="patch_73">
    <path clip-path="url(#p88c6d2c166)" d="M 424.062487 861.757575 
L 430.406066 861.757575 
L 430.406066 427.823189 
L 424.062487 427.823189 
z
" style="fill:#2ca02c;"/>
   </g>
   <g id="patch_74">
    <path clip-path="url(#p88c6d2c166)" d="M 459.304592 861.757575 
L 465.648171 861.757575 
L 465.648171 443.81888 
L 459.304592 443.81888 
z
" style="fill:#2ca02c;"/>
   </g>
   <g id="patch_75">
    <path clip-path="url(#p88c6d2c166)" d="M 494.546697 861.757575 
L 500.890276 861.757575 
L 500.890276 424.131876 
L 494.546697 424.131876 
z
" style="fill:#2ca02c;"/>
   </g>
   <g id="patch_76">
    <path clip-path="url(#p88c6d2c166)" d="M 529.788803 861.757575 
L 536.132382 861.757575 
L 536.132382 435.205816 
L 529.788803 435.205816 
z
" style="fill:#2ca02c;"/>
   </g>
   <g id="patch_77">
    <path clip-path="url(#p88c6d2c166)" d="M 565.030908 861.757575 
L 571.374487 861.757575 
L 571.374487 397.882537 
L 565.030908 397.882537 
z
" style="fill:#2ca02c;"/>
   </g>
   <g id="patch_78">
    <path clip-path="url(#p88c6d2c166)" d="M 600.273013 861.757575 
L 606.616592 861.757575 
L 606.616592 429.463773 
L 600.273013 429.463773 
z
" style="fill:#2ca02c;"/>
   </g>
   <g id="patch_79">
    <path clip-path="url(#p88c6d2c166)" d="M 635.515118 861.757575 
L 641.858697 861.757575 
L 641.858697 423.72173 
L 635.515118 423.72173 
z
" style="fill:#2ca02c;"/>
   </g>
   <g id="patch_80">
    <path clip-path="url(#p88c6d2c166)" d="M 670.757224 861.757575 
L 677.100803 861.757575 
L 677.100803 417.979687 
L 670.757224 417.979687 
z
" style="fill:#2ca02c;"/>
   </g>
   <g id="patch_81">
    <path clip-path="url(#p88c6d2c166)" d="M 705.999329 861.757575 
L 712.342908 861.757575 
L 712.342908 428.233335 
L 705.999329 428.233335 
z
" style="fill:#2ca02c;"/>
   </g>
   <g id="patch_82">
    <path clip-path="url(#p88c6d2c166)" d="M 741.241434 861.757575 
L 747.585013 861.757575 
L 747.585013 407.315893 
L 741.241434 407.315893 
z
" style="fill:#2ca02c;"/>
   </g>
   <g id="patch_83">
    <path clip-path="url(#p88c6d2c166)" d="M 776.483539 861.757575 
L 782.827118 861.757575 
L 782.827118 426.182606 
L 776.483539 426.182606 
z
" style="fill:#2ca02c;"/>
   </g>
   <g id="patch_84">
    <path clip-path="url(#p88c6d2c166)" d="M 811.725645 861.757575 
L 818.069224 861.757575 
L 818.069224 434.385524 
L 811.725645 434.385524 
z
" style="fill:#2ca02c;"/>
   </g>
   <g id="patch_85">
    <path clip-path="url(#p88c6d2c166)" d="M 846.96775 861.757575 
L 853.311329 861.757575 
L 853.311329 429.873919 
L 846.96775 429.873919 
z
" style="fill:#2ca02c;"/>
   </g>
   <g id="patch_86">
    <path clip-path="url(#p88c6d2c166)" d="M 882.209855 861.757575 
L 888.553434 861.757575 
L 888.553434 420.030417 
L 882.209855 420.030417 
z
" style="fill:#2ca02c;"/>
   </g>
   <g id="patch_87">
    <path clip-path="url(#p88c6d2c166)" d="M 917.451961 861.757575 
L 923.795539 861.757575 
L 923.795539 415.518812 
L 917.451961 415.518812 
z
" style="fill:#2ca02c;"/>
   </g>
   <g id="patch_88">
    <path clip-path="url(#p88c6d2c166)" d="M 952.694066 861.757575 
L 959.037645 861.757575 
L 959.037645 428.643481 
L 952.694066 428.643481 
z
" style="fill:#2ca02c;"/>
   </g>
   <g id="patch_89">
    <path clip-path="url(#p88c6d2c166)" d="M 987.936171 861.757575 
L 994.27975 861.757575 
L 994.27975 434.79567 
L 987.936171 434.79567 
z
" style="fill:#2ca02c;"/>
   </g>
   <g id="patch_90">
    <path clip-path="url(#p88c6d2c166)" d="M 1023.178276 861.757575 
L 1029.521855 861.757575 
L 1029.521855 418.799979 
L 1023.178276 418.799979 
z
" style="fill:#2ca02c;"/>
   </g>
   <g id="patch_91">
    <path clip-path="url(#p88c6d2c166)" d="M 1058.420382 861.757575 
L 1064.763961 861.757575 
L 1064.763961 433.155086 
L 1058.420382 433.155086 
z
" style="fill:#2ca02c;"/>
   </g>
   <g id="patch_92">
    <path clip-path="url(#p88c6d2c166)" d="M 1093.662487 861.757575 
L 1100.006066 861.757575 
L 1100.006066 446.279756 
L 1093.662487 446.279756 
z
" style="fill:#2ca02c;"/>
   </g>
   <g id="patch_93">
    <path clip-path="url(#p88c6d2c166)" d="M 77.985013 861.757575 
L 84.328592 861.757575 
L 84.328592 343.333129 
L 77.985013 343.333129 
z
" style="fill:#d62728;"/>
   </g>
   <g id="patch_94">
    <path clip-path="url(#p88c6d2c166)" d="M 113.227118 861.757575 
L 119.570697 861.757575 
L 119.570697 330.618606 
L 113.227118 330.618606 
z
" style="fill:#d62728;"/>
   </g>
   <g id="patch_95">
    <path clip-path="url(#p88c6d2c166)" d="M 148.469224 861.757575 
L 154.812803 861.757575 
L 154.812803 334.309919 
L 148.469224 334.309919 
z
" style="fill:#d62728;"/>
   </g>
   <g id="patch_96">
    <path clip-path="url(#p88c6d2c166)" d="M 183.711329 861.757575 
L 190.054908 861.757575 
L 190.054908 338.821524 
L 183.711329 338.821524 
z
" style="fill:#d62728;"/>
   </g>
   <g id="patch_97">
    <path clip-path="url(#p88c6d2c166)" d="M 218.953434 861.757575 
L 225.297013 861.757575 
L 225.297013 338.821524 
L 218.953434 338.821524 
z
" style="fill:#d62728;"/>
   </g>
   <g id="patch_98">
    <path clip-path="url(#p88c6d2c166)" d="M 254.195539 861.757575 
L 260.539118 861.757575 
L 260.539118 331.438897 
L 254.195539 331.438897 
z
" style="fill:#d62728;"/>
   </g>
   <g id="patch_99">
    <path clip-path="url(#p88c6d2c166)" d="M 289.437645 861.757575 
L 295.781224 861.757575 
L 295.781224 333.489627 
L 289.437645 333.489627 
z
" style="fill:#d62728;"/>
   </g>
   <g id="patch_100">
    <path clip-path="url(#p88c6d2c166)" d="M 324.67975 861.757575 
L 331.023329 861.757575 
L 331.023329 331.028752 
L 324.67975 331.028752 
z
" style="fill:#d62728;"/>
   </g>
   <g id="patch_101">
    <path clip-path="url(#p88c6d2c166)" d="M 359.921855 861.757575 
L 366.265434 861.757575 
L 366.265434 333.079481 
L 359.921855 333.079481 
z
" style="fill:#d62728;"/>
   </g>
   <g id="patch_102">
    <path clip-path="url(#p88c6d2c166)" d="M 395.163961 861.757575 
L 401.507539 861.757575 
L 401.507539 326.517146 
L 395.163961 326.517146 
z
" style="fill:#d62728;"/>
   </g>
   <g id="patch_103">
    <path clip-path="url(#p88c6d2c166)" d="M 430.406066 861.757575 
L 436.749645 861.757575 
L 436.749645 337.18094 
L 430.406066 337.18094 
z
" style="fill:#d62728;"/>
   </g>
   <g id="patch_104">
    <path clip-path="url(#p88c6d2c166)" d="M 465.648171 861.757575 
L 471.99175 861.757575 
L 471.99175 332.669335 
L 465.648171 332.669335 
z
" style="fill:#d62728;"/>
   </g>
   <g id="patch_105">
    <path clip-path="url(#p88c6d2c166)" d="M 500.890276 861.757575 
L 507.233855 861.757575 
L 507.233855 333.489627 
L 500.890276 333.489627 
z
" style="fill:#d62728;"/>
   </g>
   <g id="patch_106">
    <path clip-path="url(#p88c6d2c166)" d="M 536.132382 861.757575 
L 542.475961 861.757575 
L 542.475961 320.364958 
L 536.132382 320.364958 
z
" style="fill:#d62728;"/>
   </g>
   <g id="patch_107">
    <path clip-path="url(#p88c6d2c166)" d="M 571.374487 861.757575 
L 577.718066 861.757575 
L 577.718066 337.591086 
L 571.374487 337.591086 
z
" style="fill:#d62728;"/>
   </g>
   <g id="patch_108">
    <path clip-path="url(#p88c6d2c166)" d="M 606.616592 861.757575 
L 612.960171 861.757575 
L 612.960171 340.051962 
L 606.616592 340.051962 
z
" style="fill:#d62728;"/>
   </g>
   <g id="patch_109">
    <path clip-path="url(#p88c6d2c166)" d="M 641.858697 861.757575 
L 648.202276 861.757575 
L 648.202276 335.950503 
L 641.858697 335.950503 
z
" style="fill:#d62728;"/>
   </g>
   <g id="patch_110">
    <path clip-path="url(#p88c6d2c166)" d="M 677.100803 861.757575 
L 683.444382 861.757575 
L 683.444382 333.079481 
L 677.100803 333.079481 
z
" style="fill:#d62728;"/>
   </g>
   <g id="patch_111">
    <path clip-path="url(#p88c6d2c166)" d="M 712.342908 861.757575 
L 718.686487 861.757575 
L 718.686487 332.259189 
L 712.342908 332.259189 
z
" style="fill:#d62728;"/>
   </g>
   <g id="patch_112">
    <path clip-path="url(#p88c6d2c166)" d="M 747.585013 861.757575 
L 753.928592 861.757575 
L 753.928592 331.438897 
L 747.585013 331.438897 
z
" style="fill:#d62728;"/>
   </g>
   <g id="patch_113">
    <path clip-path="url(#p88c6d2c166)" d="M 782.827118 861.757575 
L 789.170697 861.757575 
L 789.170697 340.872254 
L 782.827118 340.872254 
z
" style="fill:#d62728;"/>
   </g>
   <g id="patch_114">
    <path clip-path="url(#p88c6d2c166)" d="M 818.069224 861.757575 
L 824.412803 861.757575 
L 824.412803 328.567876 
L 818.069224 328.567876 
z
" style="fill:#d62728;"/>
   </g>
   <g id="patch_115">
    <path clip-path="url(#p88c6d2c166)" d="M 853.311329 861.757575 
L 859.654908 861.757575 
L 859.654908 340.462108 
L 853.311329 340.462108 
z
" style="fill:#d62728;"/>
   </g>
   <g id="patch_116">
    <path clip-path="url(#p88c6d2c166)" d="M 888.553434 861.757575 
L 894.897013 861.757575 
L 894.897013 335.540357 
L 888.553434 335.540357 
z
" style="fill:#d62728;"/>
   </g>
   <g id="patch_117">
    <path clip-path="url(#p88c6d2c166)" d="M 923.795539 861.757575 
L 930.139118 861.757575 
L 930.139118 330.618606 
L 923.795539 330.618606 
z
" style="fill:#d62728;"/>
   </g>
   <g id="patch_118">
    <path clip-path="url(#p88c6d2c166)" d="M 959.037645 861.757575 
L 965.381224 861.757575 
L 965.381224 338.001232 
L 959.037645 338.001232 
z
" style="fill:#d62728;"/>
   </g>
   <g id="patch_119">
    <path clip-path="url(#p88c6d2c166)" d="M 994.27975 861.757575 
L 1000.623329 861.757575 
L 1000.623329 330.618606 
L 994.27975 330.618606 
z
" style="fill:#d62728;"/>
   </g>
   <g id="patch_120">
    <path clip-path="url(#p88c6d2c166)" d="M 1029.521855 861.757575 
L 1035.865434 861.757575 
L 1035.865434 334.720065 
L 1029.521855 334.720065 
z
" style="fill:#d62728;"/>
   </g>
   <g id="patch_121">
    <path clip-path="url(#p88c6d2c166)" d="M 1064.763961 861.757575 
L 1071.107539 861.757575 
L 1071.107539 341.692546 
L 1064.763961 341.692546 
z
" style="fill:#d62728;"/>
   </g>
   <g id="patch_122">
    <path clip-path="url(#p88c6d2c166)" d="M 1100.006066 861.757575 
L 1106.349645 861.757575 
L 1106.349645 334.309919 
L 1100.006066 334.309919 
z
" style="fill:#d62728;"/>
   </g>
   <g id="patch_123">
    <path clip-path="url(#p88c6d2c166)" d="M 84.328592 861.757575 
L 90.672171 861.757575 
L 90.672171 426.182606 
L 84.328592 426.182606 
z
" style="fill:#9467bd;"/>
   </g>
   <g id="patch_124">
    <path clip-path="url(#p88c6d2c166)" d="M 119.570697 861.757575 
L 125.914276 861.757575 
L 125.914276 414.69852 
L 119.570697 414.69852 
z
" style="fill:#9467bd;"/>
   </g>
   <g id="patch_125">
    <path clip-path="url(#p88c6d2c166)" d="M 154.812803 861.757575 
L 161.156382 861.757575 
L 161.156382 418.799979 
L 154.812803 418.799979 
z
" style="fill:#9467bd;"/>
   </g>
   <g id="patch_126">
    <path clip-path="url(#p88c6d2c166)" d="M 190.054908 861.757575 
L 196.398487 861.757575 
L 196.398487 437.256545 
L 190.054908 437.256545 
z
" style="fill:#9467bd;"/>
   </g>
   <g id="patch_127">
    <path clip-path="url(#p88c6d2c166)" d="M 225.297013 861.757575 
L 231.640592 861.757575 
L 231.640592 431.104357 
L 225.297013 431.104357 
z
" style="fill:#9467bd;"/>
   </g>
   <g id="patch_128">
    <path clip-path="url(#p88c6d2c166)" d="M 260.539118 861.757575 
L 266.882697 861.757575 
L 266.882697 432.334794 
L 260.539118 432.334794 
z
" style="fill:#9467bd;"/>
   </g>
   <g id="patch_129">
    <path clip-path="url(#p88c6d2c166)" d="M 295.781224 861.757575 
L 302.124803 861.757575 
L 302.124803 399.933266 
L 295.781224 399.933266 
z
" style="fill:#9467bd;"/>
   </g>
   <g id="patch_130">
    <path clip-path="url(#p88c6d2c166)" d="M 331.023329 861.757575 
L 337.366908 861.757575 
L 337.366908 413.878228 
L 331.023329 413.878228 
z
" style="fill:#9467bd;"/>
   </g>
   <g id="patch_131">
    <path clip-path="url(#p88c6d2c166)" d="M 366.265434 861.757575 
L 372.609013 861.757575 
L 372.609013 420.030417 
L 366.265434 420.030417 
z
" style="fill:#9467bd;"/>
   </g>
   <g id="patch_132">
    <path clip-path="url(#p88c6d2c166)" d="M 401.507539 861.757575 
L 407.851118 861.757575 
L 407.851118 410.59706 
L 401.507539 410.59706 
z
" style="fill:#9467bd;"/>
   </g>
   <g id="patch_133">
    <path clip-path="url(#p88c6d2c166)" d="M 436.749645 861.757575 
L 443.093224 861.757575 
L 443.093224 434.385524 
L 436.749645 434.385524 
z
" style="fill:#9467bd;"/>
   </g>
   <g id="patch_134">
    <path clip-path="url(#p88c6d2c166)" d="M 471.99175 861.757575 
L 478.335329 861.757575 
L 478.335329 417.979687 
L 471.99175 417.979687 
z
" style="fill:#9467bd;"/>
   </g>
   <g id="patch_135">
    <path clip-path="url(#p88c6d2c166)" d="M 507.233855 861.757575 
L 513.577434 861.757575 
L 513.577434 436.8464 
L 507.233855 436.8464 
z
" style="fill:#9467bd;"/>
   </g>
   <g id="patch_136">
    <path clip-path="url(#p88c6d2c166)" d="M 542.475961 861.757575 
L 548.819539 861.757575 
L 548.819539 413.468082 
L 542.475961 413.468082 
z
" style="fill:#9467bd;"/>
   </g>
   <g id="patch_137">
    <path clip-path="url(#p88c6d2c166)" d="M 577.718066 861.757575 
L 584.061645 861.757575 
L 584.061645 403.62458 
L 577.718066 403.62458 
z
" style="fill:#9467bd;"/>
   </g>
   <g id="patch_138">
    <path clip-path="url(#p88c6d2c166)" d="M 612.960171 861.757575 
L 619.30375 861.757575 
L 619.30375 424.131876 
L 612.960171 424.131876 
z
" style="fill:#9467bd;"/>
   </g>
   <g id="patch_139">
    <path clip-path="url(#p88c6d2c166)" d="M 648.202276 861.757575 
L 654.545855 861.757575 
L 654.545855 429.463773 
L 648.202276 429.463773 
z
" style="fill:#9467bd;"/>
   </g>
   <g id="patch_140">
    <path clip-path="url(#p88c6d2c166)" d="M 683.444382 861.757575 
L 689.787961 861.757575 
L 689.787961 436.8464 
L 683.444382 436.8464 
z
" style="fill:#9467bd;"/>
   </g>
   <g id="patch_141">
    <path clip-path="url(#p88c6d2c166)" d="M 718.686487 861.757575 
L 725.030066 861.757575 
L 725.030066 427.413043 
L 718.686487 427.413043 
z
" style="fill:#9467bd;"/>
   </g>
   <g id="patch_142">
    <path clip-path="url(#p88c6d2c166)" d="M 753.928592 861.757575 
L 760.272171 861.757575 
L 760.272171 427.413043 
L 753.928592 427.413043 
z
" style="fill:#9467bd;"/>
   </g>
   <g id="patch_143">
    <path clip-path="url(#p88c6d2c166)" d="M 789.170697 861.757575 
L 795.514276 861.757575 
L 795.514276 424.131876 
L 789.170697 424.131876 
z
" style="fill:#9467bd;"/>
   </g>
   <g id="patch_144">
    <path clip-path="url(#p88c6d2c166)" d="M 824.412803 861.757575 
L 830.756382 861.757575 
L 830.756382 438.486983 
L 824.412803 438.486983 
z
" style="fill:#9467bd;"/>
   </g>
   <g id="patch_145">
    <path clip-path="url(#p88c6d2c166)" d="M 859.654908 861.757575 
L 865.998487 861.757575 
L 865.998487 413.057936 
L 859.654908 413.057936 
z
" style="fill:#9467bd;"/>
   </g>
   <g id="patch_146">
    <path clip-path="url(#p88c6d2c166)" d="M 894.897013 861.757575 
L 901.240592 861.757575 
L 901.240592 426.182606 
L 894.897013 426.182606 
z
" style="fill:#9467bd;"/>
   </g>
   <g id="patch_147">
    <path clip-path="url(#p88c6d2c166)" d="M 930.139118 861.757575 
L 936.482697 861.757575 
L 936.482697 437.666691 
L 930.139118 437.666691 
z
" style="fill:#9467bd;"/>
   </g>
   <g id="patch_148">
    <path clip-path="url(#p88c6d2c166)" d="M 965.381224 861.757575 
L 971.724803 861.757575 
L 971.724803 425.362314 
L 965.381224 425.362314 
z
" style="fill:#9467bd;"/>
   </g>
   <g id="patch_149">
    <path clip-path="url(#p88c6d2c166)" d="M 1000.623329 861.757575 
L 1006.966908 861.757575 
L 1006.966908 435.615962 
L 1000.623329 435.615962 
z
" style="fill:#9467bd;"/>
   </g>
   <g id="patch_150">
    <path clip-path="url(#p88c6d2c166)" d="M 1035.865434 861.757575 
L 1042.209013 861.757575 
L 1042.209013 422.491292 
L 1035.865434 422.491292 
z
" style="fill:#9467bd;"/>
   </g>
   <g id="patch_151">
    <path clip-path="url(#p88c6d2c166)" d="M 1071.107539 861.757575 
L 1077.451118 861.757575 
L 1077.451118 454.072528 
L 1071.107539 454.072528 
z
" style="fill:#9467bd;"/>
   </g>
   <g id="patch_152">
    <path clip-path="url(#p88c6d2c166)" d="M 1106.349645 861.757575 
L 1112.693224 861.757575 
L 1112.693224 439.307275 
L 1106.349645 439.307275 
z
" style="fill:#9467bd;"/>
   </g>
   <g id="matplotlib.axis_1">
    <g id="xtick_1">
     <g id="line2d_1">
      <defs>
       <path d="M 0 0 
L 0 3.5 
" id="m9fe8e7d01c" style="stroke:#000000;stroke-width:0.8;"/>
      </defs>
      <g>
       <use style="stroke:#000000;stroke-width:0.8;" x="74.813224" xlink:href="#m9fe8e7d01c" y="861.757575"/>
      </g>
     </g>
     <g id="text_1">
      <!-- 1 -->
      <g transform="translate(71.631974 876.356012)scale(0.1 -0.1)">
       <defs>
        <path d="M 12.40625 8.296875 
L 28.515625 8.296875 
L 28.515625 63.921875 
L 10.984375 60.40625 
L 10.984375 69.390625 
L 28.421875 72.90625 
L 38.28125 72.90625 
L 38.28125 8.296875 
L 54.390625 8.296875 
L 54.390625 0 
L 12.40625 0 
z
" id="DejaVuSans-49"/>
       </defs>
       <use xlink:href="#DejaVuSans-49"/>
      </g>
     </g>
    </g>
    <g id="xtick_2">
     <g id="line2d_2">
      <g>
       <use style="stroke:#000000;stroke-width:0.8;" x="110.055329" xlink:href="#m9fe8e7d01c" y="861.757575"/>
      </g>
     </g>
     <g id="text_2">
      <!-- 2 -->
      <g transform="translate(106.874079 876.356012)scale(0.1 -0.1)">
       <defs>
        <path d="M 19.1875 8.296875 
L 53.609375 8.296875 
L 53.609375 0 
L 7.328125 0 
L 7.328125 8.296875 
Q 12.9375 14.109375 22.625 23.890625 
Q 32.328125 33.6875 34.8125 36.53125 
Q 39.546875 41.84375 41.421875 45.53125 
Q 43.3125 49.21875 43.3125 52.78125 
Q 43.3125 58.59375 39.234375 62.25 
Q 35.15625 65.921875 28.609375 65.921875 
Q 23.96875 65.921875 18.8125 64.3125 
Q 13.671875 62.703125 7.8125 59.421875 
L 7.8125 69.390625 
Q 13.765625 71.78125 18.9375 73 
Q 24.125 74.21875 28.421875 74.21875 
Q 39.75 74.21875 46.484375 68.546875 
Q 53.21875 62.890625 53.21875 53.421875 
Q 53.21875 48.921875 51.53125 44.890625 
Q 49.859375 40.875 45.40625 35.40625 
Q 44.1875 33.984375 37.640625 27.21875 
Q 31.109375 20.453125 19.1875 8.296875 
z
" id="DejaVuSans-50"/>
       </defs>
       <use xlink:href="#DejaVuSans-50"/>
      </g>
     </g>
    </g>
    <g id="xtick_3">
     <g id="line2d_3">
      <g>
       <use style="stroke:#000000;stroke-width:0.8;" x="145.297434" xlink:href="#m9fe8e7d01c" y="861.757575"/>
      </g>
     </g>
     <g id="text_3">
      <!-- 3 -->
      <g transform="translate(142.116184 876.356012)scale(0.1 -0.1)">
       <defs>
        <path d="M 40.578125 39.3125 
Q 47.65625 37.796875 51.625 33 
Q 55.609375 28.21875 55.609375 21.1875 
Q 55.609375 10.40625 48.1875 4.484375 
Q 40.765625 -1.421875 27.09375 -1.421875 
Q 22.515625 -1.421875 17.65625 -0.515625 
Q 12.796875 0.390625 7.625 2.203125 
L 7.625 11.71875 
Q 11.71875 9.328125 16.59375 8.109375 
Q 21.484375 6.890625 26.8125 6.890625 
Q 36.078125 6.890625 40.9375 10.546875 
Q 45.796875 14.203125 45.796875 21.1875 
Q 45.796875 27.640625 41.28125 31.265625 
Q 36.765625 34.90625 28.71875 34.90625 
L 20.21875 34.90625 
L 20.21875 43.015625 
L 29.109375 43.015625 
Q 36.375 43.015625 40.234375 45.921875 
Q 44.09375 48.828125 44.09375 54.296875 
Q 44.09375 59.90625 40.109375 62.90625 
Q 36.140625 65.921875 28.71875 65.921875 
Q 24.65625 65.921875 20.015625 65.03125 
Q 15.375 64.15625 9.8125 62.3125 
L 9.8125 71.09375 
Q 15.4375 72.65625 20.34375 73.4375 
Q 25.25 74.21875 29.59375 74.21875 
Q 40.828125 74.21875 47.359375 69.109375 
Q 53.90625 64.015625 53.90625 55.328125 
Q 53.90625 49.265625 50.4375 45.09375 
Q 46.96875 40.921875 40.578125 39.3125 
z
" id="DejaVuSans-51"/>
       </defs>
       <use xlink:href="#DejaVuSans-51"/>
      </g>
     </g>
    </g>
    <g id="xtick_4">
     <g id="line2d_4">
      <g>
       <use style="stroke:#000000;stroke-width:0.8;" x="180.539539" xlink:href="#m9fe8e7d01c" y="861.757575"/>
      </g>
     </g>
     <g id="text_4">
      <!-- 4 -->
      <g transform="translate(177.358289 876.356012)scale(0.1 -0.1)">
       <defs>
        <path d="M 37.796875 64.3125 
L 12.890625 25.390625 
L 37.796875 25.390625 
z
M 35.203125 72.90625 
L 47.609375 72.90625 
L 47.609375 25.390625 
L 58.015625 25.390625 
L 58.015625 17.1875 
L 47.609375 17.1875 
L 47.609375 0 
L 37.796875 0 
L 37.796875 17.1875 
L 4.890625 17.1875 
L 4.890625 26.703125 
z
" id="DejaVuSans-52"/>
       </defs>
       <use xlink:href="#DejaVuSans-52"/>
      </g>
     </g>
    </g>
    <g id="xtick_5">
     <g id="line2d_5">
      <g>
       <use style="stroke:#000000;stroke-width:0.8;" x="215.781645" xlink:href="#m9fe8e7d01c" y="861.757575"/>
      </g>
     </g>
     <g id="text_5">
      <!-- 5 -->
      <g transform="translate(212.600395 876.356012)scale(0.1 -0.1)">
       <defs>
        <path d="M 10.796875 72.90625 
L 49.515625 72.90625 
L 49.515625 64.59375 
L 19.828125 64.59375 
L 19.828125 46.734375 
Q 21.96875 47.46875 24.109375 47.828125 
Q 26.265625 48.1875 28.421875 48.1875 
Q 40.625 48.1875 47.75 41.5 
Q 54.890625 34.8125 54.890625 23.390625 
Q 54.890625 11.625 47.5625 5.09375 
Q 40.234375 -1.421875 26.90625 -1.421875 
Q 22.3125 -1.421875 17.546875 -0.640625 
Q 12.796875 0.140625 7.71875 1.703125 
L 7.71875 11.625 
Q 12.109375 9.234375 16.796875 8.0625 
Q 21.484375 6.890625 26.703125 6.890625 
Q 35.15625 6.890625 40.078125 11.328125 
Q 45.015625 15.765625 45.015625 23.390625 
Q 45.015625 31 40.078125 35.4375 
Q 35.15625 39.890625 26.703125 39.890625 
Q 22.75 39.890625 18.8125 39.015625 
Q 14.890625 38.140625 10.796875 36.28125 
z
" id="DejaVuSans-53"/>
       </defs>
       <use xlink:href="#DejaVuSans-53"/>
      </g>
     </g>
    </g>
    <g id="xtick_6">
     <g id="line2d_6">
      <g>
       <use style="stroke:#000000;stroke-width:0.8;" x="251.02375" xlink:href="#m9fe8e7d01c" y="861.757575"/>
      </g>
     </g>
     <g id="text_6">
      <!-- 6 -->
      <g transform="translate(247.8425 876.356012)scale(0.1 -0.1)">
       <defs>
        <path d="M 33.015625 40.375 
Q 26.375 40.375 22.484375 35.828125 
Q 18.609375 31.296875 18.609375 23.390625 
Q 18.609375 15.53125 22.484375 10.953125 
Q 26.375 6.390625 33.015625 6.390625 
Q 39.65625 6.390625 43.53125 10.953125 
Q 47.40625 15.53125 47.40625 23.390625 
Q 47.40625 31.296875 43.53125 35.828125 
Q 39.65625 40.375 33.015625 40.375 
z
M 52.59375 71.296875 
L 52.59375 62.3125 
Q 48.875 64.0625 45.09375 64.984375 
Q 41.3125 65.921875 37.59375 65.921875 
Q 27.828125 65.921875 22.671875 59.328125 
Q 17.53125 52.734375 16.796875 39.40625 
Q 19.671875 43.65625 24.015625 45.921875 
Q 28.375 48.1875 33.59375 48.1875 
Q 44.578125 48.1875 50.953125 41.515625 
Q 57.328125 34.859375 57.328125 23.390625 
Q 57.328125 12.15625 50.6875 5.359375 
Q 44.046875 -1.421875 33.015625 -1.421875 
Q 20.359375 -1.421875 13.671875 8.265625 
Q 6.984375 17.96875 6.984375 36.375 
Q 6.984375 53.65625 15.1875 63.9375 
Q 23.390625 74.21875 37.203125 74.21875 
Q 40.921875 74.21875 44.703125 73.484375 
Q 48.484375 72.75 52.59375 71.296875 
z
" id="DejaVuSans-54"/>
       </defs>
       <use xlink:href="#DejaVuSans-54"/>
      </g>
     </g>
    </g>
    <g id="xtick_7">
     <g id="line2d_7">
      <g>
       <use style="stroke:#000000;stroke-width:0.8;" x="286.265855" xlink:href="#m9fe8e7d01c" y="861.757575"/>
      </g>
     </g>
     <g id="text_7">
      <!-- 7 -->
      <g transform="translate(283.084605 876.356012)scale(0.1 -0.1)">
       <defs>
        <path d="M 8.203125 72.90625 
L 55.078125 72.90625 
L 55.078125 68.703125 
L 28.609375 0 
L 18.3125 0 
L 43.21875 64.59375 
L 8.203125 64.59375 
z
" id="DejaVuSans-55"/>
       </defs>
       <use xlink:href="#DejaVuSans-55"/>
      </g>
     </g>
    </g>
    <g id="xtick_8">
     <g id="line2d_8">
      <g>
       <use style="stroke:#000000;stroke-width:0.8;" x="321.507961" xlink:href="#m9fe8e7d01c" y="861.757575"/>
      </g>
     </g>
     <g id="text_8">
      <!-- 8 -->
      <g transform="translate(318.326711 876.356012)scale(0.1 -0.1)">
       <defs>
        <path d="M 31.78125 34.625 
Q 24.75 34.625 20.71875 30.859375 
Q 16.703125 27.09375 16.703125 20.515625 
Q 16.703125 13.921875 20.71875 10.15625 
Q 24.75 6.390625 31.78125 6.390625 
Q 38.8125 6.390625 42.859375 10.171875 
Q 46.921875 13.96875 46.921875 20.515625 
Q 46.921875 27.09375 42.890625 30.859375 
Q 38.875 34.625 31.78125 34.625 
z
M 21.921875 38.8125 
Q 15.578125 40.375 12.03125 44.71875 
Q 8.5 49.078125 8.5 55.328125 
Q 8.5 64.0625 14.71875 69.140625 
Q 20.953125 74.21875 31.78125 74.21875 
Q 42.671875 74.21875 48.875 69.140625 
Q 55.078125 64.0625 55.078125 55.328125 
Q 55.078125 49.078125 51.53125 44.71875 
Q 48 40.375 41.703125 38.8125 
Q 48.828125 37.15625 52.796875 32.3125 
Q 56.78125 27.484375 56.78125 20.515625 
Q 56.78125 9.90625 50.3125 4.234375 
Q 43.84375 -1.421875 31.78125 -1.421875 
Q 19.734375 -1.421875 13.25 4.234375 
Q 6.78125 9.90625 6.78125 20.515625 
Q 6.78125 27.484375 10.78125 32.3125 
Q 14.796875 37.15625 21.921875 38.8125 
z
M 18.3125 54.390625 
Q 18.3125 48.734375 21.84375 45.5625 
Q 25.390625 42.390625 31.78125 42.390625 
Q 38.140625 42.390625 41.71875 45.5625 
Q 45.3125 48.734375 45.3125 54.390625 
Q 45.3125 60.0625 41.71875 63.234375 
Q 38.140625 66.40625 31.78125 66.40625 
Q 25.390625 66.40625 21.84375 63.234375 
Q 18.3125 60.0625 18.3125 54.390625 
z
" id="DejaVuSans-56"/>
       </defs>
       <use xlink:href="#DejaVuSans-56"/>
      </g>
     </g>
    </g>
    <g id="xtick_9">
     <g id="line2d_9">
      <g>
       <use style="stroke:#000000;stroke-width:0.8;" x="356.750066" xlink:href="#m9fe8e7d01c" y="861.757575"/>
      </g>
     </g>
     <g id="text_9">
      <!-- 9 -->
      <g transform="translate(353.568816 876.356012)scale(0.1 -0.1)">
       <defs>
        <path d="M 10.984375 1.515625 
L 10.984375 10.5 
Q 14.703125 8.734375 18.5 7.8125 
Q 22.3125 6.890625 25.984375 6.890625 
Q 35.75 6.890625 40.890625 13.453125 
Q 46.046875 20.015625 46.78125 33.40625 
Q 43.953125 29.203125 39.59375 26.953125 
Q 35.25 24.703125 29.984375 24.703125 
Q 19.046875 24.703125 12.671875 31.3125 
Q 6.296875 37.9375 6.296875 49.421875 
Q 6.296875 60.640625 12.9375 67.421875 
Q 19.578125 74.21875 30.609375 74.21875 
Q 43.265625 74.21875 49.921875 64.515625 
Q 56.59375 54.828125 56.59375 36.375 
Q 56.59375 19.140625 48.40625 8.859375 
Q 40.234375 -1.421875 26.421875 -1.421875 
Q 22.703125 -1.421875 18.890625 -0.6875 
Q 15.09375 0.046875 10.984375 1.515625 
z
M 30.609375 32.421875 
Q 37.25 32.421875 41.125 36.953125 
Q 45.015625 41.5 45.015625 49.421875 
Q 45.015625 57.28125 41.125 61.84375 
Q 37.25 66.40625 30.609375 66.40625 
Q 23.96875 66.40625 20.09375 61.84375 
Q 16.21875 57.28125 16.21875 49.421875 
Q 16.21875 41.5 20.09375 36.953125 
Q 23.96875 32.421875 30.609375 32.421875 
z
" id="DejaVuSans-57"/>
       </defs>
       <use xlink:href="#DejaVuSans-57"/>
      </g>
     </g>
    </g>
    <g id="xtick_10">
     <g id="line2d_10">
      <g>
       <use style="stroke:#000000;stroke-width:0.8;" x="391.992171" xlink:href="#m9fe8e7d01c" y="861.757575"/>
      </g>
     </g>
     <g id="text_10">
      <!-- 10 -->
      <g transform="translate(385.629671 876.356012)scale(0.1 -0.1)">
       <defs>
        <path d="M 31.78125 66.40625 
Q 24.171875 66.40625 20.328125 58.90625 
Q 16.5 51.421875 16.5 36.375 
Q 16.5 21.390625 20.328125 13.890625 
Q 24.171875 6.390625 31.78125 6.390625 
Q 39.453125 6.390625 43.28125 13.890625 
Q 47.125 21.390625 47.125 36.375 
Q 47.125 51.421875 43.28125 58.90625 
Q 39.453125 66.40625 31.78125 66.40625 
z
M 31.78125 74.21875 
Q 44.046875 74.21875 50.515625 64.515625 
Q 56.984375 54.828125 56.984375 36.375 
Q 56.984375 17.96875 50.515625 8.265625 
Q 44.046875 -1.421875 31.78125 -1.421875 
Q 19.53125 -1.421875 13.0625 8.265625 
Q 6.59375 17.96875 6.59375 36.375 
Q 6.59375 54.828125 13.0625 64.515625 
Q 19.53125 74.21875 31.78125 74.21875 
z
" id="DejaVuSans-48"/>
       </defs>
       <use xlink:href="#DejaVuSans-49"/>
       <use x="63.623047" xlink:href="#DejaVuSans-48"/>
      </g>
     </g>
    </g>
    <g id="xtick_11">
     <g id="line2d_11">
      <g>
       <use style="stroke:#000000;stroke-width:0.8;" x="427.234276" xlink:href="#m9fe8e7d01c" y="861.757575"/>
      </g>
     </g>
     <g id="text_11">
      <!-- 11 -->
      <g transform="translate(420.871776 876.356012)scale(0.1 -0.1)">
       <use xlink:href="#DejaVuSans-49"/>
       <use x="63.623047" xlink:href="#DejaVuSans-49"/>
      </g>
     </g>
    </g>
    <g id="xtick_12">
     <g id="line2d_12">
      <g>
       <use style="stroke:#000000;stroke-width:0.8;" x="462.476382" xlink:href="#m9fe8e7d01c" y="861.757575"/>
      </g>
     </g>
     <g id="text_12">
      <!-- 12 -->
      <g transform="translate(456.113882 876.356012)scale(0.1 -0.1)">
       <use xlink:href="#DejaVuSans-49"/>
       <use x="63.623047" xlink:href="#DejaVuSans-50"/>
      </g>
     </g>
    </g>
    <g id="xtick_13">
     <g id="line2d_13">
      <g>
       <use style="stroke:#000000;stroke-width:0.8;" x="497.718487" xlink:href="#m9fe8e7d01c" y="861.757575"/>
      </g>
     </g>
     <g id="text_13">
      <!-- 13 -->
      <g transform="translate(491.355987 876.356012)scale(0.1 -0.1)">
       <use xlink:href="#DejaVuSans-49"/>
       <use x="63.623047" xlink:href="#DejaVuSans-51"/>
      </g>
     </g>
    </g>
    <g id="xtick_14">
     <g id="line2d_14">
      <g>
       <use style="stroke:#000000;stroke-width:0.8;" x="532.960592" xlink:href="#m9fe8e7d01c" y="861.757575"/>
      </g>
     </g>
     <g id="text_14">
      <!-- 14 -->
      <g transform="translate(526.598092 876.356012)scale(0.1 -0.1)">
       <use xlink:href="#DejaVuSans-49"/>
       <use x="63.623047" xlink:href="#DejaVuSans-52"/>
      </g>
     </g>
    </g>
    <g id="xtick_15">
     <g id="line2d_15">
      <g>
       <use style="stroke:#000000;stroke-width:0.8;" x="568.202697" xlink:href="#m9fe8e7d01c" y="861.757575"/>
      </g>
     </g>
     <g id="text_15">
      <!-- 15 -->
      <g transform="translate(561.840197 876.356012)scale(0.1 -0.1)">
       <use xlink:href="#DejaVuSans-49"/>
       <use x="63.623047" xlink:href="#DejaVuSans-53"/>
      </g>
     </g>
    </g>
    <g id="xtick_16">
     <g id="line2d_16">
      <g>
       <use style="stroke:#000000;stroke-width:0.8;" x="603.444803" xlink:href="#m9fe8e7d01c" y="861.757575"/>
      </g>
     </g>
     <g id="text_16">
      <!-- 16 -->
      <g transform="translate(597.082303 876.356012)scale(0.1 -0.1)">
       <use xlink:href="#DejaVuSans-49"/>
       <use x="63.623047" xlink:href="#DejaVuSans-54"/>
      </g>
     </g>
    </g>
    <g id="xtick_17">
     <g id="line2d_17">
      <g>
       <use style="stroke:#000000;stroke-width:0.8;" x="638.686908" xlink:href="#m9fe8e7d01c" y="861.757575"/>
      </g>
     </g>
     <g id="text_17">
      <!-- 17 -->
      <g transform="translate(632.324408 876.356012)scale(0.1 -0.1)">
       <use xlink:href="#DejaVuSans-49"/>
       <use x="63.623047" xlink:href="#DejaVuSans-55"/>
      </g>
     </g>
    </g>
    <g id="xtick_18">
     <g id="line2d_18">
      <g>
       <use style="stroke:#000000;stroke-width:0.8;" x="673.929013" xlink:href="#m9fe8e7d01c" y="861.757575"/>
      </g>
     </g>
     <g id="text_18">
      <!-- 18 -->
      <g transform="translate(667.566513 876.356012)scale(0.1 -0.1)">
       <use xlink:href="#DejaVuSans-49"/>
       <use x="63.623047" xlink:href="#DejaVuSans-56"/>
      </g>
     </g>
    </g>
    <g id="xtick_19">
     <g id="line2d_19">
      <g>
       <use style="stroke:#000000;stroke-width:0.8;" x="709.171118" xlink:href="#m9fe8e7d01c" y="861.757575"/>
      </g>
     </g>
     <g id="text_19">
      <!-- 19 -->
      <g transform="translate(702.808618 876.356012)scale(0.1 -0.1)">
       <use xlink:href="#DejaVuSans-49"/>
       <use x="63.623047" xlink:href="#DejaVuSans-57"/>
      </g>
     </g>
    </g>
    <g id="xtick_20">
     <g id="line2d_20">
      <g>
       <use style="stroke:#000000;stroke-width:0.8;" x="744.413224" xlink:href="#m9fe8e7d01c" y="861.757575"/>
      </g>
     </g>
     <g id="text_20">
      <!-- 20 -->
      <g transform="translate(738.050724 876.356012)scale(0.1 -0.1)">
       <use xlink:href="#DejaVuSans-50"/>
       <use x="63.623047" xlink:href="#DejaVuSans-48"/>
      </g>
     </g>
    </g>
    <g id="xtick_21">
     <g id="line2d_21">
      <g>
       <use style="stroke:#000000;stroke-width:0.8;" x="779.655329" xlink:href="#m9fe8e7d01c" y="861.757575"/>
      </g>
     </g>
     <g id="text_21">
      <!-- 21 -->
      <g transform="translate(773.292829 876.356012)scale(0.1 -0.1)">
       <use xlink:href="#DejaVuSans-50"/>
       <use x="63.623047" xlink:href="#DejaVuSans-49"/>
      </g>
     </g>
    </g>
    <g id="xtick_22">
     <g id="line2d_22">
      <g>
       <use style="stroke:#000000;stroke-width:0.8;" x="814.897434" xlink:href="#m9fe8e7d01c" y="861.757575"/>
      </g>
     </g>
     <g id="text_22">
      <!-- 22 -->
      <g transform="translate(808.534934 876.356012)scale(0.1 -0.1)">
       <use xlink:href="#DejaVuSans-50"/>
       <use x="63.623047" xlink:href="#DejaVuSans-50"/>
      </g>
     </g>
    </g>
    <g id="xtick_23">
     <g id="line2d_23">
      <g>
       <use style="stroke:#000000;stroke-width:0.8;" x="850.139539" xlink:href="#m9fe8e7d01c" y="861.757575"/>
      </g>
     </g>
     <g id="text_23">
      <!-- 23 -->
      <g transform="translate(843.777039 876.356012)scale(0.1 -0.1)">
       <use xlink:href="#DejaVuSans-50"/>
       <use x="63.623047" xlink:href="#DejaVuSans-51"/>
      </g>
     </g>
    </g>
    <g id="xtick_24">
     <g id="line2d_24">
      <g>
       <use style="stroke:#000000;stroke-width:0.8;" x="885.381645" xlink:href="#m9fe8e7d01c" y="861.757575"/>
      </g>
     </g>
     <g id="text_24">
      <!-- 24 -->
      <g transform="translate(879.019145 876.356012)scale(0.1 -0.1)">
       <use xlink:href="#DejaVuSans-50"/>
       <use x="63.623047" xlink:href="#DejaVuSans-52"/>
      </g>
     </g>
    </g>
    <g id="xtick_25">
     <g id="line2d_25">
      <g>
       <use style="stroke:#000000;stroke-width:0.8;" x="920.62375" xlink:href="#m9fe8e7d01c" y="861.757575"/>
      </g>
     </g>
     <g id="text_25">
      <!-- 25 -->
      <g transform="translate(914.26125 876.356012)scale(0.1 -0.1)">
       <use xlink:href="#DejaVuSans-50"/>
       <use x="63.623047" xlink:href="#DejaVuSans-53"/>
      </g>
     </g>
    </g>
    <g id="xtick_26">
     <g id="line2d_26">
      <g>
       <use style="stroke:#000000;stroke-width:0.8;" x="955.865855" xlink:href="#m9fe8e7d01c" y="861.757575"/>
      </g>
     </g>
     <g id="text_26">
      <!-- 26 -->
      <g transform="translate(949.503355 876.356012)scale(0.1 -0.1)">
       <use xlink:href="#DejaVuSans-50"/>
       <use x="63.623047" xlink:href="#DejaVuSans-54"/>
      </g>
     </g>
    </g>
    <g id="xtick_27">
     <g id="line2d_27">
      <g>
       <use style="stroke:#000000;stroke-width:0.8;" x="991.107961" xlink:href="#m9fe8e7d01c" y="861.757575"/>
      </g>
     </g>
     <g id="text_27">
      <!-- 27 -->
      <g transform="translate(984.745461 876.356012)scale(0.1 -0.1)">
       <use xlink:href="#DejaVuSans-50"/>
       <use x="63.623047" xlink:href="#DejaVuSans-55"/>
      </g>
     </g>
    </g>
    <g id="xtick_28">
     <g id="line2d_28">
      <g>
       <use style="stroke:#000000;stroke-width:0.8;" x="1026.350066" xlink:href="#m9fe8e7d01c" y="861.757575"/>
      </g>
     </g>
     <g id="text_28">
      <!-- 28 -->
      <g transform="translate(1019.987566 876.356012)scale(0.1 -0.1)">
       <use xlink:href="#DejaVuSans-50"/>
       <use x="63.623047" xlink:href="#DejaVuSans-56"/>
      </g>
     </g>
    </g>
    <g id="xtick_29">
     <g id="line2d_29">
      <g>
       <use style="stroke:#000000;stroke-width:0.8;" x="1061.592171" xlink:href="#m9fe8e7d01c" y="861.757575"/>
      </g>
     </g>
     <g id="text_29">
      <!-- 29 -->
      <g transform="translate(1055.229671 876.356012)scale(0.1 -0.1)">
       <use xlink:href="#DejaVuSans-50"/>
       <use x="63.623047" xlink:href="#DejaVuSans-57"/>
      </g>
     </g>
    </g>
    <g id="xtick_30">
     <g id="line2d_30">
      <g>
       <use style="stroke:#000000;stroke-width:0.8;" x="1096.834276" xlink:href="#m9fe8e7d01c" y="861.757575"/>
      </g>
     </g>
     <g id="text_30">
      <!-- 30 -->
      <g transform="translate(1090.471776 876.356012)scale(0.1 -0.1)">
       <use xlink:href="#DejaVuSans-51"/>
       <use x="63.623047" xlink:href="#DejaVuSans-48"/>
      </g>
     </g>
    </g>
    <g id="text_31">
     <!-- Iterations -->
     <g transform="translate(562.010469 890.034137)scale(0.1 -0.1)">
      <defs>
       <path d="M 9.8125 72.90625 
L 19.671875 72.90625 
L 19.671875 0 
L 9.8125 0 
z
" id="DejaVuSans-73"/>
       <path d="M 18.3125 70.21875 
L 18.3125 54.6875 
L 36.8125 54.6875 
L 36.8125 47.703125 
L 18.3125 47.703125 
L 18.3125 18.015625 
Q 18.3125 11.328125 20.140625 9.421875 
Q 21.96875 7.515625 27.59375 7.515625 
L 36.8125 7.515625 
L 36.8125 0 
L 27.59375 0 
Q 17.1875 0 13.234375 3.875 
Q 9.28125 7.765625 9.28125 18.015625 
L 9.28125 47.703125 
L 2.6875 47.703125 
L 2.6875 54.6875 
L 9.28125 54.6875 
L 9.28125 70.21875 
z
" id="DejaVuSans-116"/>
       <path d="M 56.203125 29.59375 
L 56.203125 25.203125 
L 14.890625 25.203125 
Q 15.484375 15.921875 20.484375 11.0625 
Q 25.484375 6.203125 34.421875 6.203125 
Q 39.59375 6.203125 44.453125 7.46875 
Q 49.3125 8.734375 54.109375 11.28125 
L 54.109375 2.78125 
Q 49.265625 0.734375 44.1875 -0.34375 
Q 39.109375 -1.421875 33.890625 -1.421875 
Q 20.796875 -1.421875 13.15625 6.1875 
Q 5.515625 13.8125 5.515625 26.8125 
Q 5.515625 40.234375 12.765625 48.109375 
Q 20.015625 56 32.328125 56 
Q 43.359375 56 49.78125 48.890625 
Q 56.203125 41.796875 56.203125 29.59375 
z
M 47.21875 32.234375 
Q 47.125 39.59375 43.09375 43.984375 
Q 39.0625 48.390625 32.421875 48.390625 
Q 24.90625 48.390625 20.390625 44.140625 
Q 15.875 39.890625 15.1875 32.171875 
z
" id="DejaVuSans-101"/>
       <path d="M 41.109375 46.296875 
Q 39.59375 47.171875 37.8125 47.578125 
Q 36.03125 48 33.890625 48 
Q 26.265625 48 22.1875 43.046875 
Q 18.109375 38.09375 18.109375 28.8125 
L 18.109375 0 
L 9.078125 0 
L 9.078125 54.6875 
L 18.109375 54.6875 
L 18.109375 46.1875 
Q 20.953125 51.171875 25.484375 53.578125 
Q 30.03125 56 36.53125 56 
Q 37.453125 56 38.578125 55.875 
Q 39.703125 55.765625 41.0625 55.515625 
z
" id="DejaVuSans-114"/>
       <path d="M 34.28125 27.484375 
Q 23.390625 27.484375 19.1875 25 
Q 14.984375 22.515625 14.984375 16.5 
Q 14.984375 11.71875 18.140625 8.90625 
Q 21.296875 6.109375 26.703125 6.109375 
Q 34.1875 6.109375 38.703125 11.40625 
Q 43.21875 16.703125 43.21875 25.484375 
L 43.21875 27.484375 
z
M 52.203125 31.203125 
L 52.203125 0 
L 43.21875 0 
L 43.21875 8.296875 
Q 40.140625 3.328125 35.546875 0.953125 
Q 30.953125 -1.421875 24.3125 -1.421875 
Q 15.921875 -1.421875 10.953125 3.296875 
Q 6 8.015625 6 15.921875 
Q 6 25.140625 12.171875 29.828125 
Q 18.359375 34.515625 30.609375 34.515625 
L 43.21875 34.515625 
L 43.21875 35.40625 
Q 43.21875 41.609375 39.140625 45 
Q 35.0625 48.390625 27.6875 48.390625 
Q 23 48.390625 18.546875 47.265625 
Q 14.109375 46.140625 10.015625 43.890625 
L 10.015625 52.203125 
Q 14.9375 54.109375 19.578125 55.046875 
Q 24.21875 56 28.609375 56 
Q 40.484375 56 46.34375 49.84375 
Q 52.203125 43.703125 52.203125 31.203125 
z
" id="DejaVuSans-97"/>
       <path d="M 9.421875 54.6875 
L 18.40625 54.6875 
L 18.40625 0 
L 9.421875 0 
z
M 9.421875 75.984375 
L 18.40625 75.984375 
L 18.40625 64.59375 
L 9.421875 64.59375 
z
" id="DejaVuSans-105"/>
       <path d="M 30.609375 48.390625 
Q 23.390625 48.390625 19.1875 42.75 
Q 14.984375 37.109375 14.984375 27.296875 
Q 14.984375 17.484375 19.15625 11.84375 
Q 23.34375 6.203125 30.609375 6.203125 
Q 37.796875 6.203125 41.984375 11.859375 
Q 46.1875 17.53125 46.1875 27.296875 
Q 46.1875 37.015625 41.984375 42.703125 
Q 37.796875 48.390625 30.609375 48.390625 
z
M 30.609375 56 
Q 42.328125 56 49.015625 48.375 
Q 55.71875 40.765625 55.71875 27.296875 
Q 55.71875 13.875 49.015625 6.21875 
Q 42.328125 -1.421875 30.609375 -1.421875 
Q 18.84375 -1.421875 12.171875 6.21875 
Q 5.515625 13.875 5.515625 27.296875 
Q 5.515625 40.765625 12.171875 48.375 
Q 18.84375 56 30.609375 56 
z
" id="DejaVuSans-111"/>
       <path d="M 54.890625 33.015625 
L 54.890625 0 
L 45.90625 0 
L 45.90625 32.71875 
Q 45.90625 40.484375 42.875 44.328125 
Q 39.84375 48.1875 33.796875 48.1875 
Q 26.515625 48.1875 22.3125 43.546875 
Q 18.109375 38.921875 18.109375 30.90625 
L 18.109375 0 
L 9.078125 0 
L 9.078125 54.6875 
L 18.109375 54.6875 
L 18.109375 46.1875 
Q 21.34375 51.125 25.703125 53.5625 
Q 30.078125 56 35.796875 56 
Q 45.21875 56 50.046875 50.171875 
Q 54.890625 44.34375 54.890625 33.015625 
z
" id="DejaVuSans-110"/>
       <path d="M 44.28125 53.078125 
L 44.28125 44.578125 
Q 40.484375 46.53125 36.375 47.5 
Q 32.28125 48.484375 27.875 48.484375 
Q 21.1875 48.484375 17.84375 46.4375 
Q 14.5 44.390625 14.5 40.28125 
Q 14.5 37.15625 16.890625 35.375 
Q 19.28125 33.59375 26.515625 31.984375 
L 29.59375 31.296875 
Q 39.15625 29.25 43.1875 25.515625 
Q 47.21875 21.78125 47.21875 15.09375 
Q 47.21875 7.46875 41.1875 3.015625 
Q 35.15625 -1.421875 24.609375 -1.421875 
Q 20.21875 -1.421875 15.453125 -0.5625 
Q 10.6875 0.296875 5.421875 2 
L 5.421875 11.28125 
Q 10.40625 8.6875 15.234375 7.390625 
Q 20.0625 6.109375 24.8125 6.109375 
Q 31.15625 6.109375 34.5625 8.28125 
Q 37.984375 10.453125 37.984375 14.40625 
Q 37.984375 18.0625 35.515625 20.015625 
Q 33.0625 21.96875 24.703125 23.78125 
L 21.578125 24.515625 
Q 13.234375 26.265625 9.515625 29.90625 
Q 5.8125 33.546875 5.8125 39.890625 
Q 5.8125 47.609375 11.28125 51.796875 
Q 16.75 56 26.8125 56 
Q 31.78125 56 36.171875 55.265625 
Q 40.578125 54.546875 44.28125 53.078125 
z
" id="DejaVuSans-115"/>
      </defs>
      <use xlink:href="#DejaVuSans-73"/>
      <use x="29.492188" xlink:href="#DejaVuSans-116"/>
      <use x="68.701172" xlink:href="#DejaVuSans-101"/>
      <use x="130.224609" xlink:href="#DejaVuSans-114"/>
      <use x="171.337891" xlink:href="#DejaVuSans-97"/>
      <use x="232.617188" xlink:href="#DejaVuSans-116"/>
      <use x="271.826172" xlink:href="#DejaVuSans-105"/>
      <use x="299.609375" xlink:href="#DejaVuSans-111"/>
      <use x="360.791016" xlink:href="#DejaVuSans-110"/>
      <use x="424.169922" xlink:href="#DejaVuSans-115"/>
     </g>
    </g>
   </g>
   <g id="matplotlib.axis_2">
    <g id="ytick_1">
     <g id="line2d_31">
      <defs>
       <path d="M 0 0 
L -3.5 0 
" id="m9b05d6883d" style="stroke:#000000;stroke-width:0.8;"/>
      </defs>
      <g>
       <use style="stroke:#000000;stroke-width:0.8;" x="50.14375" xlink:href="#m9b05d6883d" y="861.757575"/>
      </g>
     </g>
     <g id="text_32">
      <!-- 0.00 -->
      <g transform="translate(20.878125 865.556794)scale(0.1 -0.1)">
       <defs>
        <path d="M 10.6875 12.40625 
L 21 12.40625 
L 21 0 
L 10.6875 0 
z
" id="DejaVuSans-46"/>
       </defs>
       <use xlink:href="#DejaVuSans-48"/>
       <use x="63.623047" xlink:href="#DejaVuSans-46"/>
       <use x="95.410156" xlink:href="#DejaVuSans-48"/>
       <use x="159.033203" xlink:href="#DejaVuSans-48"/>
      </g>
     </g>
    </g>
    <g id="ytick_2">
     <g id="line2d_32">
      <g>
       <use style="stroke:#000000;stroke-width:0.8;" x="50.14375" xlink:href="#m9b05d6883d" y="820.558417"/>
      </g>
     </g>
     <g id="text_33">
      <!-- 0.05 -->
      <g transform="translate(20.878125 824.357636)scale(0.1 -0.1)">
       <use xlink:href="#DejaVuSans-48"/>
       <use x="63.623047" xlink:href="#DejaVuSans-46"/>
       <use x="95.410156" xlink:href="#DejaVuSans-48"/>
       <use x="159.033203" xlink:href="#DejaVuSans-53"/>
      </g>
     </g>
    </g>
    <g id="ytick_3">
     <g id="line2d_33">
      <g>
       <use style="stroke:#000000;stroke-width:0.8;" x="50.14375" xlink:href="#m9b05d6883d" y="779.359259"/>
      </g>
     </g>
     <g id="text_34">
      <!-- 0.10 -->
      <g transform="translate(20.878125 783.158478)scale(0.1 -0.1)">
       <use xlink:href="#DejaVuSans-48"/>
       <use x="63.623047" xlink:href="#DejaVuSans-46"/>
       <use x="95.410156" xlink:href="#DejaVuSans-49"/>
       <use x="159.033203" xlink:href="#DejaVuSans-48"/>
      </g>
     </g>
    </g>
    <g id="ytick_4">
     <g id="line2d_34">
      <g>
       <use style="stroke:#000000;stroke-width:0.8;" x="50.14375" xlink:href="#m9b05d6883d" y="738.160101"/>
      </g>
     </g>
     <g id="text_35">
      <!-- 0.15 -->
      <g transform="translate(20.878125 741.95932)scale(0.1 -0.1)">
       <use xlink:href="#DejaVuSans-48"/>
       <use x="63.623047" xlink:href="#DejaVuSans-46"/>
       <use x="95.410156" xlink:href="#DejaVuSans-49"/>
       <use x="159.033203" xlink:href="#DejaVuSans-53"/>
      </g>
     </g>
    </g>
    <g id="ytick_5">
     <g id="line2d_35">
      <g>
       <use style="stroke:#000000;stroke-width:0.8;" x="50.14375" xlink:href="#m9b05d6883d" y="696.960943"/>
      </g>
     </g>
     <g id="text_36">
      <!-- 0.20 -->
      <g transform="translate(20.878125 700.760162)scale(0.1 -0.1)">
       <use xlink:href="#DejaVuSans-48"/>
       <use x="63.623047" xlink:href="#DejaVuSans-46"/>
       <use x="95.410156" xlink:href="#DejaVuSans-50"/>
       <use x="159.033203" xlink:href="#DejaVuSans-48"/>
      </g>
     </g>
    </g>
    <g id="ytick_6">
     <g id="line2d_36">
      <g>
       <use style="stroke:#000000;stroke-width:0.8;" x="50.14375" xlink:href="#m9b05d6883d" y="655.761786"/>
      </g>
     </g>
     <g id="text_37">
      <!-- 0.25 -->
      <g transform="translate(20.878125 659.561004)scale(0.1 -0.1)">
       <use xlink:href="#DejaVuSans-48"/>
       <use x="63.623047" xlink:href="#DejaVuSans-46"/>
       <use x="95.410156" xlink:href="#DejaVuSans-50"/>
       <use x="159.033203" xlink:href="#DejaVuSans-53"/>
      </g>
     </g>
    </g>
    <g id="ytick_7">
     <g id="line2d_37">
      <g>
       <use style="stroke:#000000;stroke-width:0.8;" x="50.14375" xlink:href="#m9b05d6883d" y="614.562628"/>
      </g>
     </g>
     <g id="text_38">
      <!-- 0.30 -->
      <g transform="translate(20.878125 618.361846)scale(0.1 -0.1)">
       <use xlink:href="#DejaVuSans-48"/>
       <use x="63.623047" xlink:href="#DejaVuSans-46"/>
       <use x="95.410156" xlink:href="#DejaVuSans-51"/>
       <use x="159.033203" xlink:href="#DejaVuSans-48"/>
      </g>
     </g>
    </g>
    <g id="ytick_8">
     <g id="line2d_38">
      <g>
       <use style="stroke:#000000;stroke-width:0.8;" x="50.14375" xlink:href="#m9b05d6883d" y="573.36347"/>
      </g>
     </g>
     <g id="text_39">
      <!-- 0.35 -->
      <g transform="translate(20.878125 577.162688)scale(0.1 -0.1)">
       <use xlink:href="#DejaVuSans-48"/>
       <use x="63.623047" xlink:href="#DejaVuSans-46"/>
       <use x="95.410156" xlink:href="#DejaVuSans-51"/>
       <use x="159.033203" xlink:href="#DejaVuSans-53"/>
      </g>
     </g>
    </g>
    <g id="ytick_9">
     <g id="line2d_39">
      <g>
       <use style="stroke:#000000;stroke-width:0.8;" x="50.14375" xlink:href="#m9b05d6883d" y="532.164312"/>
      </g>
     </g>
     <g id="text_40">
      <!-- 0.40 -->
      <g transform="translate(20.878125 535.963531)scale(0.1 -0.1)">
       <use xlink:href="#DejaVuSans-48"/>
       <use x="63.623047" xlink:href="#DejaVuSans-46"/>
       <use x="95.410156" xlink:href="#DejaVuSans-52"/>
       <use x="159.033203" xlink:href="#DejaVuSans-48"/>
      </g>
     </g>
    </g>
    <g id="ytick_10">
     <g id="line2d_40">
      <g>
       <use style="stroke:#000000;stroke-width:0.8;" x="50.14375" xlink:href="#m9b05d6883d" y="490.965154"/>
      </g>
     </g>
     <g id="text_41">
      <!-- 0.45 -->
      <g transform="translate(20.878125 494.764373)scale(0.1 -0.1)">
       <use xlink:href="#DejaVuSans-48"/>
       <use x="63.623047" xlink:href="#DejaVuSans-46"/>
       <use x="95.410156" xlink:href="#DejaVuSans-52"/>
       <use x="159.033203" xlink:href="#DejaVuSans-53"/>
      </g>
     </g>
    </g>
    <g id="ytick_11">
     <g id="line2d_41">
      <g>
       <use style="stroke:#000000;stroke-width:0.8;" x="50.14375" xlink:href="#m9b05d6883d" y="449.765996"/>
      </g>
     </g>
     <g id="text_42">
      <!-- 0.50 -->
      <g transform="translate(20.878125 453.565215)scale(0.1 -0.1)">
       <use xlink:href="#DejaVuSans-48"/>
       <use x="63.623047" xlink:href="#DejaVuSans-46"/>
       <use x="95.410156" xlink:href="#DejaVuSans-53"/>
       <use x="159.033203" xlink:href="#DejaVuSans-48"/>
      </g>
     </g>
    </g>
    <g id="ytick_12">
     <g id="line2d_42">
      <g>
       <use style="stroke:#000000;stroke-width:0.8;" x="50.14375" xlink:href="#m9b05d6883d" y="408.566838"/>
      </g>
     </g>
     <g id="text_43">
      <!-- 0.55 -->
      <g transform="translate(20.878125 412.366057)scale(0.1 -0.1)">
       <use xlink:href="#DejaVuSans-48"/>
       <use x="63.623047" xlink:href="#DejaVuSans-46"/>
       <use x="95.410156" xlink:href="#DejaVuSans-53"/>
       <use x="159.033203" xlink:href="#DejaVuSans-53"/>
      </g>
     </g>
    </g>
    <g id="ytick_13">
     <g id="line2d_43">
      <g>
       <use style="stroke:#000000;stroke-width:0.8;" x="50.14375" xlink:href="#m9b05d6883d" y="367.36768"/>
      </g>
     </g>
     <g id="text_44">
      <!-- 0.60 -->
      <g transform="translate(20.878125 371.166899)scale(0.1 -0.1)">
       <use xlink:href="#DejaVuSans-48"/>
       <use x="63.623047" xlink:href="#DejaVuSans-46"/>
       <use x="95.410156" xlink:href="#DejaVuSans-54"/>
       <use x="159.033203" xlink:href="#DejaVuSans-48"/>
      </g>
     </g>
    </g>
    <g id="ytick_14">
     <g id="line2d_44">
      <g>
       <use style="stroke:#000000;stroke-width:0.8;" x="50.14375" xlink:href="#m9b05d6883d" y="326.168522"/>
      </g>
     </g>
     <g id="text_45">
      <!-- 0.65 -->
      <g transform="translate(20.878125 329.967741)scale(0.1 -0.1)">
       <use xlink:href="#DejaVuSans-48"/>
       <use x="63.623047" xlink:href="#DejaVuSans-46"/>
       <use x="95.410156" xlink:href="#DejaVuSans-54"/>
       <use x="159.033203" xlink:href="#DejaVuSans-53"/>
      </g>
     </g>
    </g>
    <g id="ytick_15">
     <g id="line2d_45">
      <g>
       <use style="stroke:#000000;stroke-width:0.8;" x="50.14375" xlink:href="#m9b05d6883d" y="284.969364"/>
      </g>
     </g>
     <g id="text_46">
      <!-- 0.70 -->
      <g transform="translate(20.878125 288.768583)scale(0.1 -0.1)">
       <use xlink:href="#DejaVuSans-48"/>
       <use x="63.623047" xlink:href="#DejaVuSans-46"/>
       <use x="95.410156" xlink:href="#DejaVuSans-55"/>
       <use x="159.033203" xlink:href="#DejaVuSans-48"/>
      </g>
     </g>
    </g>
    <g id="ytick_16">
     <g id="line2d_46">
      <g>
       <use style="stroke:#000000;stroke-width:0.8;" x="50.14375" xlink:href="#m9b05d6883d" y="243.770207"/>
      </g>
     </g>
     <g id="text_47">
      <!-- 0.75 -->
      <g transform="translate(20.878125 247.569425)scale(0.1 -0.1)">
       <use xlink:href="#DejaVuSans-48"/>
       <use x="63.623047" xlink:href="#DejaVuSans-46"/>
       <use x="95.410156" xlink:href="#DejaVuSans-55"/>
       <use x="159.033203" xlink:href="#DejaVuSans-53"/>
      </g>
     </g>
    </g>
    <g id="ytick_17">
     <g id="line2d_47">
      <g>
       <use style="stroke:#000000;stroke-width:0.8;" x="50.14375" xlink:href="#m9b05d6883d" y="202.571049"/>
      </g>
     </g>
     <g id="text_48">
      <!-- 0.80 -->
      <g transform="translate(20.878125 206.370267)scale(0.1 -0.1)">
       <use xlink:href="#DejaVuSans-48"/>
       <use x="63.623047" xlink:href="#DejaVuSans-46"/>
       <use x="95.410156" xlink:href="#DejaVuSans-56"/>
       <use x="159.033203" xlink:href="#DejaVuSans-48"/>
      </g>
     </g>
    </g>
    <g id="ytick_18">
     <g id="line2d_48">
      <g>
       <use style="stroke:#000000;stroke-width:0.8;" x="50.14375" xlink:href="#m9b05d6883d" y="161.371891"/>
      </g>
     </g>
     <g id="text_49">
      <!-- 0.85 -->
      <g transform="translate(20.878125 165.17111)scale(0.1 -0.1)">
       <use xlink:href="#DejaVuSans-48"/>
       <use x="63.623047" xlink:href="#DejaVuSans-46"/>
       <use x="95.410156" xlink:href="#DejaVuSans-56"/>
       <use x="159.033203" xlink:href="#DejaVuSans-53"/>
      </g>
     </g>
    </g>
    <g id="ytick_19">
     <g id="line2d_49">
      <g>
       <use style="stroke:#000000;stroke-width:0.8;" x="50.14375" xlink:href="#m9b05d6883d" y="120.172733"/>
      </g>
     </g>
     <g id="text_50">
      <!-- 0.90 -->
      <g transform="translate(20.878125 123.971952)scale(0.1 -0.1)">
       <use xlink:href="#DejaVuSans-48"/>
       <use x="63.623047" xlink:href="#DejaVuSans-46"/>
       <use x="95.410156" xlink:href="#DejaVuSans-57"/>
       <use x="159.033203" xlink:href="#DejaVuSans-48"/>
      </g>
     </g>
    </g>
    <g id="ytick_20">
     <g id="line2d_50">
      <g>
       <use style="stroke:#000000;stroke-width:0.8;" x="50.14375" xlink:href="#m9b05d6883d" y="78.973575"/>
      </g>
     </g>
     <g id="text_51">
      <!-- 0.95 -->
      <g transform="translate(20.878125 82.772794)scale(0.1 -0.1)">
       <use xlink:href="#DejaVuSans-48"/>
       <use x="63.623047" xlink:href="#DejaVuSans-46"/>
       <use x="95.410156" xlink:href="#DejaVuSans-57"/>
       <use x="159.033203" xlink:href="#DejaVuSans-53"/>
      </g>
     </g>
    </g>
    <g id="text_52">
     <!-- Accuracy -->
     <g transform="translate(14.798437 493.1937)rotate(-90)scale(0.1 -0.1)">
      <defs>
       <path d="M 34.1875 63.1875 
L 20.796875 26.90625 
L 47.609375 26.90625 
z
M 28.609375 72.90625 
L 39.796875 72.90625 
L 67.578125 0 
L 57.328125 0 
L 50.6875 18.703125 
L 17.828125 18.703125 
L 11.1875 0 
L 0.78125 0 
z
" id="DejaVuSans-65"/>
       <path d="M 48.78125 52.59375 
L 48.78125 44.1875 
Q 44.96875 46.296875 41.140625 47.34375 
Q 37.3125 48.390625 33.40625 48.390625 
Q 24.65625 48.390625 19.8125 42.84375 
Q 14.984375 37.3125 14.984375 27.296875 
Q 14.984375 17.28125 19.8125 11.734375 
Q 24.65625 6.203125 33.40625 6.203125 
Q 37.3125 6.203125 41.140625 7.25 
Q 44.96875 8.296875 48.78125 10.40625 
L 48.78125 2.09375 
Q 45.015625 0.34375 40.984375 -0.53125 
Q 36.96875 -1.421875 32.421875 -1.421875 
Q 20.0625 -1.421875 12.78125 6.34375 
Q 5.515625 14.109375 5.515625 27.296875 
Q 5.515625 40.671875 12.859375 48.328125 
Q 20.21875 56 33.015625 56 
Q 37.15625 56 41.109375 55.140625 
Q 45.0625 54.296875 48.78125 52.59375 
z
" id="DejaVuSans-99"/>
       <path d="M 8.5 21.578125 
L 8.5 54.6875 
L 17.484375 54.6875 
L 17.484375 21.921875 
Q 17.484375 14.15625 20.5 10.265625 
Q 23.53125 6.390625 29.59375 6.390625 
Q 36.859375 6.390625 41.078125 11.03125 
Q 45.3125 15.671875 45.3125 23.6875 
L 45.3125 54.6875 
L 54.296875 54.6875 
L 54.296875 0 
L 45.3125 0 
L 45.3125 8.40625 
Q 42.046875 3.421875 37.71875 1 
Q 33.40625 -1.421875 27.6875 -1.421875 
Q 18.265625 -1.421875 13.375 4.4375 
Q 8.5 10.296875 8.5 21.578125 
z
M 31.109375 56 
z
" id="DejaVuSans-117"/>
       <path d="M 32.171875 -5.078125 
Q 28.375 -14.84375 24.75 -17.8125 
Q 21.140625 -20.796875 15.09375 -20.796875 
L 7.90625 -20.796875 
L 7.90625 -13.28125 
L 13.1875 -13.28125 
Q 16.890625 -13.28125 18.9375 -11.515625 
Q 21 -9.765625 23.484375 -3.21875 
L 25.09375 0.875 
L 2.984375 54.6875 
L 12.5 54.6875 
L 29.59375 11.921875 
L 46.6875 54.6875 
L 56.203125 54.6875 
z
" id="DejaVuSans-121"/>
      </defs>
      <use xlink:href="#DejaVuSans-65"/>
      <use x="66.658203" xlink:href="#DejaVuSans-99"/>
      <use x="121.638672" xlink:href="#DejaVuSans-99"/>
      <use x="176.619141" xlink:href="#DejaVuSans-117"/>
      <use x="239.998047" xlink:href="#DejaVuSans-114"/>
      <use x="281.111328" xlink:href="#DejaVuSans-97"/>
      <use x="342.390625" xlink:href="#DejaVuSans-99"/>
      <use x="397.371094" xlink:href="#DejaVuSans-121"/>
     </g>
    </g>
   </g>
   <g id="patch_153">
    <path d="M 50.14375 861.757575 
L 50.14375 78.973575 
" style="fill:none;stroke:#000000;stroke-linecap:square;stroke-linejoin:miter;stroke-width:0.8;"/>
   </g>
   <g id="patch_154">
    <path d="M 1121.50375 861.757575 
L 1121.50375 78.973575 
" style="fill:none;stroke:#000000;stroke-linecap:square;stroke-linejoin:miter;stroke-width:0.8;"/>
   </g>
   <g id="patch_155">
    <path d="M 50.14375 861.757575 
L 1121.50375 861.757575 
" style="fill:none;stroke:#000000;stroke-linecap:square;stroke-linejoin:miter;stroke-width:0.8;"/>
   </g>
   <g id="patch_156">
    <path d="M 50.14375 78.973575 
L 1121.50375 78.973575 
" style="fill:none;stroke:#000000;stroke-linecap:square;stroke-linejoin:miter;stroke-width:0.8;"/>
   </g>
   <g id="text_53">
    <!-- Accuracy of ANN and respective variant of SNN per iteration -->
    <g transform="translate(404.825312 72.973575)scale(0.12 -0.12)">
     <defs>
      <path id="DejaVuSans-32"/>
      <path d="M 37.109375 75.984375 
L 37.109375 68.5 
L 28.515625 68.5 
Q 23.6875 68.5 21.796875 66.546875 
Q 19.921875 64.59375 19.921875 59.515625 
L 19.921875 54.6875 
L 34.71875 54.6875 
L 34.71875 47.703125 
L 19.921875 47.703125 
L 19.921875 0 
L 10.890625 0 
L 10.890625 47.703125 
L 2.296875 47.703125 
L 2.296875 54.6875 
L 10.890625 54.6875 
L 10.890625 58.5 
Q 10.890625 67.625 15.140625 71.796875 
Q 19.390625 75.984375 28.609375 75.984375 
z
" id="DejaVuSans-102"/>
      <path d="M 9.8125 72.90625 
L 23.09375 72.90625 
L 55.421875 11.921875 
L 55.421875 72.90625 
L 64.984375 72.90625 
L 64.984375 0 
L 51.703125 0 
L 19.390625 60.984375 
L 19.390625 0 
L 9.8125 0 
z
" id="DejaVuSans-78"/>
      <path d="M 45.40625 46.390625 
L 45.40625 75.984375 
L 54.390625 75.984375 
L 54.390625 0 
L 45.40625 0 
L 45.40625 8.203125 
Q 42.578125 3.328125 38.25 0.953125 
Q 33.9375 -1.421875 27.875 -1.421875 
Q 17.96875 -1.421875 11.734375 6.484375 
Q 5.515625 14.40625 5.515625 27.296875 
Q 5.515625 40.1875 11.734375 48.09375 
Q 17.96875 56 27.875 56 
Q 33.9375 56 38.25 53.625 
Q 42.578125 51.265625 45.40625 46.390625 
z
M 14.796875 27.296875 
Q 14.796875 17.390625 18.875 11.75 
Q 22.953125 6.109375 30.078125 6.109375 
Q 37.203125 6.109375 41.296875 11.75 
Q 45.40625 17.390625 45.40625 27.296875 
Q 45.40625 37.203125 41.296875 42.84375 
Q 37.203125 48.484375 30.078125 48.484375 
Q 22.953125 48.484375 18.875 42.84375 
Q 14.796875 37.203125 14.796875 27.296875 
z
" id="DejaVuSans-100"/>
      <path d="M 18.109375 8.203125 
L 18.109375 -20.796875 
L 9.078125 -20.796875 
L 9.078125 54.6875 
L 18.109375 54.6875 
L 18.109375 46.390625 
Q 20.953125 51.265625 25.265625 53.625 
Q 29.59375 56 35.59375 56 
Q 45.5625 56 51.78125 48.09375 
Q 58.015625 40.1875 58.015625 27.296875 
Q 58.015625 14.40625 51.78125 6.484375 
Q 45.5625 -1.421875 35.59375 -1.421875 
Q 29.59375 -1.421875 25.265625 0.953125 
Q 20.953125 3.328125 18.109375 8.203125 
z
M 48.6875 27.296875 
Q 48.6875 37.203125 44.609375 42.84375 
Q 40.53125 48.484375 33.40625 48.484375 
Q 26.265625 48.484375 22.1875 42.84375 
Q 18.109375 37.203125 18.109375 27.296875 
Q 18.109375 17.390625 22.1875 11.75 
Q 26.265625 6.109375 33.40625 6.109375 
Q 40.53125 6.109375 44.609375 11.75 
Q 48.6875 17.390625 48.6875 27.296875 
z
" id="DejaVuSans-112"/>
      <path d="M 2.984375 54.6875 
L 12.5 54.6875 
L 29.59375 8.796875 
L 46.6875 54.6875 
L 56.203125 54.6875 
L 35.6875 0 
L 23.484375 0 
z
" id="DejaVuSans-118"/>
      <path d="M 53.515625 70.515625 
L 53.515625 60.890625 
Q 47.90625 63.578125 42.921875 64.890625 
Q 37.9375 66.21875 33.296875 66.21875 
Q 25.25 66.21875 20.875 63.09375 
Q 16.5 59.96875 16.5 54.203125 
Q 16.5 49.359375 19.40625 46.890625 
Q 22.3125 44.4375 30.421875 42.921875 
L 36.375 41.703125 
Q 47.40625 39.59375 52.65625 34.296875 
Q 57.90625 29 57.90625 20.125 
Q 57.90625 9.515625 50.796875 4.046875 
Q 43.703125 -1.421875 29.984375 -1.421875 
Q 24.8125 -1.421875 18.96875 -0.25 
Q 13.140625 0.921875 6.890625 3.21875 
L 6.890625 13.375 
Q 12.890625 10.015625 18.65625 8.296875 
Q 24.421875 6.59375 29.984375 6.59375 
Q 38.421875 6.59375 43.015625 9.90625 
Q 47.609375 13.234375 47.609375 19.390625 
Q 47.609375 24.75 44.3125 27.78125 
Q 41.015625 30.8125 33.5 32.328125 
L 27.484375 33.5 
Q 16.453125 35.6875 11.515625 40.375 
Q 6.59375 45.0625 6.59375 53.421875 
Q 6.59375 63.09375 13.40625 68.65625 
Q 20.21875 74.21875 32.171875 74.21875 
Q 37.3125 74.21875 42.625 73.28125 
Q 47.953125 72.359375 53.515625 70.515625 
z
" id="DejaVuSans-83"/>
     </defs>
     <use xlink:href="#DejaVuSans-65"/>
     <use x="66.658203" xlink:href="#DejaVuSans-99"/>
     <use x="121.638672" xlink:href="#DejaVuSans-99"/>
     <use x="176.619141" xlink:href="#DejaVuSans-117"/>
     <use x="239.998047" xlink:href="#DejaVuSans-114"/>
     <use x="281.111328" xlink:href="#DejaVuSans-97"/>
     <use x="342.390625" xlink:href="#DejaVuSans-99"/>
     <use x="397.371094" xlink:href="#DejaVuSans-121"/>
     <use x="456.550781" xlink:href="#DejaVuSans-32"/>
     <use x="488.337891" xlink:href="#DejaVuSans-111"/>
     <use x="549.519531" xlink:href="#DejaVuSans-102"/>
     <use x="584.724609" xlink:href="#DejaVuSans-32"/>
     <use x="616.511719" xlink:href="#DejaVuSans-65"/>
     <use x="684.919922" xlink:href="#DejaVuSans-78"/>
     <use x="759.724609" xlink:href="#DejaVuSans-78"/>
     <use x="834.529297" xlink:href="#DejaVuSans-32"/>
     <use x="866.316406" xlink:href="#DejaVuSans-97"/>
     <use x="927.595703" xlink:href="#DejaVuSans-110"/>
     <use x="990.974609" xlink:href="#DejaVuSans-100"/>
     <use x="1054.451172" xlink:href="#DejaVuSans-32"/>
     <use x="1086.238281" xlink:href="#DejaVuSans-114"/>
     <use x="1125.101562" xlink:href="#DejaVuSans-101"/>
     <use x="1186.625" xlink:href="#DejaVuSans-115"/>
     <use x="1238.724609" xlink:href="#DejaVuSans-112"/>
     <use x="1302.201172" xlink:href="#DejaVuSans-101"/>
     <use x="1363.724609" xlink:href="#DejaVuSans-99"/>
     <use x="1418.705078" xlink:href="#DejaVuSans-116"/>
     <use x="1457.914062" xlink:href="#DejaVuSans-105"/>
     <use x="1485.697266" xlink:href="#DejaVuSans-118"/>
     <use x="1544.876953" xlink:href="#DejaVuSans-101"/>
     <use x="1606.400391" xlink:href="#DejaVuSans-32"/>
     <use x="1638.1875" xlink:href="#DejaVuSans-118"/>
     <use x="1697.367188" xlink:href="#DejaVuSans-97"/>
     <use x="1758.646484" xlink:href="#DejaVuSans-114"/>
     <use x="1799.759766" xlink:href="#DejaVuSans-105"/>
     <use x="1827.542969" xlink:href="#DejaVuSans-97"/>
     <use x="1888.822266" xlink:href="#DejaVuSans-110"/>
     <use x="1952.201172" xlink:href="#DejaVuSans-116"/>
     <use x="1991.410156" xlink:href="#DejaVuSans-32"/>
     <use x="2023.197266" xlink:href="#DejaVuSans-111"/>
     <use x="2084.378906" xlink:href="#DejaVuSans-102"/>
     <use x="2119.583984" xlink:href="#DejaVuSans-32"/>
     <use x="2151.371094" xlink:href="#DejaVuSans-83"/>
     <use x="2214.847656" xlink:href="#DejaVuSans-78"/>
     <use x="2289.652344" xlink:href="#DejaVuSans-78"/>
     <use x="2364.457031" xlink:href="#DejaVuSans-32"/>
     <use x="2396.244141" xlink:href="#DejaVuSans-112"/>
     <use x="2459.720703" xlink:href="#DejaVuSans-101"/>
     <use x="2521.244141" xlink:href="#DejaVuSans-114"/>
     <use x="2562.357422" xlink:href="#DejaVuSans-32"/>
     <use x="2594.144531" xlink:href="#DejaVuSans-105"/>
     <use x="2621.927734" xlink:href="#DejaVuSans-116"/>
     <use x="2661.136719" xlink:href="#DejaVuSans-101"/>
     <use x="2722.660156" xlink:href="#DejaVuSans-114"/>
     <use x="2763.773438" xlink:href="#DejaVuSans-97"/>
     <use x="2825.052734" xlink:href="#DejaVuSans-116"/>
     <use x="2864.261719" xlink:href="#DejaVuSans-105"/>
     <use x="2892.044922" xlink:href="#DejaVuSans-111"/>
     <use x="2953.226562" xlink:href="#DejaVuSans-110"/>
    </g>
   </g>
   <g id="legend_1">
    <g id="patch_157">
     <path d="M 54.14375 18.798437 
L 74.14375 18.798437 
L 74.14375 11.798437 
L 54.14375 11.798437 
z
" style="fill:#1f77b4;"/>
    </g>
    <g id="text_54">
     <!-- ann_accuracy -->
     <g transform="translate(82.14375 18.798437)scale(0.1 -0.1)">
      <defs>
       <path d="M 50.984375 -16.609375 
L 50.984375 -23.578125 
L -0.984375 -23.578125 
L -0.984375 -16.609375 
z
" id="DejaVuSans-95"/>
      </defs>
      <use xlink:href="#DejaVuSans-97"/>
      <use x="61.279297" xlink:href="#DejaVuSans-110"/>
      <use x="124.658203" xlink:href="#DejaVuSans-110"/>
      <use x="188.037109" xlink:href="#DejaVuSans-95"/>
      <use x="238.037109" xlink:href="#DejaVuSans-97"/>
      <use x="299.316406" xlink:href="#DejaVuSans-99"/>
      <use x="354.296875" xlink:href="#DejaVuSans-99"/>
      <use x="409.277344" xlink:href="#DejaVuSans-117"/>
      <use x="472.65625" xlink:href="#DejaVuSans-114"/>
      <use x="513.769531" xlink:href="#DejaVuSans-97"/>
      <use x="575.048828" xlink:href="#DejaVuSans-99"/>
      <use x="630.029297" xlink:href="#DejaVuSans-121"/>
     </g>
    </g>
    <g id="patch_158">
     <path d="M 54.14375 33.754687 
L 74.14375 33.754687 
L 74.14375 26.754687 
L 54.14375 26.754687 
z
" style="fill:#ff7f0e;"/>
    </g>
    <g id="text_55">
     <!-- snn [timesteps=30, scaling=1000, synapse=0.010000] -->
     <g transform="translate(82.14375 33.754687)scale(0.1 -0.1)">
      <defs>
       <path d="M 8.59375 75.984375 
L 29.296875 75.984375 
L 29.296875 69 
L 17.578125 69 
L 17.578125 -6.203125 
L 29.296875 -6.203125 
L 29.296875 -13.1875 
L 8.59375 -13.1875 
z
" id="DejaVuSans-91"/>
       <path d="M 52 44.1875 
Q 55.375 50.25 60.0625 53.125 
Q 64.75 56 71.09375 56 
Q 79.640625 56 84.28125 50.015625 
Q 88.921875 44.046875 88.921875 33.015625 
L 88.921875 0 
L 79.890625 0 
L 79.890625 32.71875 
Q 79.890625 40.578125 77.09375 44.375 
Q 74.3125 48.1875 68.609375 48.1875 
Q 61.625 48.1875 57.5625 43.546875 
Q 53.515625 38.921875 53.515625 30.90625 
L 53.515625 0 
L 44.484375 0 
L 44.484375 32.71875 
Q 44.484375 40.625 41.703125 44.40625 
Q 38.921875 48.1875 33.109375 48.1875 
Q 26.21875 48.1875 22.15625 43.53125 
Q 18.109375 38.875 18.109375 30.90625 
L 18.109375 0 
L 9.078125 0 
L 9.078125 54.6875 
L 18.109375 54.6875 
L 18.109375 46.1875 
Q 21.1875 51.21875 25.484375 53.609375 
Q 29.78125 56 35.6875 56 
Q 41.65625 56 45.828125 52.96875 
Q 50 49.953125 52 44.1875 
z
" id="DejaVuSans-109"/>
       <path d="M 10.59375 45.40625 
L 73.1875 45.40625 
L 73.1875 37.203125 
L 10.59375 37.203125 
z
M 10.59375 25.484375 
L 73.1875 25.484375 
L 73.1875 17.1875 
L 10.59375 17.1875 
z
" id="DejaVuSans-61"/>
       <path d="M 11.71875 12.40625 
L 22.015625 12.40625 
L 22.015625 4 
L 14.015625 -11.625 
L 7.71875 -11.625 
L 11.71875 4 
z
" id="DejaVuSans-44"/>
       <path d="M 9.421875 75.984375 
L 18.40625 75.984375 
L 18.40625 0 
L 9.421875 0 
z
" id="DejaVuSans-108"/>
       <path d="M 45.40625 27.984375 
Q 45.40625 37.75 41.375 43.109375 
Q 37.359375 48.484375 30.078125 48.484375 
Q 22.859375 48.484375 18.828125 43.109375 
Q 14.796875 37.75 14.796875 27.984375 
Q 14.796875 18.265625 18.828125 12.890625 
Q 22.859375 7.515625 30.078125 7.515625 
Q 37.359375 7.515625 41.375 12.890625 
Q 45.40625 18.265625 45.40625 27.984375 
z
M 54.390625 6.78125 
Q 54.390625 -7.171875 48.1875 -13.984375 
Q 42 -20.796875 29.203125 -20.796875 
Q 24.46875 -20.796875 20.265625 -20.09375 
Q 16.0625 -19.390625 12.109375 -17.921875 
L 12.109375 -9.1875 
Q 16.0625 -11.328125 19.921875 -12.34375 
Q 23.78125 -13.375 27.78125 -13.375 
Q 36.625 -13.375 41.015625 -8.765625 
Q 45.40625 -4.15625 45.40625 5.171875 
L 45.40625 9.625 
Q 42.625 4.78125 38.28125 2.390625 
Q 33.9375 0 27.875 0 
Q 17.828125 0 11.671875 7.65625 
Q 5.515625 15.328125 5.515625 27.984375 
Q 5.515625 40.671875 11.671875 48.328125 
Q 17.828125 56 27.875 56 
Q 33.9375 56 38.28125 53.609375 
Q 42.625 51.21875 45.40625 46.390625 
L 45.40625 54.6875 
L 54.390625 54.6875 
z
" id="DejaVuSans-103"/>
       <path d="M 30.421875 75.984375 
L 30.421875 -13.1875 
L 9.71875 -13.1875 
L 9.71875 -6.203125 
L 21.390625 -6.203125 
L 21.390625 69 
L 9.71875 69 
L 9.71875 75.984375 
z
" id="DejaVuSans-93"/>
      </defs>
      <use xlink:href="#DejaVuSans-115"/>
      <use x="52.099609" xlink:href="#DejaVuSans-110"/>
      <use x="115.478516" xlink:href="#DejaVuSans-110"/>
      <use x="178.857422" xlink:href="#DejaVuSans-32"/>
      <use x="210.644531" xlink:href="#DejaVuSans-91"/>
      <use x="249.658203" xlink:href="#DejaVuSans-116"/>
      <use x="288.867188" xlink:href="#DejaVuSans-105"/>
      <use x="316.650391" xlink:href="#DejaVuSans-109"/>
      <use x="414.0625" xlink:href="#DejaVuSans-101"/>
      <use x="475.585938" xlink:href="#DejaVuSans-115"/>
      <use x="527.685547" xlink:href="#DejaVuSans-116"/>
      <use x="566.894531" xlink:href="#DejaVuSans-101"/>
      <use x="628.417969" xlink:href="#DejaVuSans-112"/>
      <use x="691.894531" xlink:href="#DejaVuSans-115"/>
      <use x="743.994141" xlink:href="#DejaVuSans-61"/>
      <use x="827.783203" xlink:href="#DejaVuSans-51"/>
      <use x="891.40625" xlink:href="#DejaVuSans-48"/>
      <use x="955.029297" xlink:href="#DejaVuSans-44"/>
      <use x="986.816406" xlink:href="#DejaVuSans-32"/>
      <use x="1018.603516" xlink:href="#DejaVuSans-115"/>
      <use x="1070.703125" xlink:href="#DejaVuSans-99"/>
      <use x="1125.683594" xlink:href="#DejaVuSans-97"/>
      <use x="1186.962891" xlink:href="#DejaVuSans-108"/>
      <use x="1214.746094" xlink:href="#DejaVuSans-105"/>
      <use x="1242.529297" xlink:href="#DejaVuSans-110"/>
      <use x="1305.908203" xlink:href="#DejaVuSans-103"/>
      <use x="1369.384766" xlink:href="#DejaVuSans-61"/>
      <use x="1453.173828" xlink:href="#DejaVuSans-49"/>
      <use x="1516.796875" xlink:href="#DejaVuSans-48"/>
      <use x="1580.419922" xlink:href="#DejaVuSans-48"/>
      <use x="1644.042969" xlink:href="#DejaVuSans-48"/>
      <use x="1707.666016" xlink:href="#DejaVuSans-44"/>
      <use x="1739.453125" xlink:href="#DejaVuSans-32"/>
      <use x="1771.240234" xlink:href="#DejaVuSans-115"/>
      <use x="1823.339844" xlink:href="#DejaVuSans-121"/>
      <use x="1882.519531" xlink:href="#DejaVuSans-110"/>
      <use x="1945.898438" xlink:href="#DejaVuSans-97"/>
      <use x="2007.177734" xlink:href="#DejaVuSans-112"/>
      <use x="2070.654297" xlink:href="#DejaVuSans-115"/>
      <use x="2122.753906" xlink:href="#DejaVuSans-101"/>
      <use x="2184.277344" xlink:href="#DejaVuSans-61"/>
      <use x="2268.066406" xlink:href="#DejaVuSans-48"/>
      <use x="2331.689453" xlink:href="#DejaVuSans-46"/>
      <use x="2363.476562" xlink:href="#DejaVuSans-48"/>
      <use x="2427.099609" xlink:href="#DejaVuSans-49"/>
      <use x="2490.722656" xlink:href="#DejaVuSans-48"/>
      <use x="2554.345703" xlink:href="#DejaVuSans-48"/>
      <use x="2617.96875" xlink:href="#DejaVuSans-48"/>
      <use x="2681.591797" xlink:href="#DejaVuSans-48"/>
      <use x="2745.214844" xlink:href="#DejaVuSans-93"/>
     </g>
    </g>
    <g id="patch_159">
     <path d="M 380.567188 18.798437 
L 400.567188 18.798437 
L 400.567188 11.798437 
L 380.567188 11.798437 
z
" style="fill:#2ca02c;"/>
    </g>
    <g id="text_56">
     <!-- snn [timesteps=30, scaling=1, synapse=0.010000] -->
     <g transform="translate(408.567188 18.798437)scale(0.1 -0.1)">
      <use xlink:href="#DejaVuSans-115"/>
      <use x="52.099609" xlink:href="#DejaVuSans-110"/>
      <use x="115.478516" xlink:href="#DejaVuSans-110"/>
      <use x="178.857422" xlink:href="#DejaVuSans-32"/>
      <use x="210.644531" xlink:href="#DejaVuSans-91"/>
      <use x="249.658203" xlink:href="#DejaVuSans-116"/>
      <use x="288.867188" xlink:href="#DejaVuSans-105"/>
      <use x="316.650391" xlink:href="#DejaVuSans-109"/>
      <use x="414.0625" xlink:href="#DejaVuSans-101"/>
      <use x="475.585938" xlink:href="#DejaVuSans-115"/>
      <use x="527.685547" xlink:href="#DejaVuSans-116"/>
      <use x="566.894531" xlink:href="#DejaVuSans-101"/>
      <use x="628.417969" xlink:href="#DejaVuSans-112"/>
      <use x="691.894531" xlink:href="#DejaVuSans-115"/>
      <use x="743.994141" xlink:href="#DejaVuSans-61"/>
      <use x="827.783203" xlink:href="#DejaVuSans-51"/>
      <use x="891.40625" xlink:href="#DejaVuSans-48"/>
      <use x="955.029297" xlink:href="#DejaVuSans-44"/>
      <use x="986.816406" xlink:href="#DejaVuSans-32"/>
      <use x="1018.603516" xlink:href="#DejaVuSans-115"/>
      <use x="1070.703125" xlink:href="#DejaVuSans-99"/>
      <use x="1125.683594" xlink:href="#DejaVuSans-97"/>
      <use x="1186.962891" xlink:href="#DejaVuSans-108"/>
      <use x="1214.746094" xlink:href="#DejaVuSans-105"/>
      <use x="1242.529297" xlink:href="#DejaVuSans-110"/>
      <use x="1305.908203" xlink:href="#DejaVuSans-103"/>
      <use x="1369.384766" xlink:href="#DejaVuSans-61"/>
      <use x="1453.173828" xlink:href="#DejaVuSans-49"/>
      <use x="1516.796875" xlink:href="#DejaVuSans-44"/>
      <use x="1548.583984" xlink:href="#DejaVuSans-32"/>
      <use x="1580.371094" xlink:href="#DejaVuSans-115"/>
      <use x="1632.470703" xlink:href="#DejaVuSans-121"/>
      <use x="1691.650391" xlink:href="#DejaVuSans-110"/>
      <use x="1755.029297" xlink:href="#DejaVuSans-97"/>
      <use x="1816.308594" xlink:href="#DejaVuSans-112"/>
      <use x="1879.785156" xlink:href="#DejaVuSans-115"/>
      <use x="1931.884766" xlink:href="#DejaVuSans-101"/>
      <use x="1993.408203" xlink:href="#DejaVuSans-61"/>
      <use x="2077.197266" xlink:href="#DejaVuSans-48"/>
      <use x="2140.820312" xlink:href="#DejaVuSans-46"/>
      <use x="2172.607422" xlink:href="#DejaVuSans-48"/>
      <use x="2236.230469" xlink:href="#DejaVuSans-49"/>
      <use x="2299.853516" xlink:href="#DejaVuSans-48"/>
      <use x="2363.476562" xlink:href="#DejaVuSans-48"/>
      <use x="2427.099609" xlink:href="#DejaVuSans-48"/>
      <use x="2490.722656" xlink:href="#DejaVuSans-48"/>
      <use x="2554.345703" xlink:href="#DejaVuSans-93"/>
     </g>
    </g>
    <g id="patch_160">
     <path d="M 380.567188 33.476562 
L 400.567188 33.476562 
L 400.567188 26.476562 
L 380.567188 26.476562 
z
" style="fill:#d62728;"/>
    </g>
    <g id="text_57">
     <!-- snn [timesteps=30, scaling=1000, synapse=None] -->
     <g transform="translate(408.567188 33.476562)scale(0.1 -0.1)">
      <use xlink:href="#DejaVuSans-115"/>
      <use x="52.099609" xlink:href="#DejaVuSans-110"/>
      <use x="115.478516" xlink:href="#DejaVuSans-110"/>
      <use x="178.857422" xlink:href="#DejaVuSans-32"/>
      <use x="210.644531" xlink:href="#DejaVuSans-91"/>
      <use x="249.658203" xlink:href="#DejaVuSans-116"/>
      <use x="288.867188" xlink:href="#DejaVuSans-105"/>
      <use x="316.650391" xlink:href="#DejaVuSans-109"/>
      <use x="414.0625" xlink:href="#DejaVuSans-101"/>
      <use x="475.585938" xlink:href="#DejaVuSans-115"/>
      <use x="527.685547" xlink:href="#DejaVuSans-116"/>
      <use x="566.894531" xlink:href="#DejaVuSans-101"/>
      <use x="628.417969" xlink:href="#DejaVuSans-112"/>
      <use x="691.894531" xlink:href="#DejaVuSans-115"/>
      <use x="743.994141" xlink:href="#DejaVuSans-61"/>
      <use x="827.783203" xlink:href="#DejaVuSans-51"/>
      <use x="891.40625" xlink:href="#DejaVuSans-48"/>
      <use x="955.029297" xlink:href="#DejaVuSans-44"/>
      <use x="986.816406" xlink:href="#DejaVuSans-32"/>
      <use x="1018.603516" xlink:href="#DejaVuSans-115"/>
      <use x="1070.703125" xlink:href="#DejaVuSans-99"/>
      <use x="1125.683594" xlink:href="#DejaVuSans-97"/>
      <use x="1186.962891" xlink:href="#DejaVuSans-108"/>
      <use x="1214.746094" xlink:href="#DejaVuSans-105"/>
      <use x="1242.529297" xlink:href="#DejaVuSans-110"/>
      <use x="1305.908203" xlink:href="#DejaVuSans-103"/>
      <use x="1369.384766" xlink:href="#DejaVuSans-61"/>
      <use x="1453.173828" xlink:href="#DejaVuSans-49"/>
      <use x="1516.796875" xlink:href="#DejaVuSans-48"/>
      <use x="1580.419922" xlink:href="#DejaVuSans-48"/>
      <use x="1644.042969" xlink:href="#DejaVuSans-48"/>
      <use x="1707.666016" xlink:href="#DejaVuSans-44"/>
      <use x="1739.453125" xlink:href="#DejaVuSans-32"/>
      <use x="1771.240234" xlink:href="#DejaVuSans-115"/>
      <use x="1823.339844" xlink:href="#DejaVuSans-121"/>
      <use x="1882.519531" xlink:href="#DejaVuSans-110"/>
      <use x="1945.898438" xlink:href="#DejaVuSans-97"/>
      <use x="2007.177734" xlink:href="#DejaVuSans-112"/>
      <use x="2070.654297" xlink:href="#DejaVuSans-115"/>
      <use x="2122.753906" xlink:href="#DejaVuSans-101"/>
      <use x="2184.277344" xlink:href="#DejaVuSans-61"/>
      <use x="2268.066406" xlink:href="#DejaVuSans-78"/>
      <use x="2342.871094" xlink:href="#DejaVuSans-111"/>
      <use x="2404.052734" xlink:href="#DejaVuSans-110"/>
      <use x="2467.431641" xlink:href="#DejaVuSans-101"/>
      <use x="2528.955078" xlink:href="#DejaVuSans-93"/>
     </g>
    </g>
    <g id="patch_161">
     <path d="M 687.903125 18.798437 
L 707.903125 18.798437 
L 707.903125 11.798437 
L 687.903125 11.798437 
z
" style="fill:#9467bd;"/>
    </g>
    <g id="text_58">
     <!-- snn [timesteps=30, scaling=1, synapse=None] -->
     <g transform="translate(715.903125 18.798437)scale(0.1 -0.1)">
      <use xlink:href="#DejaVuSans-115"/>
      <use x="52.099609" xlink:href="#DejaVuSans-110"/>
      <use x="115.478516" xlink:href="#DejaVuSans-110"/>
      <use x="178.857422" xlink:href="#DejaVuSans-32"/>
      <use x="210.644531" xlink:href="#DejaVuSans-91"/>
      <use x="249.658203" xlink:href="#DejaVuSans-116"/>
      <use x="288.867188" xlink:href="#DejaVuSans-105"/>
      <use x="316.650391" xlink:href="#DejaVuSans-109"/>
      <use x="414.0625" xlink:href="#DejaVuSans-101"/>
      <use x="475.585938" xlink:href="#DejaVuSans-115"/>
      <use x="527.685547" xlink:href="#DejaVuSans-116"/>
      <use x="566.894531" xlink:href="#DejaVuSans-101"/>
      <use x="628.417969" xlink:href="#DejaVuSans-112"/>
      <use x="691.894531" xlink:href="#DejaVuSans-115"/>
      <use x="743.994141" xlink:href="#DejaVuSans-61"/>
      <use x="827.783203" xlink:href="#DejaVuSans-51"/>
      <use x="891.40625" xlink:href="#DejaVuSans-48"/>
      <use x="955.029297" xlink:href="#DejaVuSans-44"/>
      <use x="986.816406" xlink:href="#DejaVuSans-32"/>
      <use x="1018.603516" xlink:href="#DejaVuSans-115"/>
      <use x="1070.703125" xlink:href="#DejaVuSans-99"/>
      <use x="1125.683594" xlink:href="#DejaVuSans-97"/>
      <use x="1186.962891" xlink:href="#DejaVuSans-108"/>
      <use x="1214.746094" xlink:href="#DejaVuSans-105"/>
      <use x="1242.529297" xlink:href="#DejaVuSans-110"/>
      <use x="1305.908203" xlink:href="#DejaVuSans-103"/>
      <use x="1369.384766" xlink:href="#DejaVuSans-61"/>
      <use x="1453.173828" xlink:href="#DejaVuSans-49"/>
      <use x="1516.796875" xlink:href="#DejaVuSans-44"/>
      <use x="1548.583984" xlink:href="#DejaVuSans-32"/>
      <use x="1580.371094" xlink:href="#DejaVuSans-115"/>
      <use x="1632.470703" xlink:href="#DejaVuSans-121"/>
      <use x="1691.650391" xlink:href="#DejaVuSans-110"/>
      <use x="1755.029297" xlink:href="#DejaVuSans-97"/>
      <use x="1816.308594" xlink:href="#DejaVuSans-112"/>
      <use x="1879.785156" xlink:href="#DejaVuSans-115"/>
      <use x="1931.884766" xlink:href="#DejaVuSans-101"/>
      <use x="1993.408203" xlink:href="#DejaVuSans-61"/>
      <use x="2077.197266" xlink:href="#DejaVuSans-78"/>
      <use x="2152.001953" xlink:href="#DejaVuSans-111"/>
      <use x="2213.183594" xlink:href="#DejaVuSans-110"/>
      <use x="2276.5625" xlink:href="#DejaVuSans-101"/>
      <use x="2338.085938" xlink:href="#DejaVuSans-93"/>
     </g>
    </g>
   </g>
  </g>
 </g>
 <defs>
  <clipPath id="p88c6d2c166">
   <rect height="782.784" width="1071.36" x="50.14375" y="78.973575"/>
  </clipPath>
 </defs>
</svg>
