<?xml version="1.0" encoding="utf-8" standalone="no"?>
<!DOCTYPE svg PUBLIC "-//W3C//DTD SVG 1.1//EN"
  "http://www.w3.org/Graphics/SVG/1.1/DTD/svg11.dtd">
<!-- Created with matplotlib (https://matplotlib.org/) -->
<svg height="695.744725pt" version="1.1" viewBox="0 0 594.615937 695.744725" width="594.615937pt" xmlns="http://www.w3.org/2000/svg" xmlns:xlink="http://www.w3.org/1999/xlink">
 <metadata>
  <rdf:RDF xmlns:cc="http://creativecommons.org/ns#" xmlns:dc="http://purl.org/dc/elements/1.1/" xmlns:rdf="http://www.w3.org/1999/02/22-rdf-syntax-ns#">
   <cc:Work>
    <dc:type rdf:resource="http://purl.org/dc/dcmitype/StillImage"/>
    <dc:date>2021-03-20T12:05:11.030525</dc:date>
    <dc:format>image/svg+xml</dc:format>
    <dc:creator>
     <cc:Agent>
      <dc:title>Matplotlib v3.3.4, https://matplotlib.org/</dc:title>
     </cc:Agent>
    </dc:creator>
   </cc:Work>
  </rdf:RDF>
 </metadata>
 <defs>
  <style type="text/css">*{stroke-linecap:butt;stroke-linejoin:round;}</style>
 </defs>
 <g id="figure_1">
  <g id="patch_1">
   <path d="M 0 695.744725 
L 594.615937 695.744725 
L 594.615937 0 
L 0 0 
z
" style="fill:none;"/>
  </g>
  <g id="axes_1">
   <g id="patch_2">
    <path d="M 40.603125 658.188475 
L 576.283125 658.188475 
L 576.283125 84.146875 
L 40.603125 84.146875 
z
" style="fill:#ffffff;"/>
   </g>
   <g id="patch_3">
    <path clip-path="url(#p8f02c1b047)" d="M 40.603125 644.255426 
L 536.872401 644.255426 
L 536.872401 635.338275 
L 40.603125 635.338275 
z
" style="fill:#6495ed;"/>
   </g>
   <g id="patch_4">
    <path clip-path="url(#p8f02c1b047)" d="M 40.603125 588.523232 
L 536.107109 588.523232 
L 536.107109 579.606081 
L 40.603125 579.606081 
z
" style="fill:#6495ed;"/>
   </g>
   <g id="patch_5">
    <path clip-path="url(#p8f02c1b047)" d="M 40.603125 532.791038 
L 536.107109 532.791038 
L 536.107109 523.873887 
L 40.603125 523.873887 
z
" style="fill:#6495ed;"/>
   </g>
   <g id="patch_6">
    <path clip-path="url(#p8f02c1b047)" d="M 40.603125 477.058844 
L 534.95926 477.058844 
L 534.95926 468.141693 
L 40.603125 468.141693 
z
" style="fill:#6495ed;"/>
   </g>
   <g id="patch_7">
    <path clip-path="url(#p8f02c1b047)" d="M 40.603125 421.32665 
L 534.193968 421.32665 
L 534.193968 412.409499 
L 40.603125 412.409499 
z
" style="fill:#6495ed;"/>
   </g>
   <g id="patch_8">
    <path clip-path="url(#p8f02c1b047)" d="M 40.603125 365.594456 
L 533.42872 365.594456 
L 533.42872 356.677305 
L 40.603125 356.677305 
z
" style="fill:#6495ed;"/>
   </g>
   <g id="patch_9">
    <path clip-path="url(#p8f02c1b047)" d="M 40.603125 309.862261 
L 532.663473 309.862261 
L 532.663473 300.94511 
L 40.603125 300.94511 
z
" style="fill:#6495ed;"/>
   </g>
   <g id="patch_10">
    <path clip-path="url(#p8f02c1b047)" d="M 40.603125 254.130067 
L 532.280827 254.130067 
L 532.280827 245.212916 
L 40.603125 245.212916 
z
" style="fill:#6495ed;"/>
   </g>
   <g id="patch_11">
    <path clip-path="url(#p8f02c1b047)" d="M 40.603125 198.397873 
L 530.750332 198.397873 
L 530.750332 189.480722 
L 40.603125 189.480722 
z
" style="fill:#6495ed;"/>
   </g>
   <g id="patch_12">
    <path clip-path="url(#p8f02c1b047)" d="M 40.603125 142.665679 
L 530.750332 142.665679 
L 530.750332 133.748528 
L 40.603125 133.748528 
z
" style="fill:#6495ed;"/>
   </g>
   <g id="patch_13">
    <path clip-path="url(#p8f02c1b047)" d="M 40.603125 635.338275 
L 536.172833 635.338275 
L 536.172833 626.421124 
L 40.603125 626.421124 
z
" style="fill:#daa520;"/>
   </g>
   <g id="patch_14">
    <path clip-path="url(#p8f02c1b047)" d="M 40.603125 579.606081 
L 531.220945 579.606081 
L 531.220945 570.68893 
L 40.603125 570.68893 
z
" style="fill:#daa520;"/>
   </g>
   <g id="patch_15">
    <path clip-path="url(#p8f02c1b047)" d="M 40.603125 523.873887 
L 536.934662 523.873887 
L 536.934662 514.956736 
L 40.603125 514.956736 
z
" style="fill:#daa520;"/>
   </g>
   <g id="patch_16">
    <path clip-path="url(#p8f02c1b047)" d="M 40.603125 468.141693 
L 535.030089 468.141693 
L 535.030089 459.224542 
L 40.603125 459.224542 
z
" style="fill:#daa520;"/>
   </g>
   <g id="patch_17">
    <path clip-path="url(#p8f02c1b047)" d="M 40.603125 412.409499 
L 533.887346 412.409499 
L 533.887346 403.492348 
L 40.603125 403.492348 
z
" style="fill:#daa520;"/>
   </g>
   <g id="patch_18">
    <path clip-path="url(#p8f02c1b047)" d="M 40.603125 356.677305 
L 533.506432 356.677305 
L 533.506432 347.760153 
L 40.603125 347.760153 
z
" style="fill:#daa520;"/>
   </g>
   <g id="patch_19">
    <path clip-path="url(#p8f02c1b047)" d="M 40.603125 300.94511 
L 533.887346 300.94511 
L 533.887346 292.027959 
L 40.603125 292.027959 
z
" style="fill:#daa520;"/>
   </g>
   <g id="patch_20">
    <path clip-path="url(#p8f02c1b047)" d="M 40.603125 245.212916 
L 530.459116 245.212916 
L 530.459116 236.295765 
L 40.603125 236.295765 
z
" style="fill:#daa520;"/>
   </g>
   <g id="patch_21">
    <path clip-path="url(#p8f02c1b047)" d="M 40.603125 189.480722 
L 532.363688 189.480722 
L 532.363688 180.563571 
L 40.603125 180.563571 
z
" style="fill:#daa520;"/>
   </g>
   <g id="patch_22">
    <path clip-path="url(#p8f02c1b047)" d="M 40.603125 133.748528 
L 531.220945 133.748528 
L 531.220945 124.831377 
L 40.603125 124.831377 
z
" style="fill:#daa520;"/>
   </g>
   <g id="patch_23">
    <path clip-path="url(#p8f02c1b047)" d="M 40.603125 626.421124 
L 537.696491 626.421124 
L 537.696491 617.503973 
L 40.603125 617.503973 
z
" style="fill:#00ff7f;"/>
   </g>
   <g id="patch_24">
    <path clip-path="url(#p8f02c1b047)" d="M 40.603125 570.68893 
L 535.411004 570.68893 
L 535.411004 561.771779 
L 40.603125 561.771779 
z
" style="fill:#00ff7f;"/>
   </g>
   <g id="patch_25">
    <path clip-path="url(#p8f02c1b047)" d="M 40.603125 514.956736 
L 536.553747 514.956736 
L 536.553747 506.039585 
L 40.603125 506.039585 
z
" style="fill:#00ff7f;"/>
   </g>
   <g id="patch_26">
    <path clip-path="url(#p8f02c1b047)" d="M 40.603125 459.224542 
L 534.649175 459.224542 
L 534.649175 450.307391 
L 40.603125 450.307391 
z
" style="fill:#00ff7f;"/>
   </g>
   <g id="patch_27">
    <path clip-path="url(#p8f02c1b047)" d="M 40.603125 403.492348 
L 535.030089 403.492348 
L 535.030089 394.575197 
L 40.603125 394.575197 
z
" style="fill:#00ff7f;"/>
   </g>
   <g id="patch_28">
    <path clip-path="url(#p8f02c1b047)" d="M 40.603125 347.760153 
L 532.744603 347.760153 
L 532.744603 338.843002 
L 40.603125 338.843002 
z
" style="fill:#00ff7f;"/>
   </g>
   <g id="patch_29">
    <path clip-path="url(#p8f02c1b047)" d="M 40.603125 292.027959 
L 533.887346 292.027959 
L 533.887346 283.110808 
L 40.603125 283.110808 
z
" style="fill:#00ff7f;"/>
   </g>
   <g id="patch_30">
    <path clip-path="url(#p8f02c1b047)" d="M 40.603125 236.295765 
L 532.744603 236.295765 
L 532.744603 227.378614 
L 40.603125 227.378614 
z
" style="fill:#00ff7f;"/>
   </g>
   <g id="patch_31">
    <path clip-path="url(#p8f02c1b047)" d="M 40.603125 180.563571 
L 531.982774 180.563571 
L 531.982774 171.64642 
L 40.603125 171.64642 
z
" style="fill:#00ff7f;"/>
   </g>
   <g id="patch_32">
    <path clip-path="url(#p8f02c1b047)" d="M 40.603125 124.831377 
L 531.220945 124.831377 
L 531.220945 115.914226 
L 40.603125 115.914226 
z
" style="fill:#00ff7f;"/>
   </g>
   <g id="patch_33">
    <path clip-path="url(#p8f02c1b047)" d="M 40.603125 617.503973 
L 455.799882 617.503973 
L 455.799882 608.586822 
L 40.603125 608.586822 
z
" style="fill:#778899;"/>
   </g>
   <g id="patch_34">
    <path clip-path="url(#p8f02c1b047)" d="M 40.603125 561.771779 
L 437.135074 561.771779 
L 437.135074 552.854628 
L 40.603125 552.854628 
z
" style="fill:#778899;"/>
   </g>
   <g id="patch_35">
    <path clip-path="url(#p8f02c1b047)" d="M 40.603125 506.039585 
L 432.183186 506.039585 
L 432.183186 497.122434 
L 40.603125 497.122434 
z
" style="fill:#778899;"/>
   </g>
   <g id="patch_36">
    <path clip-path="url(#p8f02c1b047)" d="M 40.603125 450.307391 
L 452.371652 450.307391 
L 452.371652 441.39024 
L 40.603125 441.39024 
z
" style="fill:#778899;"/>
   </g>
   <g id="patch_37">
    <path clip-path="url(#p8f02c1b047)" d="M 40.603125 394.575197 
L 434.087758 394.575197 
L 434.087758 385.658045 
L 40.603125 385.658045 
z
" style="fill:#778899;"/>
   </g>
   <g id="patch_38">
    <path clip-path="url(#p8f02c1b047)" d="M 40.603125 338.843002 
L 439.039646 338.843002 
L 439.039646 329.925851 
L 40.603125 329.925851 
z
" style="fill:#778899;"/>
   </g>
   <g id="patch_39">
    <path clip-path="url(#p8f02c1b047)" d="M 40.603125 283.110808 
L 455.418968 283.110808 
L 455.418968 274.193657 
L 40.603125 274.193657 
z
" style="fill:#778899;"/>
   </g>
   <g id="patch_40">
    <path clip-path="url(#p8f02c1b047)" d="M 40.603125 227.378614 
L 450.46708 227.378614 
L 450.46708 218.461463 
L 40.603125 218.461463 
z
" style="fill:#778899;"/>
   </g>
   <g id="patch_41">
    <path clip-path="url(#p8f02c1b047)" d="M 40.603125 171.64642 
L 450.46708 171.64642 
L 450.46708 162.729269 
L 40.603125 162.729269 
z
" style="fill:#778899;"/>
   </g>
   <g id="patch_42">
    <path clip-path="url(#p8f02c1b047)" d="M 40.603125 115.914226 
L 456.942626 115.914226 
L 456.942626 106.997075 
L 40.603125 106.997075 
z
" style="fill:#778899;"/>
   </g>
   <g id="patch_43">
    <path clip-path="url(#p8f02c1b047)" d="M 40.603125 608.586822 
L 458.847198 608.586822 
L 458.847198 599.669671 
L 40.603125 599.669671 
z
" style="fill:#f08080;"/>
   </g>
   <g id="patch_44">
    <path clip-path="url(#p8f02c1b047)" d="M 40.603125 552.854628 
L 445.515192 552.854628 
L 445.515192 543.937477 
L 40.603125 543.937477 
z
" style="fill:#f08080;"/>
   </g>
   <g id="patch_45">
    <path clip-path="url(#p8f02c1b047)" d="M 40.603125 497.122434 
L 454.276225 497.122434 
L 454.276225 488.205283 
L 40.603125 488.205283 
z
" style="fill:#f08080;"/>
   </g>
   <g id="patch_46">
    <path clip-path="url(#p8f02c1b047)" d="M 40.603125 441.39024 
L 453.514396 441.39024 
L 453.514396 432.473089 
L 40.603125 432.473089 
z
" style="fill:#f08080;"/>
   </g>
   <g id="patch_47">
    <path clip-path="url(#p8f02c1b047)" d="M 40.603125 385.658045 
L 431.802272 385.658045 
L 431.802272 376.740894 
L 40.603125 376.740894 
z
" style="fill:#f08080;"/>
   </g>
   <g id="patch_48">
    <path clip-path="url(#p8f02c1b047)" d="M 40.603125 329.925851 
L 458.085369 329.925851 
L 458.085369 321.0087 
L 40.603125 321.0087 
z
" style="fill:#f08080;"/>
   </g>
   <g id="patch_49">
    <path clip-path="url(#p8f02c1b047)" d="M 40.603125 274.193657 
L 453.133481 274.193657 
L 453.133481 265.276506 
L 40.603125 265.276506 
z
" style="fill:#f08080;"/>
   </g>
   <g id="patch_50">
    <path clip-path="url(#p8f02c1b047)" d="M 40.603125 218.461463 
L 458.085369 218.461463 
L 458.085369 209.544312 
L 40.603125 209.544312 
z
" style="fill:#f08080;"/>
   </g>
   <g id="patch_51">
    <path clip-path="url(#p8f02c1b047)" d="M 40.603125 162.729269 
L 442.848791 162.729269 
L 442.848791 153.812118 
L 40.603125 153.812118 
z
" style="fill:#f08080;"/>
   </g>
   <g id="patch_52">
    <path clip-path="url(#p8f02c1b047)" d="M 40.603125 106.997075 
L 455.038054 106.997075 
L 455.038054 98.079924 
L 40.603125 98.079924 
z
" style="fill:#f08080;"/>
   </g>
   <g id="matplotlib.axis_1">
    <g id="xtick_1">
     <g id="line2d_1">
      <defs>
       <path d="M 0 0 
L 0 3.5 
" id="m04a5ac3309" style="stroke:#000000;stroke-width:0.8;"/>
      </defs>
      <g>
       <use style="stroke:#000000;stroke-width:0.8;" x="40.603125" xlink:href="#m04a5ac3309" y="658.188475"/>
      </g>
     </g>
     <g id="text_1">
      <!-- 0.00 -->
      <g transform="translate(29.470312 672.786912)scale(0.1 -0.1)">
       <defs>
        <path d="M 31.78125 66.40625 
Q 24.171875 66.40625 20.328125 58.90625 
Q 16.5 51.421875 16.5 36.375 
Q 16.5 21.390625 20.328125 13.890625 
Q 24.171875 6.390625 31.78125 6.390625 
Q 39.453125 6.390625 43.28125 13.890625 
Q 47.125 21.390625 47.125 36.375 
Q 47.125 51.421875 43.28125 58.90625 
Q 39.453125 66.40625 31.78125 66.40625 
z
M 31.78125 74.21875 
Q 44.046875 74.21875 50.515625 64.515625 
Q 56.984375 54.828125 56.984375 36.375 
Q 56.984375 17.96875 50.515625 8.265625 
Q 44.046875 -1.421875 31.78125 -1.421875 
Q 19.53125 -1.421875 13.0625 8.265625 
Q 6.59375 17.96875 6.59375 36.375 
Q 6.59375 54.828125 13.0625 64.515625 
Q 19.53125 74.21875 31.78125 74.21875 
z
" id="DejaVuSans-48"/>
        <path d="M 10.6875 12.40625 
L 21 12.40625 
L 21 0 
L 10.6875 0 
z
" id="DejaVuSans-46"/>
       </defs>
       <use xlink:href="#DejaVuSans-48"/>
       <use x="63.623047" xlink:href="#DejaVuSans-46"/>
       <use x="95.410156" xlink:href="#DejaVuSans-48"/>
       <use x="159.033203" xlink:href="#DejaVuSans-48"/>
      </g>
     </g>
    </g>
    <g id="xtick_2">
     <g id="line2d_2">
      <g>
       <use style="stroke:#000000;stroke-width:0.8;" x="78.865982" xlink:href="#m04a5ac3309" y="658.188475"/>
      </g>
     </g>
     <g id="text_2">
      <!-- 0.05 -->
      <g transform="translate(67.73317 672.786912)scale(0.1 -0.1)">
       <defs>
        <path d="M 10.796875 72.90625 
L 49.515625 72.90625 
L 49.515625 64.59375 
L 19.828125 64.59375 
L 19.828125 46.734375 
Q 21.96875 47.46875 24.109375 47.828125 
Q 26.265625 48.1875 28.421875 48.1875 
Q 40.625 48.1875 47.75 41.5 
Q 54.890625 34.8125 54.890625 23.390625 
Q 54.890625 11.625 47.5625 5.09375 
Q 40.234375 -1.421875 26.90625 -1.421875 
Q 22.3125 -1.421875 17.546875 -0.640625 
Q 12.796875 0.140625 7.71875 1.703125 
L 7.71875 11.625 
Q 12.109375 9.234375 16.796875 8.0625 
Q 21.484375 6.890625 26.703125 6.890625 
Q 35.15625 6.890625 40.078125 11.328125 
Q 45.015625 15.765625 45.015625 23.390625 
Q 45.015625 31 40.078125 35.4375 
Q 35.15625 39.890625 26.703125 39.890625 
Q 22.75 39.890625 18.8125 39.015625 
Q 14.890625 38.140625 10.796875 36.28125 
z
" id="DejaVuSans-53"/>
       </defs>
       <use xlink:href="#DejaVuSans-48"/>
       <use x="63.623047" xlink:href="#DejaVuSans-46"/>
       <use x="95.410156" xlink:href="#DejaVuSans-48"/>
       <use x="159.033203" xlink:href="#DejaVuSans-53"/>
      </g>
     </g>
    </g>
    <g id="xtick_3">
     <g id="line2d_3">
      <g>
       <use style="stroke:#000000;stroke-width:0.8;" x="117.128839" xlink:href="#m04a5ac3309" y="658.188475"/>
      </g>
     </g>
     <g id="text_3">
      <!-- 0.10 -->
      <g transform="translate(105.996027 672.786912)scale(0.1 -0.1)">
       <defs>
        <path d="M 12.40625 8.296875 
L 28.515625 8.296875 
L 28.515625 63.921875 
L 10.984375 60.40625 
L 10.984375 69.390625 
L 28.421875 72.90625 
L 38.28125 72.90625 
L 38.28125 8.296875 
L 54.390625 8.296875 
L 54.390625 0 
L 12.40625 0 
z
" id="DejaVuSans-49"/>
       </defs>
       <use xlink:href="#DejaVuSans-48"/>
       <use x="63.623047" xlink:href="#DejaVuSans-46"/>
       <use x="95.410156" xlink:href="#DejaVuSans-49"/>
       <use x="159.033203" xlink:href="#DejaVuSans-48"/>
      </g>
     </g>
    </g>
    <g id="xtick_4">
     <g id="line2d_4">
      <g>
       <use style="stroke:#000000;stroke-width:0.8;" x="155.391696" xlink:href="#m04a5ac3309" y="658.188475"/>
      </g>
     </g>
     <g id="text_4">
      <!-- 0.15 -->
      <g transform="translate(144.258884 672.786912)scale(0.1 -0.1)">
       <use xlink:href="#DejaVuSans-48"/>
       <use x="63.623047" xlink:href="#DejaVuSans-46"/>
       <use x="95.410156" xlink:href="#DejaVuSans-49"/>
       <use x="159.033203" xlink:href="#DejaVuSans-53"/>
      </g>
     </g>
    </g>
    <g id="xtick_5">
     <g id="line2d_5">
      <g>
       <use style="stroke:#000000;stroke-width:0.8;" x="193.654554" xlink:href="#m04a5ac3309" y="658.188475"/>
      </g>
     </g>
     <g id="text_5">
      <!-- 0.20 -->
      <g transform="translate(182.521741 672.786912)scale(0.1 -0.1)">
       <defs>
        <path d="M 19.1875 8.296875 
L 53.609375 8.296875 
L 53.609375 0 
L 7.328125 0 
L 7.328125 8.296875 
Q 12.9375 14.109375 22.625 23.890625 
Q 32.328125 33.6875 34.8125 36.53125 
Q 39.546875 41.84375 41.421875 45.53125 
Q 43.3125 49.21875 43.3125 52.78125 
Q 43.3125 58.59375 39.234375 62.25 
Q 35.15625 65.921875 28.609375 65.921875 
Q 23.96875 65.921875 18.8125 64.3125 
Q 13.671875 62.703125 7.8125 59.421875 
L 7.8125 69.390625 
Q 13.765625 71.78125 18.9375 73 
Q 24.125 74.21875 28.421875 74.21875 
Q 39.75 74.21875 46.484375 68.546875 
Q 53.21875 62.890625 53.21875 53.421875 
Q 53.21875 48.921875 51.53125 44.890625 
Q 49.859375 40.875 45.40625 35.40625 
Q 44.1875 33.984375 37.640625 27.21875 
Q 31.109375 20.453125 19.1875 8.296875 
z
" id="DejaVuSans-50"/>
       </defs>
       <use xlink:href="#DejaVuSans-48"/>
       <use x="63.623047" xlink:href="#DejaVuSans-46"/>
       <use x="95.410156" xlink:href="#DejaVuSans-50"/>
       <use x="159.033203" xlink:href="#DejaVuSans-48"/>
      </g>
     </g>
    </g>
    <g id="xtick_6">
     <g id="line2d_6">
      <g>
       <use style="stroke:#000000;stroke-width:0.8;" x="231.917411" xlink:href="#m04a5ac3309" y="658.188475"/>
      </g>
     </g>
     <g id="text_6">
      <!-- 0.25 -->
      <g transform="translate(220.784598 672.786912)scale(0.1 -0.1)">
       <use xlink:href="#DejaVuSans-48"/>
       <use x="63.623047" xlink:href="#DejaVuSans-46"/>
       <use x="95.410156" xlink:href="#DejaVuSans-50"/>
       <use x="159.033203" xlink:href="#DejaVuSans-53"/>
      </g>
     </g>
    </g>
    <g id="xtick_7">
     <g id="line2d_7">
      <g>
       <use style="stroke:#000000;stroke-width:0.8;" x="270.180268" xlink:href="#m04a5ac3309" y="658.188475"/>
      </g>
     </g>
     <g id="text_7">
      <!-- 0.30 -->
      <g transform="translate(259.047455 672.786912)scale(0.1 -0.1)">
       <defs>
        <path d="M 40.578125 39.3125 
Q 47.65625 37.796875 51.625 33 
Q 55.609375 28.21875 55.609375 21.1875 
Q 55.609375 10.40625 48.1875 4.484375 
Q 40.765625 -1.421875 27.09375 -1.421875 
Q 22.515625 -1.421875 17.65625 -0.515625 
Q 12.796875 0.390625 7.625 2.203125 
L 7.625 11.71875 
Q 11.71875 9.328125 16.59375 8.109375 
Q 21.484375 6.890625 26.8125 6.890625 
Q 36.078125 6.890625 40.9375 10.546875 
Q 45.796875 14.203125 45.796875 21.1875 
Q 45.796875 27.640625 41.28125 31.265625 
Q 36.765625 34.90625 28.71875 34.90625 
L 20.21875 34.90625 
L 20.21875 43.015625 
L 29.109375 43.015625 
Q 36.375 43.015625 40.234375 45.921875 
Q 44.09375 48.828125 44.09375 54.296875 
Q 44.09375 59.90625 40.109375 62.90625 
Q 36.140625 65.921875 28.71875 65.921875 
Q 24.65625 65.921875 20.015625 65.03125 
Q 15.375 64.15625 9.8125 62.3125 
L 9.8125 71.09375 
Q 15.4375 72.65625 20.34375 73.4375 
Q 25.25 74.21875 29.59375 74.21875 
Q 40.828125 74.21875 47.359375 69.109375 
Q 53.90625 64.015625 53.90625 55.328125 
Q 53.90625 49.265625 50.4375 45.09375 
Q 46.96875 40.921875 40.578125 39.3125 
z
" id="DejaVuSans-51"/>
       </defs>
       <use xlink:href="#DejaVuSans-48"/>
       <use x="63.623047" xlink:href="#DejaVuSans-46"/>
       <use x="95.410156" xlink:href="#DejaVuSans-51"/>
       <use x="159.033203" xlink:href="#DejaVuSans-48"/>
      </g>
     </g>
    </g>
    <g id="xtick_8">
     <g id="line2d_8">
      <g>
       <use style="stroke:#000000;stroke-width:0.8;" x="308.443125" xlink:href="#m04a5ac3309" y="658.188475"/>
      </g>
     </g>
     <g id="text_8">
      <!-- 0.35 -->
      <g transform="translate(297.310313 672.786912)scale(0.1 -0.1)">
       <use xlink:href="#DejaVuSans-48"/>
       <use x="63.623047" xlink:href="#DejaVuSans-46"/>
       <use x="95.410156" xlink:href="#DejaVuSans-51"/>
       <use x="159.033203" xlink:href="#DejaVuSans-53"/>
      </g>
     </g>
    </g>
    <g id="xtick_9">
     <g id="line2d_9">
      <g>
       <use style="stroke:#000000;stroke-width:0.8;" x="346.705982" xlink:href="#m04a5ac3309" y="658.188475"/>
      </g>
     </g>
     <g id="text_9">
      <!-- 0.40 -->
      <g transform="translate(335.57317 672.786912)scale(0.1 -0.1)">
       <defs>
        <path d="M 37.796875 64.3125 
L 12.890625 25.390625 
L 37.796875 25.390625 
z
M 35.203125 72.90625 
L 47.609375 72.90625 
L 47.609375 25.390625 
L 58.015625 25.390625 
L 58.015625 17.1875 
L 47.609375 17.1875 
L 47.609375 0 
L 37.796875 0 
L 37.796875 17.1875 
L 4.890625 17.1875 
L 4.890625 26.703125 
z
" id="DejaVuSans-52"/>
       </defs>
       <use xlink:href="#DejaVuSans-48"/>
       <use x="63.623047" xlink:href="#DejaVuSans-46"/>
       <use x="95.410156" xlink:href="#DejaVuSans-52"/>
       <use x="159.033203" xlink:href="#DejaVuSans-48"/>
      </g>
     </g>
    </g>
    <g id="xtick_10">
     <g id="line2d_10">
      <g>
       <use style="stroke:#000000;stroke-width:0.8;" x="384.968839" xlink:href="#m04a5ac3309" y="658.188475"/>
      </g>
     </g>
     <g id="text_10">
      <!-- 0.45 -->
      <g transform="translate(373.836027 672.786912)scale(0.1 -0.1)">
       <use xlink:href="#DejaVuSans-48"/>
       <use x="63.623047" xlink:href="#DejaVuSans-46"/>
       <use x="95.410156" xlink:href="#DejaVuSans-52"/>
       <use x="159.033203" xlink:href="#DejaVuSans-53"/>
      </g>
     </g>
    </g>
    <g id="xtick_11">
     <g id="line2d_11">
      <g>
       <use style="stroke:#000000;stroke-width:0.8;" x="423.231696" xlink:href="#m04a5ac3309" y="658.188475"/>
      </g>
     </g>
     <g id="text_11">
      <!-- 0.50 -->
      <g transform="translate(412.098884 672.786912)scale(0.1 -0.1)">
       <use xlink:href="#DejaVuSans-48"/>
       <use x="63.623047" xlink:href="#DejaVuSans-46"/>
       <use x="95.410156" xlink:href="#DejaVuSans-53"/>
       <use x="159.033203" xlink:href="#DejaVuSans-48"/>
      </g>
     </g>
    </g>
    <g id="xtick_12">
     <g id="line2d_12">
      <g>
       <use style="stroke:#000000;stroke-width:0.8;" x="461.494554" xlink:href="#m04a5ac3309" y="658.188475"/>
      </g>
     </g>
     <g id="text_12">
      <!-- 0.55 -->
      <g transform="translate(450.361741 672.786912)scale(0.1 -0.1)">
       <use xlink:href="#DejaVuSans-48"/>
       <use x="63.623047" xlink:href="#DejaVuSans-46"/>
       <use x="95.410156" xlink:href="#DejaVuSans-53"/>
       <use x="159.033203" xlink:href="#DejaVuSans-53"/>
      </g>
     </g>
    </g>
    <g id="xtick_13">
     <g id="line2d_13">
      <g>
       <use style="stroke:#000000;stroke-width:0.8;" x="499.757411" xlink:href="#m04a5ac3309" y="658.188475"/>
      </g>
     </g>
     <g id="text_13">
      <!-- 0.60 -->
      <g transform="translate(488.624598 672.786912)scale(0.1 -0.1)">
       <defs>
        <path d="M 33.015625 40.375 
Q 26.375 40.375 22.484375 35.828125 
Q 18.609375 31.296875 18.609375 23.390625 
Q 18.609375 15.53125 22.484375 10.953125 
Q 26.375 6.390625 33.015625 6.390625 
Q 39.65625 6.390625 43.53125 10.953125 
Q 47.40625 15.53125 47.40625 23.390625 
Q 47.40625 31.296875 43.53125 35.828125 
Q 39.65625 40.375 33.015625 40.375 
z
M 52.59375 71.296875 
L 52.59375 62.3125 
Q 48.875 64.0625 45.09375 64.984375 
Q 41.3125 65.921875 37.59375 65.921875 
Q 27.828125 65.921875 22.671875 59.328125 
Q 17.53125 52.734375 16.796875 39.40625 
Q 19.671875 43.65625 24.015625 45.921875 
Q 28.375 48.1875 33.59375 48.1875 
Q 44.578125 48.1875 50.953125 41.515625 
Q 57.328125 34.859375 57.328125 23.390625 
Q 57.328125 12.15625 50.6875 5.359375 
Q 44.046875 -1.421875 33.015625 -1.421875 
Q 20.359375 -1.421875 13.671875 8.265625 
Q 6.984375 17.96875 6.984375 36.375 
Q 6.984375 53.65625 15.1875 63.9375 
Q 23.390625 74.21875 37.203125 74.21875 
Q 40.921875 74.21875 44.703125 73.484375 
Q 48.484375 72.75 52.59375 71.296875 
z
" id="DejaVuSans-54"/>
       </defs>
       <use xlink:href="#DejaVuSans-48"/>
       <use x="63.623047" xlink:href="#DejaVuSans-46"/>
       <use x="95.410156" xlink:href="#DejaVuSans-54"/>
       <use x="159.033203" xlink:href="#DejaVuSans-48"/>
      </g>
     </g>
    </g>
    <g id="xtick_14">
     <g id="line2d_14">
      <g>
       <use style="stroke:#000000;stroke-width:0.8;" x="538.020268" xlink:href="#m04a5ac3309" y="658.188475"/>
      </g>
     </g>
     <g id="text_14">
      <!-- 0.65 -->
      <g transform="translate(526.887455 672.786912)scale(0.1 -0.1)">
       <use xlink:href="#DejaVuSans-48"/>
       <use x="63.623047" xlink:href="#DejaVuSans-46"/>
       <use x="95.410156" xlink:href="#DejaVuSans-54"/>
       <use x="159.033203" xlink:href="#DejaVuSans-53"/>
      </g>
     </g>
    </g>
    <g id="xtick_15">
     <g id="line2d_15">
      <g>
       <use style="stroke:#000000;stroke-width:0.8;" x="576.283125" xlink:href="#m04a5ac3309" y="658.188475"/>
      </g>
     </g>
     <g id="text_15">
      <!-- 0.70 -->
      <g transform="translate(565.150313 672.786912)scale(0.1 -0.1)">
       <defs>
        <path d="M 8.203125 72.90625 
L 55.078125 72.90625 
L 55.078125 68.703125 
L 28.609375 0 
L 18.3125 0 
L 43.21875 64.59375 
L 8.203125 64.59375 
z
" id="DejaVuSans-55"/>
       </defs>
       <use xlink:href="#DejaVuSans-48"/>
       <use x="63.623047" xlink:href="#DejaVuSans-46"/>
       <use x="95.410156" xlink:href="#DejaVuSans-55"/>
       <use x="159.033203" xlink:href="#DejaVuSans-48"/>
      </g>
     </g>
    </g>
    <g id="text_16">
     <!-- Accuracy -->
     <g transform="translate(285.615 686.465037)scale(0.1 -0.1)">
      <defs>
       <path d="M 34.1875 63.1875 
L 20.796875 26.90625 
L 47.609375 26.90625 
z
M 28.609375 72.90625 
L 39.796875 72.90625 
L 67.578125 0 
L 57.328125 0 
L 50.6875 18.703125 
L 17.828125 18.703125 
L 11.1875 0 
L 0.78125 0 
z
" id="DejaVuSans-65"/>
       <path d="M 48.78125 52.59375 
L 48.78125 44.1875 
Q 44.96875 46.296875 41.140625 47.34375 
Q 37.3125 48.390625 33.40625 48.390625 
Q 24.65625 48.390625 19.8125 42.84375 
Q 14.984375 37.3125 14.984375 27.296875 
Q 14.984375 17.28125 19.8125 11.734375 
Q 24.65625 6.203125 33.40625 6.203125 
Q 37.3125 6.203125 41.140625 7.25 
Q 44.96875 8.296875 48.78125 10.40625 
L 48.78125 2.09375 
Q 45.015625 0.34375 40.984375 -0.53125 
Q 36.96875 -1.421875 32.421875 -1.421875 
Q 20.0625 -1.421875 12.78125 6.34375 
Q 5.515625 14.109375 5.515625 27.296875 
Q 5.515625 40.671875 12.859375 48.328125 
Q 20.21875 56 33.015625 56 
Q 37.15625 56 41.109375 55.140625 
Q 45.0625 54.296875 48.78125 52.59375 
z
" id="DejaVuSans-99"/>
       <path d="M 8.5 21.578125 
L 8.5 54.6875 
L 17.484375 54.6875 
L 17.484375 21.921875 
Q 17.484375 14.15625 20.5 10.265625 
Q 23.53125 6.390625 29.59375 6.390625 
Q 36.859375 6.390625 41.078125 11.03125 
Q 45.3125 15.671875 45.3125 23.6875 
L 45.3125 54.6875 
L 54.296875 54.6875 
L 54.296875 0 
L 45.3125 0 
L 45.3125 8.40625 
Q 42.046875 3.421875 37.71875 1 
Q 33.40625 -1.421875 27.6875 -1.421875 
Q 18.265625 -1.421875 13.375 4.4375 
Q 8.5 10.296875 8.5 21.578125 
z
M 31.109375 56 
z
" id="DejaVuSans-117"/>
       <path d="M 41.109375 46.296875 
Q 39.59375 47.171875 37.8125 47.578125 
Q 36.03125 48 33.890625 48 
Q 26.265625 48 22.1875 43.046875 
Q 18.109375 38.09375 18.109375 28.8125 
L 18.109375 0 
L 9.078125 0 
L 9.078125 54.6875 
L 18.109375 54.6875 
L 18.109375 46.1875 
Q 20.953125 51.171875 25.484375 53.578125 
Q 30.03125 56 36.53125 56 
Q 37.453125 56 38.578125 55.875 
Q 39.703125 55.765625 41.0625 55.515625 
z
" id="DejaVuSans-114"/>
       <path d="M 34.28125 27.484375 
Q 23.390625 27.484375 19.1875 25 
Q 14.984375 22.515625 14.984375 16.5 
Q 14.984375 11.71875 18.140625 8.90625 
Q 21.296875 6.109375 26.703125 6.109375 
Q 34.1875 6.109375 38.703125 11.40625 
Q 43.21875 16.703125 43.21875 25.484375 
L 43.21875 27.484375 
z
M 52.203125 31.203125 
L 52.203125 0 
L 43.21875 0 
L 43.21875 8.296875 
Q 40.140625 3.328125 35.546875 0.953125 
Q 30.953125 -1.421875 24.3125 -1.421875 
Q 15.921875 -1.421875 10.953125 3.296875 
Q 6 8.015625 6 15.921875 
Q 6 25.140625 12.171875 29.828125 
Q 18.359375 34.515625 30.609375 34.515625 
L 43.21875 34.515625 
L 43.21875 35.40625 
Q 43.21875 41.609375 39.140625 45 
Q 35.0625 48.390625 27.6875 48.390625 
Q 23 48.390625 18.546875 47.265625 
Q 14.109375 46.140625 10.015625 43.890625 
L 10.015625 52.203125 
Q 14.9375 54.109375 19.578125 55.046875 
Q 24.21875 56 28.609375 56 
Q 40.484375 56 46.34375 49.84375 
Q 52.203125 43.703125 52.203125 31.203125 
z
" id="DejaVuSans-97"/>
       <path d="M 32.171875 -5.078125 
Q 28.375 -14.84375 24.75 -17.8125 
Q 21.140625 -20.796875 15.09375 -20.796875 
L 7.90625 -20.796875 
L 7.90625 -13.28125 
L 13.1875 -13.28125 
Q 16.890625 -13.28125 18.9375 -11.515625 
Q 21 -9.765625 23.484375 -3.21875 
L 25.09375 0.875 
L 2.984375 54.6875 
L 12.5 54.6875 
L 29.59375 11.921875 
L 46.6875 54.6875 
L 56.203125 54.6875 
z
" id="DejaVuSans-121"/>
      </defs>
      <use xlink:href="#DejaVuSans-65"/>
      <use x="66.658203" xlink:href="#DejaVuSans-99"/>
      <use x="121.638672" xlink:href="#DejaVuSans-99"/>
      <use x="176.619141" xlink:href="#DejaVuSans-117"/>
      <use x="239.998047" xlink:href="#DejaVuSans-114"/>
      <use x="281.111328" xlink:href="#DejaVuSans-97"/>
      <use x="342.390625" xlink:href="#DejaVuSans-99"/>
      <use x="397.371094" xlink:href="#DejaVuSans-121"/>
     </g>
    </g>
   </g>
   <g id="matplotlib.axis_2">
    <g id="ytick_1">
     <g id="line2d_16">
      <defs>
       <path d="M 0 0 
L -3.5 0 
" id="mbacda9c6f7" style="stroke:#000000;stroke-width:0.8;"/>
      </defs>
      <g>
       <use style="stroke:#000000;stroke-width:0.8;" x="40.603125" xlink:href="#mbacda9c6f7" y="621.962549"/>
      </g>
     </g>
     <g id="text_17">
      <!-- 13 -->
      <g transform="translate(20.878125 625.761768)scale(0.1 -0.1)">
       <use xlink:href="#DejaVuSans-49"/>
       <use x="63.623047" xlink:href="#DejaVuSans-51"/>
      </g>
     </g>
    </g>
    <g id="ytick_2">
     <g id="line2d_17">
      <g>
       <use style="stroke:#000000;stroke-width:0.8;" x="40.603125" xlink:href="#mbacda9c6f7" y="566.230355"/>
      </g>
     </g>
     <g id="text_18">
      <!-- 17 -->
      <g transform="translate(20.878125 570.029573)scale(0.1 -0.1)">
       <use xlink:href="#DejaVuSans-49"/>
       <use x="63.623047" xlink:href="#DejaVuSans-55"/>
      </g>
     </g>
    </g>
    <g id="ytick_3">
     <g id="line2d_18">
      <g>
       <use style="stroke:#000000;stroke-width:0.8;" x="40.603125" xlink:href="#mbacda9c6f7" y="510.49816"/>
      </g>
     </g>
     <g id="text_19">
      <!-- 14 -->
      <g transform="translate(20.878125 514.297379)scale(0.1 -0.1)">
       <use xlink:href="#DejaVuSans-49"/>
       <use x="63.623047" xlink:href="#DejaVuSans-52"/>
      </g>
     </g>
    </g>
    <g id="ytick_4">
     <g id="line2d_19">
      <g>
       <use style="stroke:#000000;stroke-width:0.8;" x="40.603125" xlink:href="#mbacda9c6f7" y="454.765966"/>
      </g>
     </g>
     <g id="text_20">
      <!-- 10 -->
      <g transform="translate(20.878125 458.565185)scale(0.1 -0.1)">
       <use xlink:href="#DejaVuSans-49"/>
       <use x="63.623047" xlink:href="#DejaVuSans-48"/>
      </g>
     </g>
    </g>
    <g id="ytick_5">
     <g id="line2d_20">
      <g>
       <use style="stroke:#000000;stroke-width:0.8;" x="40.603125" xlink:href="#mbacda9c6f7" y="399.033772"/>
      </g>
     </g>
     <g id="text_21">
      <!-- 22 -->
      <g transform="translate(20.878125 402.832991)scale(0.1 -0.1)">
       <use xlink:href="#DejaVuSans-50"/>
       <use x="63.623047" xlink:href="#DejaVuSans-50"/>
      </g>
     </g>
    </g>
    <g id="ytick_6">
     <g id="line2d_21">
      <g>
       <use style="stroke:#000000;stroke-width:0.8;" x="40.603125" xlink:href="#mbacda9c6f7" y="343.301578"/>
      </g>
     </g>
     <g id="text_22">
      <!-- 25 -->
      <g transform="translate(20.878125 347.100797)scale(0.1 -0.1)">
       <use xlink:href="#DejaVuSans-50"/>
       <use x="63.623047" xlink:href="#DejaVuSans-53"/>
      </g>
     </g>
    </g>
    <g id="ytick_7">
     <g id="line2d_22">
      <g>
       <use style="stroke:#000000;stroke-width:0.8;" x="40.603125" xlink:href="#mbacda9c6f7" y="287.569384"/>
      </g>
     </g>
     <g id="text_23">
      <!-- 15 -->
      <g transform="translate(20.878125 291.368602)scale(0.1 -0.1)">
       <use xlink:href="#DejaVuSans-49"/>
       <use x="63.623047" xlink:href="#DejaVuSans-53"/>
      </g>
     </g>
    </g>
    <g id="ytick_8">
     <g id="line2d_23">
      <g>
       <use style="stroke:#000000;stroke-width:0.8;" x="40.603125" xlink:href="#mbacda9c6f7" y="231.83719"/>
      </g>
     </g>
     <g id="text_24">
      <!-- 28 -->
      <g transform="translate(20.878125 235.636408)scale(0.1 -0.1)">
       <defs>
        <path d="M 31.78125 34.625 
Q 24.75 34.625 20.71875 30.859375 
Q 16.703125 27.09375 16.703125 20.515625 
Q 16.703125 13.921875 20.71875 10.15625 
Q 24.75 6.390625 31.78125 6.390625 
Q 38.8125 6.390625 42.859375 10.171875 
Q 46.921875 13.96875 46.921875 20.515625 
Q 46.921875 27.09375 42.890625 30.859375 
Q 38.875 34.625 31.78125 34.625 
z
M 21.921875 38.8125 
Q 15.578125 40.375 12.03125 44.71875 
Q 8.5 49.078125 8.5 55.328125 
Q 8.5 64.0625 14.71875 69.140625 
Q 20.953125 74.21875 31.78125 74.21875 
Q 42.671875 74.21875 48.875 69.140625 
Q 55.078125 64.0625 55.078125 55.328125 
Q 55.078125 49.078125 51.53125 44.71875 
Q 48 40.375 41.703125 38.8125 
Q 48.828125 37.15625 52.796875 32.3125 
Q 56.78125 27.484375 56.78125 20.515625 
Q 56.78125 9.90625 50.3125 4.234375 
Q 43.84375 -1.421875 31.78125 -1.421875 
Q 19.734375 -1.421875 13.25 4.234375 
Q 6.78125 9.90625 6.78125 20.515625 
Q 6.78125 27.484375 10.78125 32.3125 
Q 14.796875 37.15625 21.921875 38.8125 
z
M 18.3125 54.390625 
Q 18.3125 48.734375 21.84375 45.5625 
Q 25.390625 42.390625 31.78125 42.390625 
Q 38.140625 42.390625 41.71875 45.5625 
Q 45.3125 48.734375 45.3125 54.390625 
Q 45.3125 60.0625 41.71875 63.234375 
Q 38.140625 66.40625 31.78125 66.40625 
Q 25.390625 66.40625 21.84375 63.234375 
Q 18.3125 60.0625 18.3125 54.390625 
z
" id="DejaVuSans-56"/>
       </defs>
       <use xlink:href="#DejaVuSans-50"/>
       <use x="63.623047" xlink:href="#DejaVuSans-56"/>
      </g>
     </g>
    </g>
    <g id="ytick_9">
     <g id="line2d_24">
      <g>
       <use style="stroke:#000000;stroke-width:0.8;" x="40.603125" xlink:href="#mbacda9c6f7" y="176.104995"/>
      </g>
     </g>
     <g id="text_25">
      <!-- 6 -->
      <g transform="translate(27.240625 179.904214)scale(0.1 -0.1)">
       <use xlink:href="#DejaVuSans-54"/>
      </g>
     </g>
    </g>
    <g id="ytick_10">
     <g id="line2d_25">
      <g>
       <use style="stroke:#000000;stroke-width:0.8;" x="40.603125" xlink:href="#mbacda9c6f7" y="120.372801"/>
      </g>
     </g>
     <g id="text_26">
      <!-- 11 -->
      <g transform="translate(20.878125 124.17202)scale(0.1 -0.1)">
       <use xlink:href="#DejaVuSans-49"/>
       <use x="63.623047" xlink:href="#DejaVuSans-49"/>
      </g>
     </g>
    </g>
    <g id="text_27">
     <!-- Iteration number -->
     <g transform="translate(14.798437 413.479394)rotate(-90)scale(0.1 -0.1)">
      <defs>
       <path d="M 9.8125 72.90625 
L 19.671875 72.90625 
L 19.671875 0 
L 9.8125 0 
z
" id="DejaVuSans-73"/>
       <path d="M 18.3125 70.21875 
L 18.3125 54.6875 
L 36.8125 54.6875 
L 36.8125 47.703125 
L 18.3125 47.703125 
L 18.3125 18.015625 
Q 18.3125 11.328125 20.140625 9.421875 
Q 21.96875 7.515625 27.59375 7.515625 
L 36.8125 7.515625 
L 36.8125 0 
L 27.59375 0 
Q 17.1875 0 13.234375 3.875 
Q 9.28125 7.765625 9.28125 18.015625 
L 9.28125 47.703125 
L 2.6875 47.703125 
L 2.6875 54.6875 
L 9.28125 54.6875 
L 9.28125 70.21875 
z
" id="DejaVuSans-116"/>
       <path d="M 56.203125 29.59375 
L 56.203125 25.203125 
L 14.890625 25.203125 
Q 15.484375 15.921875 20.484375 11.0625 
Q 25.484375 6.203125 34.421875 6.203125 
Q 39.59375 6.203125 44.453125 7.46875 
Q 49.3125 8.734375 54.109375 11.28125 
L 54.109375 2.78125 
Q 49.265625 0.734375 44.1875 -0.34375 
Q 39.109375 -1.421875 33.890625 -1.421875 
Q 20.796875 -1.421875 13.15625 6.1875 
Q 5.515625 13.8125 5.515625 26.8125 
Q 5.515625 40.234375 12.765625 48.109375 
Q 20.015625 56 32.328125 56 
Q 43.359375 56 49.78125 48.890625 
Q 56.203125 41.796875 56.203125 29.59375 
z
M 47.21875 32.234375 
Q 47.125 39.59375 43.09375 43.984375 
Q 39.0625 48.390625 32.421875 48.390625 
Q 24.90625 48.390625 20.390625 44.140625 
Q 15.875 39.890625 15.1875 32.171875 
z
" id="DejaVuSans-101"/>
       <path d="M 9.421875 54.6875 
L 18.40625 54.6875 
L 18.40625 0 
L 9.421875 0 
z
M 9.421875 75.984375 
L 18.40625 75.984375 
L 18.40625 64.59375 
L 9.421875 64.59375 
z
" id="DejaVuSans-105"/>
       <path d="M 30.609375 48.390625 
Q 23.390625 48.390625 19.1875 42.75 
Q 14.984375 37.109375 14.984375 27.296875 
Q 14.984375 17.484375 19.15625 11.84375 
Q 23.34375 6.203125 30.609375 6.203125 
Q 37.796875 6.203125 41.984375 11.859375 
Q 46.1875 17.53125 46.1875 27.296875 
Q 46.1875 37.015625 41.984375 42.703125 
Q 37.796875 48.390625 30.609375 48.390625 
z
M 30.609375 56 
Q 42.328125 56 49.015625 48.375 
Q 55.71875 40.765625 55.71875 27.296875 
Q 55.71875 13.875 49.015625 6.21875 
Q 42.328125 -1.421875 30.609375 -1.421875 
Q 18.84375 -1.421875 12.171875 6.21875 
Q 5.515625 13.875 5.515625 27.296875 
Q 5.515625 40.765625 12.171875 48.375 
Q 18.84375 56 30.609375 56 
z
" id="DejaVuSans-111"/>
       <path d="M 54.890625 33.015625 
L 54.890625 0 
L 45.90625 0 
L 45.90625 32.71875 
Q 45.90625 40.484375 42.875 44.328125 
Q 39.84375 48.1875 33.796875 48.1875 
Q 26.515625 48.1875 22.3125 43.546875 
Q 18.109375 38.921875 18.109375 30.90625 
L 18.109375 0 
L 9.078125 0 
L 9.078125 54.6875 
L 18.109375 54.6875 
L 18.109375 46.1875 
Q 21.34375 51.125 25.703125 53.5625 
Q 30.078125 56 35.796875 56 
Q 45.21875 56 50.046875 50.171875 
Q 54.890625 44.34375 54.890625 33.015625 
z
" id="DejaVuSans-110"/>
       <path id="DejaVuSans-32"/>
       <path d="M 52 44.1875 
Q 55.375 50.25 60.0625 53.125 
Q 64.75 56 71.09375 56 
Q 79.640625 56 84.28125 50.015625 
Q 88.921875 44.046875 88.921875 33.015625 
L 88.921875 0 
L 79.890625 0 
L 79.890625 32.71875 
Q 79.890625 40.578125 77.09375 44.375 
Q 74.3125 48.1875 68.609375 48.1875 
Q 61.625 48.1875 57.5625 43.546875 
Q 53.515625 38.921875 53.515625 30.90625 
L 53.515625 0 
L 44.484375 0 
L 44.484375 32.71875 
Q 44.484375 40.625 41.703125 44.40625 
Q 38.921875 48.1875 33.109375 48.1875 
Q 26.21875 48.1875 22.15625 43.53125 
Q 18.109375 38.875 18.109375 30.90625 
L 18.109375 0 
L 9.078125 0 
L 9.078125 54.6875 
L 18.109375 54.6875 
L 18.109375 46.1875 
Q 21.1875 51.21875 25.484375 53.609375 
Q 29.78125 56 35.6875 56 
Q 41.65625 56 45.828125 52.96875 
Q 50 49.953125 52 44.1875 
z
" id="DejaVuSans-109"/>
       <path d="M 48.6875 27.296875 
Q 48.6875 37.203125 44.609375 42.84375 
Q 40.53125 48.484375 33.40625 48.484375 
Q 26.265625 48.484375 22.1875 42.84375 
Q 18.109375 37.203125 18.109375 27.296875 
Q 18.109375 17.390625 22.1875 11.75 
Q 26.265625 6.109375 33.40625 6.109375 
Q 40.53125 6.109375 44.609375 11.75 
Q 48.6875 17.390625 48.6875 27.296875 
z
M 18.109375 46.390625 
Q 20.953125 51.265625 25.265625 53.625 
Q 29.59375 56 35.59375 56 
Q 45.5625 56 51.78125 48.09375 
Q 58.015625 40.1875 58.015625 27.296875 
Q 58.015625 14.40625 51.78125 6.484375 
Q 45.5625 -1.421875 35.59375 -1.421875 
Q 29.59375 -1.421875 25.265625 0.953125 
Q 20.953125 3.328125 18.109375 8.203125 
L 18.109375 0 
L 9.078125 0 
L 9.078125 75.984375 
L 18.109375 75.984375 
z
" id="DejaVuSans-98"/>
      </defs>
      <use xlink:href="#DejaVuSans-73"/>
      <use x="29.492188" xlink:href="#DejaVuSans-116"/>
      <use x="68.701172" xlink:href="#DejaVuSans-101"/>
      <use x="130.224609" xlink:href="#DejaVuSans-114"/>
      <use x="171.337891" xlink:href="#DejaVuSans-97"/>
      <use x="232.617188" xlink:href="#DejaVuSans-116"/>
      <use x="271.826172" xlink:href="#DejaVuSans-105"/>
      <use x="299.609375" xlink:href="#DejaVuSans-111"/>
      <use x="360.791016" xlink:href="#DejaVuSans-110"/>
      <use x="424.169922" xlink:href="#DejaVuSans-32"/>
      <use x="455.957031" xlink:href="#DejaVuSans-110"/>
      <use x="519.335938" xlink:href="#DejaVuSans-117"/>
      <use x="582.714844" xlink:href="#DejaVuSans-109"/>
      <use x="680.126953" xlink:href="#DejaVuSans-98"/>
      <use x="743.603516" xlink:href="#DejaVuSans-101"/>
      <use x="805.126953" xlink:href="#DejaVuSans-114"/>
     </g>
    </g>
   </g>
   <g id="patch_53">
    <path d="M 40.603125 658.188475 
L 40.603125 84.146875 
" style="fill:none;stroke:#000000;stroke-linecap:square;stroke-linejoin:miter;stroke-width:0.8;"/>
   </g>
   <g id="patch_54">
    <path d="M 576.283125 658.188475 
L 576.283125 84.146875 
" style="fill:none;stroke:#000000;stroke-linecap:square;stroke-linejoin:miter;stroke-width:0.8;"/>
   </g>
   <g id="patch_55">
    <path d="M 40.603125 658.188475 
L 576.283125 658.188475 
" style="fill:none;stroke:#000000;stroke-linecap:square;stroke-linejoin:miter;stroke-width:0.8;"/>
   </g>
   <g id="patch_56">
    <path d="M 40.603125 84.146875 
L 576.283125 84.146875 
" style="fill:none;stroke:#000000;stroke-linecap:square;stroke-linejoin:miter;stroke-width:0.8;"/>
   </g>
   <g id="legend_1">
    <g id="patch_57">
     <path d="M 213.370625 18.798437 
L 233.370625 18.798437 
L 233.370625 11.798437 
L 213.370625 11.798437 
z
" style="fill:#6495ed;"/>
    </g>
    <g id="text_28">
     <!-- ANN -->
     <g transform="translate(241.370625 18.798437)scale(0.1 -0.1)">
      <defs>
       <path d="M 9.8125 72.90625 
L 23.09375 72.90625 
L 55.421875 11.921875 
L 55.421875 72.90625 
L 64.984375 72.90625 
L 64.984375 0 
L 51.703125 0 
L 19.390625 60.984375 
L 19.390625 0 
L 9.8125 0 
z
" id="DejaVuSans-78"/>
      </defs>
      <use xlink:href="#DejaVuSans-65"/>
      <use x="68.408203" xlink:href="#DejaVuSans-78"/>
      <use x="143.212891" xlink:href="#DejaVuSans-78"/>
     </g>
    </g>
    <g id="patch_58">
     <path d="M 213.370625 33.476562 
L 233.370625 33.476562 
L 233.370625 26.476562 
L 213.370625 26.476562 
z
" style="fill:#daa520;"/>
    </g>
    <g id="text_29">
     <!-- SNN [time steps = 50, scale_firing_rates = 1000, synapse = 0.01] -->
     <g transform="translate(241.370625 33.476562)scale(0.1 -0.1)">
      <defs>
       <path d="M 53.515625 70.515625 
L 53.515625 60.890625 
Q 47.90625 63.578125 42.921875 64.890625 
Q 37.9375 66.21875 33.296875 66.21875 
Q 25.25 66.21875 20.875 63.09375 
Q 16.5 59.96875 16.5 54.203125 
Q 16.5 49.359375 19.40625 46.890625 
Q 22.3125 44.4375 30.421875 42.921875 
L 36.375 41.703125 
Q 47.40625 39.59375 52.65625 34.296875 
Q 57.90625 29 57.90625 20.125 
Q 57.90625 9.515625 50.796875 4.046875 
Q 43.703125 -1.421875 29.984375 -1.421875 
Q 24.8125 -1.421875 18.96875 -0.25 
Q 13.140625 0.921875 6.890625 3.21875 
L 6.890625 13.375 
Q 12.890625 10.015625 18.65625 8.296875 
Q 24.421875 6.59375 29.984375 6.59375 
Q 38.421875 6.59375 43.015625 9.90625 
Q 47.609375 13.234375 47.609375 19.390625 
Q 47.609375 24.75 44.3125 27.78125 
Q 41.015625 30.8125 33.5 32.328125 
L 27.484375 33.5 
Q 16.453125 35.6875 11.515625 40.375 
Q 6.59375 45.0625 6.59375 53.421875 
Q 6.59375 63.09375 13.40625 68.65625 
Q 20.21875 74.21875 32.171875 74.21875 
Q 37.3125 74.21875 42.625 73.28125 
Q 47.953125 72.359375 53.515625 70.515625 
z
" id="DejaVuSans-83"/>
       <path d="M 8.59375 75.984375 
L 29.296875 75.984375 
L 29.296875 69 
L 17.578125 69 
L 17.578125 -6.203125 
L 29.296875 -6.203125 
L 29.296875 -13.1875 
L 8.59375 -13.1875 
z
" id="DejaVuSans-91"/>
       <path d="M 44.28125 53.078125 
L 44.28125 44.578125 
Q 40.484375 46.53125 36.375 47.5 
Q 32.28125 48.484375 27.875 48.484375 
Q 21.1875 48.484375 17.84375 46.4375 
Q 14.5 44.390625 14.5 40.28125 
Q 14.5 37.15625 16.890625 35.375 
Q 19.28125 33.59375 26.515625 31.984375 
L 29.59375 31.296875 
Q 39.15625 29.25 43.1875 25.515625 
Q 47.21875 21.78125 47.21875 15.09375 
Q 47.21875 7.46875 41.1875 3.015625 
Q 35.15625 -1.421875 24.609375 -1.421875 
Q 20.21875 -1.421875 15.453125 -0.5625 
Q 10.6875 0.296875 5.421875 2 
L 5.421875 11.28125 
Q 10.40625 8.6875 15.234375 7.390625 
Q 20.0625 6.109375 24.8125 6.109375 
Q 31.15625 6.109375 34.5625 8.28125 
Q 37.984375 10.453125 37.984375 14.40625 
Q 37.984375 18.0625 35.515625 20.015625 
Q 33.0625 21.96875 24.703125 23.78125 
L 21.578125 24.515625 
Q 13.234375 26.265625 9.515625 29.90625 
Q 5.8125 33.546875 5.8125 39.890625 
Q 5.8125 47.609375 11.28125 51.796875 
Q 16.75 56 26.8125 56 
Q 31.78125 56 36.171875 55.265625 
Q 40.578125 54.546875 44.28125 53.078125 
z
" id="DejaVuSans-115"/>
       <path d="M 18.109375 8.203125 
L 18.109375 -20.796875 
L 9.078125 -20.796875 
L 9.078125 54.6875 
L 18.109375 54.6875 
L 18.109375 46.390625 
Q 20.953125 51.265625 25.265625 53.625 
Q 29.59375 56 35.59375 56 
Q 45.5625 56 51.78125 48.09375 
Q 58.015625 40.1875 58.015625 27.296875 
Q 58.015625 14.40625 51.78125 6.484375 
Q 45.5625 -1.421875 35.59375 -1.421875 
Q 29.59375 -1.421875 25.265625 0.953125 
Q 20.953125 3.328125 18.109375 8.203125 
z
M 48.6875 27.296875 
Q 48.6875 37.203125 44.609375 42.84375 
Q 40.53125 48.484375 33.40625 48.484375 
Q 26.265625 48.484375 22.1875 42.84375 
Q 18.109375 37.203125 18.109375 27.296875 
Q 18.109375 17.390625 22.1875 11.75 
Q 26.265625 6.109375 33.40625 6.109375 
Q 40.53125 6.109375 44.609375 11.75 
Q 48.6875 17.390625 48.6875 27.296875 
z
" id="DejaVuSans-112"/>
       <path d="M 10.59375 45.40625 
L 73.1875 45.40625 
L 73.1875 37.203125 
L 10.59375 37.203125 
z
M 10.59375 25.484375 
L 73.1875 25.484375 
L 73.1875 17.1875 
L 10.59375 17.1875 
z
" id="DejaVuSans-61"/>
       <path d="M 11.71875 12.40625 
L 22.015625 12.40625 
L 22.015625 4 
L 14.015625 -11.625 
L 7.71875 -11.625 
L 11.71875 4 
z
" id="DejaVuSans-44"/>
       <path d="M 9.421875 75.984375 
L 18.40625 75.984375 
L 18.40625 0 
L 9.421875 0 
z
" id="DejaVuSans-108"/>
       <path d="M 50.984375 -16.609375 
L 50.984375 -23.578125 
L -0.984375 -23.578125 
L -0.984375 -16.609375 
z
" id="DejaVuSans-95"/>
       <path d="M 37.109375 75.984375 
L 37.109375 68.5 
L 28.515625 68.5 
Q 23.6875 68.5 21.796875 66.546875 
Q 19.921875 64.59375 19.921875 59.515625 
L 19.921875 54.6875 
L 34.71875 54.6875 
L 34.71875 47.703125 
L 19.921875 47.703125 
L 19.921875 0 
L 10.890625 0 
L 10.890625 47.703125 
L 2.296875 47.703125 
L 2.296875 54.6875 
L 10.890625 54.6875 
L 10.890625 58.5 
Q 10.890625 67.625 15.140625 71.796875 
Q 19.390625 75.984375 28.609375 75.984375 
z
" id="DejaVuSans-102"/>
       <path d="M 45.40625 27.984375 
Q 45.40625 37.75 41.375 43.109375 
Q 37.359375 48.484375 30.078125 48.484375 
Q 22.859375 48.484375 18.828125 43.109375 
Q 14.796875 37.75 14.796875 27.984375 
Q 14.796875 18.265625 18.828125 12.890625 
Q 22.859375 7.515625 30.078125 7.515625 
Q 37.359375 7.515625 41.375 12.890625 
Q 45.40625 18.265625 45.40625 27.984375 
z
M 54.390625 6.78125 
Q 54.390625 -7.171875 48.1875 -13.984375 
Q 42 -20.796875 29.203125 -20.796875 
Q 24.46875 -20.796875 20.265625 -20.09375 
Q 16.0625 -19.390625 12.109375 -17.921875 
L 12.109375 -9.1875 
Q 16.0625 -11.328125 19.921875 -12.34375 
Q 23.78125 -13.375 27.78125 -13.375 
Q 36.625 -13.375 41.015625 -8.765625 
Q 45.40625 -4.15625 45.40625 5.171875 
L 45.40625 9.625 
Q 42.625 4.78125 38.28125 2.390625 
Q 33.9375 0 27.875 0 
Q 17.828125 0 11.671875 7.65625 
Q 5.515625 15.328125 5.515625 27.984375 
Q 5.515625 40.671875 11.671875 48.328125 
Q 17.828125 56 27.875 56 
Q 33.9375 56 38.28125 53.609375 
Q 42.625 51.21875 45.40625 46.390625 
L 45.40625 54.6875 
L 54.390625 54.6875 
z
" id="DejaVuSans-103"/>
       <path d="M 30.421875 75.984375 
L 30.421875 -13.1875 
L 9.71875 -13.1875 
L 9.71875 -6.203125 
L 21.390625 -6.203125 
L 21.390625 69 
L 9.71875 69 
L 9.71875 75.984375 
z
" id="DejaVuSans-93"/>
      </defs>
      <use xlink:href="#DejaVuSans-83"/>
      <use x="63.476562" xlink:href="#DejaVuSans-78"/>
      <use x="138.28125" xlink:href="#DejaVuSans-78"/>
      <use x="213.085938" xlink:href="#DejaVuSans-32"/>
      <use x="244.873047" xlink:href="#DejaVuSans-91"/>
      <use x="283.886719" xlink:href="#DejaVuSans-116"/>
      <use x="323.095703" xlink:href="#DejaVuSans-105"/>
      <use x="350.878906" xlink:href="#DejaVuSans-109"/>
      <use x="448.291016" xlink:href="#DejaVuSans-101"/>
      <use x="509.814453" xlink:href="#DejaVuSans-32"/>
      <use x="541.601562" xlink:href="#DejaVuSans-115"/>
      <use x="593.701172" xlink:href="#DejaVuSans-116"/>
      <use x="632.910156" xlink:href="#DejaVuSans-101"/>
      <use x="694.433594" xlink:href="#DejaVuSans-112"/>
      <use x="757.910156" xlink:href="#DejaVuSans-115"/>
      <use x="810.009766" xlink:href="#DejaVuSans-32"/>
      <use x="841.796875" xlink:href="#DejaVuSans-61"/>
      <use x="925.585938" xlink:href="#DejaVuSans-32"/>
      <use x="957.373047" xlink:href="#DejaVuSans-53"/>
      <use x="1020.996094" xlink:href="#DejaVuSans-48"/>
      <use x="1084.619141" xlink:href="#DejaVuSans-44"/>
      <use x="1116.40625" xlink:href="#DejaVuSans-32"/>
      <use x="1148.193359" xlink:href="#DejaVuSans-115"/>
      <use x="1200.292969" xlink:href="#DejaVuSans-99"/>
      <use x="1255.273438" xlink:href="#DejaVuSans-97"/>
      <use x="1316.552734" xlink:href="#DejaVuSans-108"/>
      <use x="1344.335938" xlink:href="#DejaVuSans-101"/>
      <use x="1405.859375" xlink:href="#DejaVuSans-95"/>
      <use x="1455.859375" xlink:href="#DejaVuSans-102"/>
      <use x="1491.064453" xlink:href="#DejaVuSans-105"/>
      <use x="1518.847656" xlink:href="#DejaVuSans-114"/>
      <use x="1559.960938" xlink:href="#DejaVuSans-105"/>
      <use x="1587.744141" xlink:href="#DejaVuSans-110"/>
      <use x="1651.123047" xlink:href="#DejaVuSans-103"/>
      <use x="1714.599609" xlink:href="#DejaVuSans-95"/>
      <use x="1764.599609" xlink:href="#DejaVuSans-114"/>
      <use x="1805.712891" xlink:href="#DejaVuSans-97"/>
      <use x="1866.992188" xlink:href="#DejaVuSans-116"/>
      <use x="1906.201172" xlink:href="#DejaVuSans-101"/>
      <use x="1967.724609" xlink:href="#DejaVuSans-115"/>
      <use x="2019.824219" xlink:href="#DejaVuSans-32"/>
      <use x="2051.611328" xlink:href="#DejaVuSans-61"/>
      <use x="2135.400391" xlink:href="#DejaVuSans-32"/>
      <use x="2167.1875" xlink:href="#DejaVuSans-49"/>
      <use x="2230.810547" xlink:href="#DejaVuSans-48"/>
      <use x="2294.433594" xlink:href="#DejaVuSans-48"/>
      <use x="2358.056641" xlink:href="#DejaVuSans-48"/>
      <use x="2421.679688" xlink:href="#DejaVuSans-44"/>
      <use x="2453.466797" xlink:href="#DejaVuSans-32"/>
      <use x="2485.253906" xlink:href="#DejaVuSans-115"/>
      <use x="2537.353516" xlink:href="#DejaVuSans-121"/>
      <use x="2596.533203" xlink:href="#DejaVuSans-110"/>
      <use x="2659.912109" xlink:href="#DejaVuSans-97"/>
      <use x="2721.191406" xlink:href="#DejaVuSans-112"/>
      <use x="2784.667969" xlink:href="#DejaVuSans-115"/>
      <use x="2836.767578" xlink:href="#DejaVuSans-101"/>
      <use x="2898.291016" xlink:href="#DejaVuSans-32"/>
      <use x="2930.078125" xlink:href="#DejaVuSans-61"/>
      <use x="3013.867188" xlink:href="#DejaVuSans-32"/>
      <use x="3045.654297" xlink:href="#DejaVuSans-48"/>
      <use x="3109.277344" xlink:href="#DejaVuSans-46"/>
      <use x="3141.064453" xlink:href="#DejaVuSans-48"/>
      <use x="3204.6875" xlink:href="#DejaVuSans-49"/>
      <use x="3268.310547" xlink:href="#DejaVuSans-93"/>
     </g>
    </g>
    <g id="patch_59">
     <path d="M 213.370625 48.432812 
L 233.370625 48.432812 
L 233.370625 41.432812 
L 213.370625 41.432812 
z
" style="fill:#00ff7f;"/>
    </g>
    <g id="text_30">
     <!-- SNN [time steps = 50, scale firing rates = 1000, synapse = None] -->
     <g transform="translate(241.370625 48.432812)scale(0.1 -0.1)">
      <use xlink:href="#DejaVuSans-83"/>
      <use x="63.476562" xlink:href="#DejaVuSans-78"/>
      <use x="138.28125" xlink:href="#DejaVuSans-78"/>
      <use x="213.085938" xlink:href="#DejaVuSans-32"/>
      <use x="244.873047" xlink:href="#DejaVuSans-91"/>
      <use x="283.886719" xlink:href="#DejaVuSans-116"/>
      <use x="323.095703" xlink:href="#DejaVuSans-105"/>
      <use x="350.878906" xlink:href="#DejaVuSans-109"/>
      <use x="448.291016" xlink:href="#DejaVuSans-101"/>
      <use x="509.814453" xlink:href="#DejaVuSans-32"/>
      <use x="541.601562" xlink:href="#DejaVuSans-115"/>
      <use x="593.701172" xlink:href="#DejaVuSans-116"/>
      <use x="632.910156" xlink:href="#DejaVuSans-101"/>
      <use x="694.433594" xlink:href="#DejaVuSans-112"/>
      <use x="757.910156" xlink:href="#DejaVuSans-115"/>
      <use x="810.009766" xlink:href="#DejaVuSans-32"/>
      <use x="841.796875" xlink:href="#DejaVuSans-61"/>
      <use x="925.585938" xlink:href="#DejaVuSans-32"/>
      <use x="957.373047" xlink:href="#DejaVuSans-53"/>
      <use x="1020.996094" xlink:href="#DejaVuSans-48"/>
      <use x="1084.619141" xlink:href="#DejaVuSans-44"/>
      <use x="1116.40625" xlink:href="#DejaVuSans-32"/>
      <use x="1148.193359" xlink:href="#DejaVuSans-115"/>
      <use x="1200.292969" xlink:href="#DejaVuSans-99"/>
      <use x="1255.273438" xlink:href="#DejaVuSans-97"/>
      <use x="1316.552734" xlink:href="#DejaVuSans-108"/>
      <use x="1344.335938" xlink:href="#DejaVuSans-101"/>
      <use x="1405.859375" xlink:href="#DejaVuSans-32"/>
      <use x="1437.646484" xlink:href="#DejaVuSans-102"/>
      <use x="1472.851562" xlink:href="#DejaVuSans-105"/>
      <use x="1500.634766" xlink:href="#DejaVuSans-114"/>
      <use x="1541.748047" xlink:href="#DejaVuSans-105"/>
      <use x="1569.53125" xlink:href="#DejaVuSans-110"/>
      <use x="1632.910156" xlink:href="#DejaVuSans-103"/>
      <use x="1696.386719" xlink:href="#DejaVuSans-32"/>
      <use x="1728.173828" xlink:href="#DejaVuSans-114"/>
      <use x="1769.287109" xlink:href="#DejaVuSans-97"/>
      <use x="1830.566406" xlink:href="#DejaVuSans-116"/>
      <use x="1869.775391" xlink:href="#DejaVuSans-101"/>
      <use x="1931.298828" xlink:href="#DejaVuSans-115"/>
      <use x="1983.398438" xlink:href="#DejaVuSans-32"/>
      <use x="2015.185547" xlink:href="#DejaVuSans-61"/>
      <use x="2098.974609" xlink:href="#DejaVuSans-32"/>
      <use x="2130.761719" xlink:href="#DejaVuSans-49"/>
      <use x="2194.384766" xlink:href="#DejaVuSans-48"/>
      <use x="2258.007812" xlink:href="#DejaVuSans-48"/>
      <use x="2321.630859" xlink:href="#DejaVuSans-48"/>
      <use x="2385.253906" xlink:href="#DejaVuSans-44"/>
      <use x="2417.041016" xlink:href="#DejaVuSans-32"/>
      <use x="2448.828125" xlink:href="#DejaVuSans-115"/>
      <use x="2500.927734" xlink:href="#DejaVuSans-121"/>
      <use x="2560.107422" xlink:href="#DejaVuSans-110"/>
      <use x="2623.486328" xlink:href="#DejaVuSans-97"/>
      <use x="2684.765625" xlink:href="#DejaVuSans-112"/>
      <use x="2748.242188" xlink:href="#DejaVuSans-115"/>
      <use x="2800.341797" xlink:href="#DejaVuSans-101"/>
      <use x="2861.865234" xlink:href="#DejaVuSans-32"/>
      <use x="2893.652344" xlink:href="#DejaVuSans-61"/>
      <use x="2977.441406" xlink:href="#DejaVuSans-32"/>
      <use x="3009.228516" xlink:href="#DejaVuSans-78"/>
      <use x="3084.033203" xlink:href="#DejaVuSans-111"/>
      <use x="3145.214844" xlink:href="#DejaVuSans-110"/>
      <use x="3208.59375" xlink:href="#DejaVuSans-101"/>
      <use x="3270.117188" xlink:href="#DejaVuSans-93"/>
     </g>
    </g>
    <g id="patch_60">
     <path d="M 213.370625 63.110937 
L 233.370625 63.110937 
L 233.370625 56.110937 
L 213.370625 56.110937 
z
" style="fill:#778899;"/>
    </g>
    <g id="text_31">
     <!-- SNN [time steps = 50, scale_firing_rates = 1, synapse = 0.01] -->
     <g transform="translate(241.370625 63.110937)scale(0.1 -0.1)">
      <use xlink:href="#DejaVuSans-83"/>
      <use x="63.476562" xlink:href="#DejaVuSans-78"/>
      <use x="138.28125" xlink:href="#DejaVuSans-78"/>
      <use x="213.085938" xlink:href="#DejaVuSans-32"/>
      <use x="244.873047" xlink:href="#DejaVuSans-91"/>
      <use x="283.886719" xlink:href="#DejaVuSans-116"/>
      <use x="323.095703" xlink:href="#DejaVuSans-105"/>
      <use x="350.878906" xlink:href="#DejaVuSans-109"/>
      <use x="448.291016" xlink:href="#DejaVuSans-101"/>
      <use x="509.814453" xlink:href="#DejaVuSans-32"/>
      <use x="541.601562" xlink:href="#DejaVuSans-115"/>
      <use x="593.701172" xlink:href="#DejaVuSans-116"/>
      <use x="632.910156" xlink:href="#DejaVuSans-101"/>
      <use x="694.433594" xlink:href="#DejaVuSans-112"/>
      <use x="757.910156" xlink:href="#DejaVuSans-115"/>
      <use x="810.009766" xlink:href="#DejaVuSans-32"/>
      <use x="841.796875" xlink:href="#DejaVuSans-61"/>
      <use x="925.585938" xlink:href="#DejaVuSans-32"/>
      <use x="957.373047" xlink:href="#DejaVuSans-53"/>
      <use x="1020.996094" xlink:href="#DejaVuSans-48"/>
      <use x="1084.619141" xlink:href="#DejaVuSans-44"/>
      <use x="1116.40625" xlink:href="#DejaVuSans-32"/>
      <use x="1148.193359" xlink:href="#DejaVuSans-115"/>
      <use x="1200.292969" xlink:href="#DejaVuSans-99"/>
      <use x="1255.273438" xlink:href="#DejaVuSans-97"/>
      <use x="1316.552734" xlink:href="#DejaVuSans-108"/>
      <use x="1344.335938" xlink:href="#DejaVuSans-101"/>
      <use x="1405.859375" xlink:href="#DejaVuSans-95"/>
      <use x="1455.859375" xlink:href="#DejaVuSans-102"/>
      <use x="1491.064453" xlink:href="#DejaVuSans-105"/>
      <use x="1518.847656" xlink:href="#DejaVuSans-114"/>
      <use x="1559.960938" xlink:href="#DejaVuSans-105"/>
      <use x="1587.744141" xlink:href="#DejaVuSans-110"/>
      <use x="1651.123047" xlink:href="#DejaVuSans-103"/>
      <use x="1714.599609" xlink:href="#DejaVuSans-95"/>
      <use x="1764.599609" xlink:href="#DejaVuSans-114"/>
      <use x="1805.712891" xlink:href="#DejaVuSans-97"/>
      <use x="1866.992188" xlink:href="#DejaVuSans-116"/>
      <use x="1906.201172" xlink:href="#DejaVuSans-101"/>
      <use x="1967.724609" xlink:href="#DejaVuSans-115"/>
      <use x="2019.824219" xlink:href="#DejaVuSans-32"/>
      <use x="2051.611328" xlink:href="#DejaVuSans-61"/>
      <use x="2135.400391" xlink:href="#DejaVuSans-32"/>
      <use x="2167.1875" xlink:href="#DejaVuSans-49"/>
      <use x="2230.810547" xlink:href="#DejaVuSans-44"/>
      <use x="2262.597656" xlink:href="#DejaVuSans-32"/>
      <use x="2294.384766" xlink:href="#DejaVuSans-115"/>
      <use x="2346.484375" xlink:href="#DejaVuSans-121"/>
      <use x="2405.664062" xlink:href="#DejaVuSans-110"/>
      <use x="2469.042969" xlink:href="#DejaVuSans-97"/>
      <use x="2530.322266" xlink:href="#DejaVuSans-112"/>
      <use x="2593.798828" xlink:href="#DejaVuSans-115"/>
      <use x="2645.898438" xlink:href="#DejaVuSans-101"/>
      <use x="2707.421875" xlink:href="#DejaVuSans-32"/>
      <use x="2739.208984" xlink:href="#DejaVuSans-61"/>
      <use x="2822.998047" xlink:href="#DejaVuSans-32"/>
      <use x="2854.785156" xlink:href="#DejaVuSans-48"/>
      <use x="2918.408203" xlink:href="#DejaVuSans-46"/>
      <use x="2950.195312" xlink:href="#DejaVuSans-48"/>
      <use x="3013.818359" xlink:href="#DejaVuSans-49"/>
      <use x="3077.441406" xlink:href="#DejaVuSans-93"/>
     </g>
    </g>
    <g id="patch_61">
     <path d="M 213.370625 78.067187 
L 233.370625 78.067187 
L 233.370625 71.067187 
L 213.370625 71.067187 
z
" style="fill:#f08080;"/>
    </g>
    <g id="text_32">
     <!-- SNN [time steps = 50, scale firing rates = 1, synapse = None] -->
     <g transform="translate(241.370625 78.067187)scale(0.1 -0.1)">
      <use xlink:href="#DejaVuSans-83"/>
      <use x="63.476562" xlink:href="#DejaVuSans-78"/>
      <use x="138.28125" xlink:href="#DejaVuSans-78"/>
      <use x="213.085938" xlink:href="#DejaVuSans-32"/>
      <use x="244.873047" xlink:href="#DejaVuSans-91"/>
      <use x="283.886719" xlink:href="#DejaVuSans-116"/>
      <use x="323.095703" xlink:href="#DejaVuSans-105"/>
      <use x="350.878906" xlink:href="#DejaVuSans-109"/>
      <use x="448.291016" xlink:href="#DejaVuSans-101"/>
      <use x="509.814453" xlink:href="#DejaVuSans-32"/>
      <use x="541.601562" xlink:href="#DejaVuSans-115"/>
      <use x="593.701172" xlink:href="#DejaVuSans-116"/>
      <use x="632.910156" xlink:href="#DejaVuSans-101"/>
      <use x="694.433594" xlink:href="#DejaVuSans-112"/>
      <use x="757.910156" xlink:href="#DejaVuSans-115"/>
      <use x="810.009766" xlink:href="#DejaVuSans-32"/>
      <use x="841.796875" xlink:href="#DejaVuSans-61"/>
      <use x="925.585938" xlink:href="#DejaVuSans-32"/>
      <use x="957.373047" xlink:href="#DejaVuSans-53"/>
      <use x="1020.996094" xlink:href="#DejaVuSans-48"/>
      <use x="1084.619141" xlink:href="#DejaVuSans-44"/>
      <use x="1116.40625" xlink:href="#DejaVuSans-32"/>
      <use x="1148.193359" xlink:href="#DejaVuSans-115"/>
      <use x="1200.292969" xlink:href="#DejaVuSans-99"/>
      <use x="1255.273438" xlink:href="#DejaVuSans-97"/>
      <use x="1316.552734" xlink:href="#DejaVuSans-108"/>
      <use x="1344.335938" xlink:href="#DejaVuSans-101"/>
      <use x="1405.859375" xlink:href="#DejaVuSans-32"/>
      <use x="1437.646484" xlink:href="#DejaVuSans-102"/>
      <use x="1472.851562" xlink:href="#DejaVuSans-105"/>
      <use x="1500.634766" xlink:href="#DejaVuSans-114"/>
      <use x="1541.748047" xlink:href="#DejaVuSans-105"/>
      <use x="1569.53125" xlink:href="#DejaVuSans-110"/>
      <use x="1632.910156" xlink:href="#DejaVuSans-103"/>
      <use x="1696.386719" xlink:href="#DejaVuSans-32"/>
      <use x="1728.173828" xlink:href="#DejaVuSans-114"/>
      <use x="1769.287109" xlink:href="#DejaVuSans-97"/>
      <use x="1830.566406" xlink:href="#DejaVuSans-116"/>
      <use x="1869.775391" xlink:href="#DejaVuSans-101"/>
      <use x="1931.298828" xlink:href="#DejaVuSans-115"/>
      <use x="1983.398438" xlink:href="#DejaVuSans-32"/>
      <use x="2015.185547" xlink:href="#DejaVuSans-61"/>
      <use x="2098.974609" xlink:href="#DejaVuSans-32"/>
      <use x="2130.761719" xlink:href="#DejaVuSans-49"/>
      <use x="2194.384766" xlink:href="#DejaVuSans-44"/>
      <use x="2226.171875" xlink:href="#DejaVuSans-32"/>
      <use x="2257.958984" xlink:href="#DejaVuSans-115"/>
      <use x="2310.058594" xlink:href="#DejaVuSans-121"/>
      <use x="2369.238281" xlink:href="#DejaVuSans-110"/>
      <use x="2432.617188" xlink:href="#DejaVuSans-97"/>
      <use x="2493.896484" xlink:href="#DejaVuSans-112"/>
      <use x="2557.373047" xlink:href="#DejaVuSans-115"/>
      <use x="2609.472656" xlink:href="#DejaVuSans-101"/>
      <use x="2670.996094" xlink:href="#DejaVuSans-32"/>
      <use x="2702.783203" xlink:href="#DejaVuSans-61"/>
      <use x="2786.572266" xlink:href="#DejaVuSans-32"/>
      <use x="2818.359375" xlink:href="#DejaVuSans-78"/>
      <use x="2893.164062" xlink:href="#DejaVuSans-111"/>
      <use x="2954.345703" xlink:href="#DejaVuSans-110"/>
      <use x="3017.724609" xlink:href="#DejaVuSans-101"/>
      <use x="3079.248047" xlink:href="#DejaVuSans-93"/>
     </g>
    </g>
   </g>
  </g>
 </g>
 <defs>
  <clipPath id="p8f02c1b047">
   <rect height="574.0416" width="535.68" x="40.603125" y="84.146875"/>
  </clipPath>
 </defs>
</svg>
